<svg width="82" height="9" viewBox="0 0 82 9" fill="none" xmlns="http://www.w3.org/2000/svg">
<path d="M0.0701262 0.632504H1.38113V7.406H5.45213V8.5675H0.0701262V0.632504ZM9.05441 8.7055C8.48708 8.7055 7.98874 8.579 7.55941 8.326C7.13008 8.073 6.80041 7.7165 6.57041 7.2565C6.34041 6.7965 6.22541 6.26367 6.22541 5.658C6.22541 5.037 6.34808 4.49267 6.59341 4.025C6.83874 3.55734 7.17991 3.197 7.61691 2.944C8.05391 2.691 8.54841 2.5645 9.10041 2.5645C9.95141 2.5645 10.6107 2.8635 11.0784 3.4615C11.5461 4.0595 11.7876 4.87984 11.8029 5.9225H7.58241C7.62074 6.46684 7.77024 6.88467 8.03091 7.176C8.29158 7.46734 8.65191 7.613 9.11191 7.613C9.45691 7.613 9.74441 7.5325 9.97441 7.3715C10.2044 7.20284 10.3462 6.96517 10.3999 6.6585H11.7339C11.6496 7.28717 11.3582 7.7855 10.8599 8.1535C10.3692 8.5215 9.76741 8.7055 9.05441 8.7055ZM10.4804 5.06C10.4574 4.60767 10.3232 4.26267 10.0779 4.025C9.83258 3.77967 9.50291 3.657 9.08891 3.657C8.68258 3.657 8.35291 3.77967 8.09991 4.025C7.84691 4.26267 7.68591 4.60767 7.61691 5.06H10.4804ZM14.8674 8.5675C13.9474 8.5675 13.4874 8.0385 13.4874 6.9805V3.6455H12.3719V2.7025H13.4874V1.0925H14.7754V2.7025H15.9484V3.6455H14.7754V6.7965C14.7754 7.06484 14.8367 7.2565 14.9594 7.3715C15.0821 7.47884 15.2814 7.5325 15.5574 7.5325H16.0059V8.5675H14.8674ZM17.0701 3.2085C17.3078 3.17017 17.4803 3.06667 17.5876 2.898C17.7026 2.72934 17.7601 2.48784 17.7601 2.1735V2.0355H17.0701V0.632504H18.4731V2.139C18.4731 3.18934 18.0054 3.772 17.0701 3.887V3.2085ZM21.7041 8.7055C20.9221 8.7055 20.3126 8.5215 19.8756 8.1535C19.4386 7.77784 19.2086 7.26034 19.1856 6.601H20.4506C20.466 6.95367 20.5848 7.22584 20.8071 7.4175C21.0295 7.60917 21.34 7.705 21.7386 7.705C22.076 7.705 22.3405 7.63984 22.5321 7.5095C22.7238 7.37917 22.8196 7.20284 22.8196 6.9805C22.8196 6.7275 22.7008 6.5435 22.4631 6.4285C22.2331 6.30584 21.8766 6.19084 21.3936 6.0835C20.949 5.97617 20.5886 5.87267 20.3126 5.773C20.0366 5.66567 19.799 5.50084 19.5996 5.2785C19.408 5.05617 19.3121 4.75717 19.3121 4.3815C19.3121 3.8295 19.523 3.38867 19.9446 3.059C20.374 2.72934 20.9413 2.5645 21.6466 2.5645C22.3673 2.5645 22.927 2.74084 23.3256 3.0935C23.7243 3.4385 23.939 3.91384 23.9696 4.5195H22.7046C22.6816 4.1975 22.5743 3.95217 22.3826 3.7835C22.191 3.61484 21.9226 3.5305 21.5776 3.5305C21.2786 3.5305 21.0448 3.59184 20.8761 3.7145C20.7075 3.8295 20.6231 3.99434 20.6231 4.209C20.6231 4.45434 20.7343 4.6345 20.9566 4.7495C21.1866 4.85684 21.5431 4.968 22.0261 5.083C22.4708 5.19034 22.835 5.29767 23.1186 5.405C23.4023 5.51234 23.6438 5.681 23.8431 5.911C24.0425 6.141 24.1421 6.45534 24.1421 6.854C24.1421 7.429 23.9198 7.88134 23.4751 8.211C23.0381 8.54067 22.4478 8.7055 21.7041 8.7055ZM30.92 8.7055C30.552 8.7055 30.2223 8.62884 29.931 8.4755C29.6473 8.32217 29.4058 8.09984 29.2065 7.8085L29.172 8.5675H27.93V0.632504H29.218V3.427C29.6243 2.852 30.1916 2.5645 30.92 2.5645C31.3953 2.5645 31.8208 2.691 32.1965 2.944C32.5798 3.18934 32.8788 3.54584 33.0935 4.0135C33.3081 4.4735 33.4155 5.014 33.4155 5.635C33.4155 6.256 33.3081 6.80034 33.0935 7.268C32.8788 7.728 32.5798 8.0845 32.1965 8.3375C31.8208 8.58284 31.3953 8.7055 30.92 8.7055ZM30.6095 7.613C31.0618 7.613 31.4183 7.43667 31.679 7.084C31.9473 6.72367 32.0815 6.24067 32.0815 5.635C32.0815 5.02934 31.9473 4.55017 31.679 4.1975C31.4183 3.83717 31.0618 3.657 30.6095 3.657C30.1725 3.657 29.8313 3.83334 29.586 4.186C29.3406 4.531 29.218 5.014 29.218 5.635C29.218 6.256 29.3406 6.74284 29.586 7.0955C29.8313 7.4405 30.1725 7.613 30.6095 7.613ZM37.1755 8.7055C36.6082 8.7055 36.1098 8.579 35.6805 8.326C35.2512 8.073 34.9215 7.7165 34.6915 7.2565C34.4615 6.7965 34.3465 6.26367 34.3465 5.658C34.3465 5.037 34.4692 4.49267 34.7145 4.025C34.9598 3.55734 35.301 3.197 35.738 2.944C36.175 2.691 36.6695 2.5645 37.2215 2.5645C38.0725 2.5645 38.7318 2.8635 39.1995 3.4615C39.6672 4.0595 39.9087 4.87984 39.924 5.9225H35.7035C35.7418 6.46684 35.8913 6.88467 36.152 7.176C36.4127 7.46734 36.773 7.613 37.233 7.613C37.578 7.613 37.8655 7.5325 38.0955 7.3715C38.3255 7.20284 38.4673 6.96517 38.521 6.6585H39.855C39.7707 7.28717 39.4793 7.7855 38.981 8.1535C38.4903 8.5215 37.8885 8.7055 37.1755 8.7055ZM38.6015 5.06C38.5785 4.60767 38.4443 4.26267 38.199 4.025C37.9537 3.77967 37.624 3.657 37.21 3.657C36.8037 3.657 36.474 3.77967 36.221 4.025C35.968 4.26267 35.807 4.60767 35.738 5.06H38.6015ZM43.8353 0.632504H49.0563V1.794H45.1463V4.1055H48.7803V5.267H45.1463V8.5675H43.8353V0.632504ZM50.1326 2.7025H51.4206V3.6455C51.7503 3.01684 52.2716 2.7025 52.9846 2.7025H53.4906V3.9445H52.8581C52.3674 3.9445 52.0033 4.09017 51.7656 4.3815C51.5356 4.66517 51.4206 5.11367 51.4206 5.727V8.5675H50.1326V2.7025ZM54.5462 2.7025H55.8342V8.5675H54.5462V2.7025ZM54.5232 0.632504H55.8572V1.9435H54.5232V0.632504ZM59.8835 8.7055C59.3162 8.7055 58.8178 8.579 58.3885 8.326C57.9592 8.073 57.6295 7.7165 57.3995 7.2565C57.1695 6.7965 57.0545 6.26367 57.0545 5.658C57.0545 5.037 57.1772 4.49267 57.4225 4.025C57.6678 3.55734 58.009 3.197 58.446 2.944C58.883 2.691 59.3775 2.5645 59.9295 2.5645C60.7805 2.5645 61.4398 2.8635 61.9075 3.4615C62.3752 4.0595 62.6167 4.87984 62.632 5.9225H58.4115C58.4498 6.46684 58.5993 6.88467 58.86 7.176C59.1207 7.46734 59.481 7.613 59.941 7.613C60.286 7.613 60.5735 7.5325 60.8035 7.3715C61.0335 7.20284 61.1753 6.96517 61.229 6.6585H62.563C62.4787 7.28717 62.1873 7.7855 61.689 8.1535C61.1983 8.5215 60.5965 8.7055 59.8835 8.7055ZM61.3095 5.06C61.2865 4.60767 61.1523 4.26267 60.907 4.025C60.6617 3.77967 60.332 3.657 59.918 3.657C59.5117 3.657 59.182 3.77967 58.929 4.025C58.676 4.26267 58.515 4.60767 58.446 5.06H61.3095ZM63.845 2.7025H65.087L65.133 3.565C65.34 3.23534 65.6045 2.98617 65.9265 2.8175C66.2562 2.64884 66.605 2.5645 66.973 2.5645C67.364 2.5645 67.709 2.6565 68.008 2.8405C68.3147 3.01684 68.5523 3.26984 68.721 3.5995C68.8973 3.9215 68.9855 4.29717 68.9855 4.7265V8.5675H67.6975V4.9565C67.6975 4.55784 67.6017 4.24734 67.41 4.025C67.2183 3.80267 66.9423 3.6915 66.582 3.6915C66.1527 3.6915 65.8038 3.84867 65.5355 4.163C65.2672 4.46967 65.133 4.876 65.133 5.382V8.5675H63.845V2.7025ZM72.6447 8.7055C72.1694 8.7055 71.7401 8.58284 71.3567 8.3375C70.9811 8.0845 70.6859 7.728 70.4712 7.268C70.2566 6.80034 70.1492 6.256 70.1492 5.635C70.1492 5.014 70.2566 4.4735 70.4712 4.0135C70.6859 3.54584 70.9811 3.18934 71.3567 2.944C71.7401 2.691 72.1694 2.5645 72.6447 2.5645C73.3731 2.5645 73.9404 2.852 74.3467 3.427V0.632504H75.6347V8.5675H74.3927L74.3582 7.82C74.1589 8.10367 73.9136 8.32217 73.6222 8.4755C73.3309 8.62884 73.0051 8.7055 72.6447 8.7055ZM72.9552 7.613C73.3922 7.613 73.7334 7.4405 73.9787 7.0955C74.2241 6.74284 74.3467 6.256 74.3467 5.635C74.3467 5.014 74.2241 4.531 73.9787 4.186C73.7334 3.83334 73.3922 3.657 72.9552 3.657C72.5106 3.657 72.1541 3.83717 71.8857 4.1975C71.6251 4.55017 71.4947 5.02934 71.4947 5.635C71.4947 6.24067 71.6251 6.72367 71.8857 7.084C72.1541 7.43667 72.5106 7.613 72.9552 7.613ZM79.3614 8.7055C78.5794 8.7055 77.9699 8.5215 77.5329 8.1535C77.0959 7.77784 76.8659 7.26034 76.8429 6.601H78.1079C78.1232 6.95367 78.242 7.22584 78.4644 7.4175C78.6867 7.60917 78.9972 7.705 79.3959 7.705C79.7332 7.705 79.9977 7.63984 80.1894 7.5095C80.381 7.37917 80.4769 7.20284 80.4769 6.9805C80.4769 6.7275 80.358 6.5435 80.1204 6.4285C79.8904 6.30584 79.5339 6.19084 79.0509 6.0835C78.6062 5.97617 78.2459 5.87267 77.9699 5.773C77.6939 5.66567 77.4562 5.50084 77.2569 5.2785C77.0652 5.05617 76.9694 4.75717 76.9694 4.3815C76.9694 3.8295 77.1802 3.38867 77.6019 3.059C78.0312 2.72934 78.5985 2.5645 79.3039 2.5645C80.0245 2.5645 80.5842 2.74084 80.9829 3.0935C81.3815 3.4385 81.5962 3.91384 81.6269 4.5195H80.3619C80.3389 4.1975 80.2315 3.95217 80.0399 3.7835C79.8482 3.61484 79.5799 3.5305 79.2349 3.5305C78.9359 3.5305 78.702 3.59184 78.5334 3.7145C78.3647 3.8295 78.2804 3.99434 78.2804 4.209C78.2804 4.45434 78.3915 4.6345 78.6139 4.7495C78.8439 4.85684 79.2004 4.968 79.6834 5.083C80.128 5.19034 80.4922 5.29767 80.7759 5.405C81.0595 5.51234 81.301 5.681 81.5004 5.911C81.6997 6.141 81.7994 6.45534 81.7994 6.854C81.7994 7.429 81.577 7.88134 81.1324 8.211C80.6954 8.54067 80.105 8.7055 79.3614 8.7055Z" fill="black"/>
</svg>
