<svg width="401" height="116" viewBox="0 0 401 116" fill="none" xmlns="http://www.w3.org/2000/svg">
<path d="M0.0640001 42V41.608C4.768 39.872 5.608 39.144 5.608 30.8V7C4.544 5.04 2.024 3.248 0.176 2.352V1.96H12.496C16.864 9.52 21.232 17.472 25.488 26.096L38.088 1.96H49.12V2.352C45.088 3.864 44.472 4.312 44.472 9.016V34.944C44.472 39.592 45.088 40.096 49.12 41.608V42H32.096V41.608C36.128 40.096 36.744 39.592 36.744 34.944V8.624H36.632C30.696 19.88 26.048 28.504 22.912 35.504H21.904C17.032 25.928 12.272 17.36 7.288 9.016V30.8C7.288 39.144 8.184 39.872 12.832 41.608V42H0.0640001ZM64.3791 42.56C56.4271 42.56 50.7151 37.408 50.7151 28.784C50.7151 19.936 56.5951 14.392 64.5471 14.392C72.3871 14.392 78.1551 19.6 78.1551 28.28C78.1551 37.016 72.3311 42.56 64.3791 42.56ZM65.7231 41.216C68.6911 41.216 71.0991 38.024 71.0991 31.808C71.0991 25.144 68.2991 15.736 63.2031 15.736C60.3471 15.736 57.7711 18.76 57.7711 25.144C57.7711 31.808 60.5711 41.216 65.7231 41.216ZM79.9533 42V41.608C82.9772 40.32 83.6493 39.76 83.6493 35.392V23.576C83.6493 19.04 83.0893 17.976 79.8973 16.52V16.184C83.4813 15.904 87.0653 15.288 90.3133 14.28L90.2013 19.824L90.3693 19.88C91.6013 16.576 94.2893 14.392 98.4333 14.392H100.505L99.7213 21.952H99.3293C97.3133 19.936 95.3533 18.76 93.8973 18.76C92.3853 18.76 91.2653 19.88 90.4813 21.448V35.392C90.4813 39.76 91.3213 40.32 95.1293 41.608V42H79.9533ZM115.059 42.56C107.611 42.56 102.067 36.792 102.067 28.56C102.067 20.384 107.499 14.392 115.395 14.392C121.611 14.392 126.035 18.144 126.595 24.64V25.312H108.339V26.264C108.339 33.432 112.371 37.632 118.195 37.632C122.003 37.632 124.803 35.84 126.371 32.536L126.819 32.76C125.475 38.808 121.163 42.56 115.059 42.56ZM108.451 24.136L120.099 23.856C119.539 18.928 117.131 15.848 114.163 15.848C111.195 15.848 109.011 18.872 108.451 24.136ZM151.721 42.504C147.857 42.504 144.553 40.152 144.553 34.944V16.632H141.809V15.96C144.553 14.448 149.033 10.92 150.769 7.784H151.329V15.064H158.665L158.441 16.632H151.385L151.273 33.88C151.217 38.192 153.513 39.256 155.417 39.256C156.649 39.256 157.881 38.808 159.337 37.296L159.561 37.632C157.713 40.544 155.249 42.504 151.721 42.504ZM160.016 42V41.608C163.04 40.32 163.712 39.76 163.712 35.392V9.632C163.712 4.816 163.264 3.976 159.96 2.352V1.96C163.712 1.736 167.184 1.064 170.544 0.0559993V20.328C172.952 16.744 176.312 14.392 180.4 14.392C183.984 14.392 188.24 16.352 188.24 22.736V35.392C188.24 39.76 188.968 40.32 191.992 41.608V42H177.712V41.608C180.736 40.32 181.464 39.76 181.464 35.392C181.464 31.584 181.52 27.16 181.52 24.696C181.52 19.488 179.784 18.032 177.152 18.032C174.688 18.032 172.56 19.264 170.544 22.12V35.392C170.544 39.76 171.216 40.32 174.24 41.608V42H160.016ZM216.116 42.56C213.204 42.56 211.468 40.376 211.58 36.848L211.468 36.792C209.284 40.264 205.42 42.448 201.556 42.448C197.3 42.448 194.332 39.928 194.332 36.176C194.332 31.136 199.652 27.44 211.692 24.08L211.804 20.048C211.86 17.192 210.46 15.512 208.052 15.512C204.692 15.512 202.564 18.704 202.228 24.136L201.948 24.192L196.292 20.888C198.644 16.744 203.236 14.392 208.612 14.392C214.884 14.392 218.356 17.584 218.244 22.96L217.908 37.52C217.908 38.584 218.412 39.424 219.364 39.424C220.316 39.424 221.212 38.528 221.94 37.016L222.388 37.24C221.212 40.32 218.972 42.56 216.116 42.56ZM205.476 38.64C207.436 38.64 209.564 37.408 211.412 35.28L211.636 25.256C204.748 27.44 201.5 30.352 201.5 34.328C201.5 36.904 203.068 38.64 205.476 38.64ZM223.344 42V41.608C226.368 40.32 227.04 39.76 227.04 35.392V23.744C227.04 19.04 226.536 18.088 223.288 16.52V16.184C226.816 15.904 230.288 15.288 233.704 14.28V20.44C236.112 16.688 239.976 14.392 243.84 14.392C248.488 14.392 251.568 17.696 251.568 23.184V35.392C251.568 39.76 252.24 40.32 255.264 41.608V42H241.04V41.608C244.064 40.32 244.736 39.76 244.792 35.392C244.848 31.696 244.848 29.736 244.848 23.856C244.848 19.992 243.336 18.032 240.592 18.032C238.184 18.032 235.72 19.6 233.872 22.176V35.392C233.872 39.76 234.544 40.32 237.568 41.608V42H223.344ZM267.495 53.704L267.327 53.256C271.079 51.296 272.535 48.72 272.535 42.952V23.8C272.535 19.04 272.087 18.2 268.783 16.576V16.184C272.535 15.904 276.007 15.288 279.367 14.28V39.144C279.367 48.048 274.327 52.08 267.495 53.704ZM275.335 10.416C273.207 10.416 271.415 8.68 271.415 6.664C271.415 4.704 273.207 2.912 275.335 2.912C277.407 2.912 279.255 4.704 279.255 6.664C279.255 8.68 277.407 10.416 275.335 10.416ZM304.731 42.784L304.787 36.96L304.731 36.904C302.099 40.432 298.235 42.728 294.539 42.728C289.947 42.728 286.923 39.312 286.923 34.216V23.8C286.923 19.04 286.363 18.032 283.171 16.576V16.184C286.811 15.904 290.339 15.288 293.755 14.28C293.755 20.384 293.643 27.328 293.643 33.152C293.643 36.96 295.267 39.088 298.067 39.088C300.251 39.088 302.771 37.632 304.619 35.28V23.8C304.619 18.928 304.171 18.032 300.867 16.576V16.184C304.451 15.96 307.979 15.288 311.451 14.28V35.504C311.451 38.976 311.843 39.536 315.091 40.488V40.88L304.731 42.784ZM328.351 42.672C325.439 42.672 322.191 41.944 318.495 40.488L317.655 32.648L318.047 32.536C322.023 38.584 325.383 41.384 328.407 41.384C330.703 41.384 332.215 39.984 332.215 37.576C332.215 35.224 330.759 33.88 325.607 31.136C319.839 28.112 317.655 25.368 317.655 21.672C317.655 17.136 321.183 14.392 326.615 14.392C329.191 14.392 332.159 15.008 335.351 16.128L335.967 23.408L335.575 23.464C332.327 18.424 329.079 15.68 326.447 15.68C324.375 15.68 322.975 17.136 322.975 19.432C322.975 21.784 324.599 23.184 329.639 25.592C335.295 28.28 337.759 31.192 337.759 35C337.759 39.704 334.119 42.672 328.351 42.672ZM349.963 42.504C346.099 42.504 342.795 40.152 342.795 34.944V16.632H340.051V15.96C342.795 14.448 347.275 10.92 349.011 7.784H349.571V15.064H356.907L356.683 16.632H349.627L349.515 33.88C349.459 38.192 351.755 39.256 353.659 39.256C354.891 39.256 356.123 38.808 357.579 37.296L357.803 37.632C355.955 40.544 353.491 42.504 349.963 42.504ZM394.179 42.56C391.267 42.56 389.531 40.376 389.643 36.848L389.531 36.792C387.347 40.264 383.483 42.448 379.619 42.448C375.363 42.448 372.395 39.928 372.395 36.176C372.395 31.136 377.715 27.44 389.755 24.08L389.867 20.048C389.923 17.192 388.523 15.512 386.115 15.512C382.755 15.512 380.627 18.704 380.291 24.136L380.011 24.192L374.355 20.888C376.707 16.744 381.299 14.392 386.675 14.392C392.947 14.392 396.419 17.584 396.307 22.96L395.971 37.52C395.971 38.584 396.475 39.424 397.427 39.424C398.379 39.424 399.275 38.528 400.003 37.016L400.451 37.24C399.275 40.32 397.035 42.56 394.179 42.56ZM383.539 38.64C385.499 38.64 387.627 37.408 389.475 35.28L389.699 25.256C382.811 27.44 379.563 30.352 379.563 34.328C379.563 36.904 381.131 38.64 383.539 38.64ZM14.176 104.56C6.224 104.56 0.512 99.408 0.512 90.784C0.512 81.936 6.392 76.392 14.344 76.392C22.184 76.392 27.952 81.6 27.952 90.28C27.952 99.016 22.128 104.56 14.176 104.56ZM15.52 103.216C18.488 103.216 20.896 100.024 20.896 93.808C20.896 87.144 18.096 77.736 13 77.736C10.144 77.736 7.568 80.76 7.568 87.144C7.568 93.808 10.368 103.216 15.52 103.216ZM29.7501 104V103.608C32.7741 102.32 33.4461 101.76 33.4461 97.392V85.744C33.4461 81.04 32.9421 80.088 29.6941 78.52V78.184C33.2221 77.904 36.6941 77.288 40.1101 76.28V82.44C42.5181 78.688 46.3821 76.392 50.2461 76.392C54.8941 76.392 57.9741 79.696 57.9741 85.184V97.392C57.9741 101.76 58.6461 102.32 61.6701 103.608V104H47.4461V103.608C50.4701 102.32 51.1421 101.76 51.1981 97.392C51.2541 93.696 51.2541 91.736 51.2541 85.856C51.2541 81.992 49.7421 80.032 46.9981 80.032C44.5901 80.032 42.1261 81.6 40.2781 84.176V97.392C40.2781 101.76 40.9501 102.32 43.9741 103.608V104H29.7501ZM75.9571 104.56C68.5091 104.56 62.9651 98.792 62.9651 90.56C62.9651 82.384 68.3971 76.392 76.2931 76.392C82.5091 76.392 86.9331 80.144 87.4931 86.64V87.312H69.2371V88.264C69.2371 95.432 73.2691 99.632 79.0931 99.632C82.9011 99.632 85.7011 97.84 87.2691 94.536L87.7171 94.76C86.3731 100.808 82.0611 104.56 75.9571 104.56ZM69.3491 86.136L80.9971 85.856C80.4371 80.928 78.0291 77.848 75.0611 77.848C72.0931 77.848 69.9091 80.872 69.3491 86.136ZM102.539 104V103.608C105.563 102.32 106.235 101.76 106.235 97.392V85.744C106.235 81.04 105.731 80.088 102.483 78.52V78.184C106.011 77.904 109.483 77.288 112.899 76.28V82.44C115.307 78.688 119.171 76.392 123.035 76.392C127.683 76.392 130.763 79.696 130.763 85.184V97.392C130.763 101.76 131.435 102.32 134.459 103.608V104H120.235V103.608C123.259 102.32 123.931 101.76 123.987 97.392C124.043 93.696 124.043 91.736 124.043 85.856C124.043 81.992 122.531 80.032 119.787 80.032C117.379 80.032 114.915 81.6 113.067 84.176V97.392C113.067 101.76 113.739 102.32 116.763 103.608V104H102.539ZM135.625 104V103.608C138.649 102.32 139.321 101.76 139.321 97.392V85.8C139.321 81.04 138.873 80.2 135.569 78.576V78.184C139.321 77.904 142.793 77.288 146.153 76.28V97.392C146.153 101.76 146.825 102.32 149.849 103.608V104H135.625ZM142.009 72.416C139.881 72.416 138.089 70.68 138.089 68.664C138.089 66.704 139.881 64.912 142.009 64.912C144.081 64.912 145.929 66.704 145.929 68.664C145.929 70.68 144.081 72.416 142.009 72.416ZM164.151 115.592C158.327 115.592 151.103 113.688 151.103 109.6C151.103 106.52 155.247 104.616 158.775 103.776C154.631 102.824 153.007 101.144 153.007 99.24C153.007 96.664 155.695 94.648 159.447 93.696C155.023 92.632 152.167 89.832 152.167 85.296C152.167 79.472 156.871 76.392 163.031 76.392H166.111C170.311 76.392 171.935 74.544 172.271 72.136L177.815 73.368V73.592C176.751 76.224 175.015 77.456 170.703 77.456H167.623V77.624C172.103 78.632 175.295 81.04 175.295 85.688C175.295 90.896 171.039 94.144 163.703 94.144C162.807 94.144 161.911 94.088 161.071 93.976C159.335 94.424 158.383 95.264 158.383 96.216C158.383 97 159.055 97.336 159.951 97.56C161.351 97.896 168.743 99.296 171.263 99.968C176.023 101.2 178.431 103.552 178.431 107.08C178.431 113.576 170.199 115.592 164.151 115.592ZM164.711 114.304C168.855 114.304 172.943 112.848 172.943 109.768C172.943 107.92 171.431 106.464 168.855 105.792C167.175 105.344 162.359 104.448 160.231 104.056C158.439 104.952 156.311 106.632 156.311 109.096C156.311 112.568 160.175 114.304 164.711 114.304ZM164.711 93.024C166.951 93.024 168.855 91.288 168.855 87.2C168.855 82.888 166.727 77.512 163.031 77.512C160.847 77.512 158.775 79.36 158.775 83.504C158.775 87.424 160.623 93.024 164.711 93.024ZM179.703 104V103.608C182.727 102.32 183.399 101.76 183.399 97.392V71.632C183.399 66.816 182.951 65.976 179.647 64.352V63.96C183.399 63.736 186.871 63.064 190.231 62.056V82.328C192.639 78.744 195.999 76.392 200.087 76.392C203.671 76.392 207.927 78.352 207.927 84.736V97.392C207.927 101.76 208.655 102.32 211.679 103.608V104H197.399V103.608C200.423 102.32 201.151 101.76 201.151 97.392C201.151 93.584 201.207 89.16 201.207 86.696C201.207 81.488 199.471 80.032 196.839 80.032C194.375 80.032 192.247 81.264 190.231 84.12V97.392C190.231 101.76 190.903 102.32 193.927 103.608V104H179.703ZM222.322 104.504C218.458 104.504 215.154 102.152 215.154 96.944V78.632H212.41V77.96C215.154 76.448 219.634 72.92 221.37 69.784H221.93V77.064H229.266L229.042 78.632H221.986L221.874 95.88C221.818 100.192 224.114 101.256 226.018 101.256C227.25 101.256 228.482 100.808 229.938 99.296L230.162 99.632C228.314 102.544 225.85 104.504 222.322 104.504ZM255.562 104.672C252.65 104.672 249.402 103.944 245.706 102.488L244.866 94.648L245.258 94.536C249.234 100.584 252.594 103.384 255.618 103.384C257.914 103.384 259.426 101.984 259.426 99.576C259.426 97.224 257.97 95.88 252.818 93.136C247.05 90.112 244.866 87.368 244.866 83.672C244.866 79.136 248.394 76.392 253.826 76.392C256.402 76.392 259.37 77.008 262.562 78.128L263.178 85.408L262.786 85.464C259.538 80.424 256.29 77.68 253.658 77.68C251.586 77.68 250.186 79.136 250.186 81.432C250.186 83.784 251.81 85.184 256.85 87.592C262.506 90.28 264.97 93.192 264.97 97C264.97 101.704 261.33 104.672 255.562 104.672ZM277.174 104.504C273.31 104.504 270.006 102.152 270.006 96.944V78.632H267.262V77.96C270.006 76.448 274.486 72.92 276.222 69.784H276.782V77.064H284.118L283.894 78.632H276.838L276.726 95.88C276.67 100.192 278.966 101.256 280.87 101.256C282.102 101.256 283.334 100.808 284.79 99.296L285.014 99.632C283.166 102.544 280.702 104.504 277.174 104.504ZM308.757 104.56C305.845 104.56 304.109 102.376 304.221 98.848L304.109 98.792C301.925 102.264 298.061 104.448 294.197 104.448C289.941 104.448 286.973 101.928 286.973 98.176C286.973 93.136 292.293 89.44 304.333 86.08L304.445 82.048C304.501 79.192 303.101 77.512 300.693 77.512C297.333 77.512 295.205 80.704 294.869 86.136L294.589 86.192L288.933 82.888C291.285 78.744 295.877 76.392 301.253 76.392C307.525 76.392 310.997 79.584 310.885 84.96L310.549 99.52C310.549 100.584 311.053 101.424 312.005 101.424C312.957 101.424 313.853 100.528 314.581 99.016L315.029 99.24C313.853 102.32 311.613 104.56 308.757 104.56ZM298.117 100.64C300.077 100.64 302.205 99.408 304.053 97.28L304.277 87.256C297.389 89.44 294.141 92.352 294.141 96.328C294.141 98.904 295.709 100.64 298.117 100.64ZM315.985 104V103.608C319.008 102.32 319.681 101.76 319.681 97.392V85.744C319.681 81.04 319.177 80.088 315.929 78.52V78.184C319.457 77.904 322.929 77.288 326.345 76.28V82.44C328.753 78.688 332.617 76.392 336.481 76.392C341.129 76.392 344.209 79.696 344.209 85.184V97.392C344.209 101.76 344.88 102.32 347.905 103.608V104H333.681V103.608C336.705 102.32 337.377 101.76 337.433 97.392C337.489 93.696 337.489 91.736 337.489 85.856C337.489 81.992 335.977 80.032 333.233 80.032C330.825 80.032 328.361 81.6 326.513 84.176V97.392C326.513 101.76 327.185 102.32 330.209 103.608V104H315.985ZM359.952 104.56C354.52 104.56 349.2 99.912 349.2 90.784C349.2 81.488 354.744 76.392 360.624 76.392C363.536 76.392 366.504 77.624 368.576 79.416V69.28C368.576 67.04 367.568 65.472 364.824 64.352V63.96C368.352 63.736 371.88 63.12 375.408 62.056V98.624C375.408 101.032 376.192 101.48 379.048 102.488V102.88L368.744 104.56L368.688 99.464H368.632C367.008 102.096 363.872 104.56 359.952 104.56ZM362.584 101.928C364.768 101.928 366.896 100.304 368.576 98.064V86.248C367.064 81.656 364.6 78.016 361.464 78.016C357.6 78.016 356.312 83.448 356.312 89.104C356.312 96.888 358.776 101.928 362.584 101.928Z" fill="white"/>
</svg>
