<svg width="312" height="38" viewBox="0 0 312 38" fill="none" xmlns="http://www.w3.org/2000/svg">
<mask id="mask0_1_153" style="mask-type:luminance" maskUnits="userSpaceOnUse" x="0" y="0" width="313" height="38">
<path d="M312.004 0.720825H0V37.3433H312.004V0.720825Z" fill="white"/>
</mask>
<g mask="url(#mask0_1_153)">
<path d="M0 19.032C0 4.72041 12.4387 0.720825 24.1225 0.720825C37.4679 0.720825 46.4314 5.24625 47.5398 14.1382H38.5251C37.7196 10.6129 33.439 7.45648 24.2734 7.45648C15.511 7.45648 8.66205 10.2436 8.66205 19.0325C8.66205 27.8214 15.511 30.6085 24.2734 30.6085C33.439 30.6085 37.7201 27.4497 38.5251 23.8729H47.5402C46.4319 32.8178 37.4683 37.3442 24.1229 37.3442C12.4387 37.3433 0 33.3441 0 19.032Z" fill="#FD9BB7"/>
<path d="M60.9337 1.1416H52.2716V36.9223H60.9337V1.1416Z" fill="#FD9BB7"/>
<path d="M104.194 7.87693H88.5822V36.922H79.8696V7.87693H64.2582V1.14221H104.194V7.87693Z" fill="#FD9BB7"/>
<path d="M134.635 36.9223H125.973V22.7677L105.326 1.1416H116.304L130.304 16.982L144.304 1.1416H155.283L134.635 22.7677L134.635 36.9223Z" fill="#FD9BB7"/>
<path d="M157.094 1.14258H181.771C191.49 1.14258 198.339 3.08941 198.339 10.0875C198.339 14.613 194.965 16.6643 189.879 17.507C195.771 18.3496 199.648 20.5584 199.648 26.5569C199.648 34.5003 192.494 36.9228 182.425 36.9228H157.094V1.14258ZM181.972 15.7176C186.757 15.7176 190.282 15.1918 190.282 11.6135C190.282 8.08773 186.757 7.56189 181.972 7.56189H165.756V15.7176H181.972ZM182.274 30.504C187.461 30.504 190.936 29.9252 190.936 25.9786C190.936 22.0319 187.461 21.5056 182.274 21.5056H165.756V30.5035L182.274 30.504Z" fill="#FD9BB7"/>
<path d="M203.574 19.032C203.574 5.08738 216.013 0.720825 227.695 0.720825C239.378 0.720825 251.869 5.08738 251.869 19.032C251.869 32.9767 239.381 37.3428 227.695 37.3428C216.01 37.3428 203.573 32.9762 203.573 19.032M227.695 30.6081C236.307 30.6081 243.156 27.4493 243.156 19.032C243.156 10.6148 236.309 7.45648 227.695 7.45648C219.082 7.45648 212.235 10.6153 212.235 19.033C212.235 27.4507 219.085 30.6081 227.695 30.6081Z" fill="#FD9BB7"/>
<path d="M298.756 1.14221L280.828 18.5063L299.26 36.922H287.979L274.886 23.1367L261.74 36.9225H250.461L268.893 18.5067L250.965 1.14221H261.941L274.884 14.1388L287.778 1.14221H298.756Z" fill="#FD9BB7"/>
<path d="M299.579 7.32576C299.572 6.50542 299.727 5.6918 300.036 4.93186C300.345 4.17192 300.802 3.4807 301.38 2.89811C301.957 2.31552 302.644 1.85309 303.402 1.53751C304.159 1.22193 304.971 1.05945 305.791 1.05945C306.612 1.05945 307.424 1.22193 308.181 1.53751C308.939 1.85309 309.626 2.31552 310.203 2.89811C310.781 3.4807 311.237 4.17192 311.546 4.93186C311.855 5.6918 312.011 6.50542 312.004 7.32576C311.99 8.96408 311.329 10.5305 310.165 11.684C309.002 12.8374 307.43 13.4846 305.791 13.4846C304.153 13.4846 302.581 12.8374 301.418 11.684C300.254 10.5305 299.593 8.96408 299.579 7.32576ZM305.8 12.4746C306.477 12.4854 307.149 12.3592 307.775 12.1036C308.402 11.848 308.97 11.4683 309.446 10.9873C309.922 10.5062 310.296 9.93389 310.545 9.30465C310.794 8.6754 310.913 8.00227 310.895 7.32576C310.902 6.65256 310.775 5.98476 310.522 5.36094C310.268 4.73713 309.894 4.16967 309.42 3.69136C308.947 3.21304 308.383 2.83336 307.761 2.57424C307.14 2.31512 306.474 2.18171 305.8 2.18171C305.127 2.18171 304.46 2.31512 303.839 2.57424C303.218 2.83336 302.654 3.21304 302.18 3.69136C301.706 4.16967 301.332 4.73713 301.079 5.36094C300.826 5.98476 300.699 6.65256 300.705 7.32576C300.687 8.00223 300.806 8.67532 301.055 9.30453C301.304 9.93375 301.678 10.5061 302.154 10.9871C302.63 11.4681 303.198 11.8479 303.825 12.1035C304.452 12.3591 305.123 12.4853 305.8 12.4746ZM303.441 4.37555H306.104C307.498 4.37555 308.393 4.75088 308.393 5.96702C308.416 6.28039 308.325 6.59162 308.139 6.84418C307.952 7.09674 307.68 7.27388 307.374 7.34341C307.981 7.41449 308.268 7.71875 308.268 8.27247V9.59591C308.252 9.80608 308.295 10.0165 308.393 10.2035V10.275H306.909C306.829 10.0395 306.798 9.78994 306.819 9.54202V8.34354C306.819 7.95055 306.658 7.80748 306.176 7.80748H304.888V10.275H303.44L303.441 4.37555ZM305.639 6.98573C306.444 6.98573 306.945 6.84265 306.945 6.12774C306.945 5.3766 306.444 5.26976 305.639 5.26976H304.888V6.98573H305.639Z" fill="#FD9BB7"/>
</g>
</svg>
