<svg width="270" height="97" viewBox="0 0 270 97" fill="none" xmlns="http://www.w3.org/2000/svg">
<g clip-path="url(#clip0_113_345)">
<path d="M2.34448 5.85156H5.35389V12.0165L11.1219 5.85156H15.0091L8.99025 11.8907L15.3852 20.6978H11.3727L6.85859 14.1554L5.35389 15.6652V20.6978H2.34448V5.85156Z" fill="#7C7C7C" style="fill:#7C7C7C;fill:color(display-p3 0.4863 0.4863 0.4863);fill-opacity:1;"/>
<path d="M30.8084 5.85156H34.0686L29.0529 20.6978H26.0435L21.1533 5.85156H24.4134L27.5482 17.0492L30.8084 5.85156Z" fill="#7C7C7C" style="fill:#7C7C7C;fill:color(display-p3 0.4863 0.4863 0.4863);fill-opacity:1;"/>
<path fill-rule="evenodd" clip-rule="evenodd" d="M43.7238 5.85156H47.1094L52.3758 20.6978H48.9903L48.1125 17.5524H42.5953L41.5921 20.6978H38.4573L43.7238 5.85156ZM43.473 15.0361H47.2348L45.3539 9.12277L43.473 15.0361Z" fill="#7C7C7C" style="fill:#7C7C7C;fill:color(display-p3 0.4863 0.4863 0.4863);fill-opacity:1;"/>
<path d="M59.3977 5.85156H62.4071V18.0557H69.8052V20.6978H59.3977V5.85156Z" fill="#7C7C7C" style="fill:#7C7C7C;fill:color(display-p3 0.4863 0.4863 0.4863);fill-opacity:1;"/>
<path d="M79.8367 20.6978H76.7019V5.85156H79.8367V20.6978Z" fill="#7C7C7C" style="fill:#7C7C7C;fill:color(display-p3 0.4863 0.4863 0.4863);fill-opacity:1;"/>
<path d="M98.5201 5.85156V8.49369H94.1314V20.6978H90.9966V8.49369H86.6079V5.85156H98.5201Z" fill="#7C7C7C" style="fill:#7C7C7C;fill:color(display-p3 0.4863 0.4863 0.4863);fill-opacity:1;"/>
<path d="M116.326 8.49369H108.551V11.6391H115.699V14.1554H108.551V18.0557H116.702V20.6978H105.542V5.85156H116.326V8.49369Z" fill="#7C7C7C" style="fill:#7C7C7C;fill:color(display-p3 0.4863 0.4863 0.4863);fill-opacity:1;"/>
<path d="M134.884 5.85156V8.49369H130.495V20.6978H127.36V8.49369H122.971V5.85156H134.884Z" fill="#7C7C7C" style="fill:#7C7C7C;fill:color(display-p3 0.4863 0.4863 0.4863);fill-opacity:1;"/>
<path d="M152.564 5.85156H163.097V8.49369H155.699V11.8907H162.219V14.407H155.699V20.6978H152.564V5.85156Z" fill="#7C7C7C" style="fill:#7C7C7C;fill:color(display-p3 0.4863 0.4863 0.4863);fill-opacity:1;"/>
<path fill-rule="evenodd" clip-rule="evenodd" d="M179.649 6.22901C180.234 6.48064 180.693 6.81615 181.028 7.23554C181.362 7.65492 181.613 8.07431 181.78 8.49369C181.947 8.99696 182.031 9.54216 182.031 10.1293C182.031 10.8003 181.864 11.4713 181.529 12.1424C181.195 12.8134 180.61 13.3166 179.774 13.6521C180.443 13.9038 180.944 14.2812 181.279 14.7845C181.529 15.2877 181.655 16.0426 181.655 17.0492V18.0557C181.655 18.7267 181.697 19.188 181.78 19.4397C181.864 19.8591 182.031 20.1526 182.282 20.3204V20.6978H178.896C178.813 20.3623 178.729 20.0687 178.645 19.8171C178.562 19.3977 178.52 18.9783 178.52 18.559V17.175C178.52 16.2523 178.353 15.6233 178.018 15.2877C177.768 15.0361 177.183 14.9103 176.263 14.9103H173.254V20.6978H170.244V5.85156H177.392C178.395 5.85156 179.147 5.97738 179.649 6.22901ZM173.254 8.49369V12.394H176.639C177.308 12.394 177.809 12.3101 178.144 12.1424C178.729 11.8907 179.022 11.3455 179.022 10.5067C179.022 9.5841 178.729 8.99696 178.144 8.74533C177.809 8.57757 177.308 8.49369 176.639 8.49369H173.254Z" fill="#7C7C7C" style="fill:#7C7C7C;fill:color(display-p3 0.4863 0.4863 0.4863);fill-opacity:1;"/>
<path fill-rule="evenodd" clip-rule="evenodd" d="M194.319 5.85148H197.83L202.971 20.6978H199.711L198.708 17.5524H193.316L192.313 20.6978H189.053L194.319 5.85148ZM194.696 1.57374C195.114 1.07048 195.615 0.818848 196.2 0.818848C196.785 0.818848 197.287 1.07048 197.705 1.57374C198.123 1.99313 198.332 2.49639 198.332 3.08353C198.332 3.67068 198.123 4.17394 197.705 4.59333C197.287 5.01271 196.785 5.2224 196.2 5.2224C195.615 5.2224 195.114 5.01271 194.696 4.59333C194.194 4.17394 193.943 3.67068 193.943 3.08353C193.943 2.49639 194.194 1.99313 194.696 1.57374ZM194.194 15.0361H197.956L196.075 9.1227L194.194 15.0361ZM195.323 3.96425C195.573 4.21588 195.866 4.34169 196.2 4.34169C196.535 4.34169 196.827 4.21588 197.078 3.96425C197.329 3.71261 197.454 3.46098 197.454 3.20935C197.454 2.87384 197.329 2.58027 197.078 2.32864C196.827 2.07701 196.535 1.95119 196.2 1.95119C195.866 1.95119 195.573 2.07701 195.323 2.32864C195.155 2.58027 195.072 2.87384 195.072 3.20935C195.072 3.46098 195.155 3.71261 195.323 3.96425Z" fill="#7C7C7C" style="fill:#7C7C7C;fill:color(display-p3 0.4863 0.4863 0.4863);fill-opacity:1;"/>
<path fill-rule="evenodd" clip-rule="evenodd" d="M0.384521 33.7349H29.2247C41.0115 33.7349 48.9112 37.5094 48.9112 49.0844C48.9112 55.1236 45.9018 59.2755 40.51 61.9176C48.0335 64.0565 51.7952 69.844 51.7952 77.5188C51.7952 90.1004 41.2623 95.3846 30.1024 95.3846H0.384521V33.7349ZM13.8015 58.7722H27.5946C32.2341 58.7722 35.8705 56.6334 35.8705 51.4749C35.8705 45.5616 31.3564 44.3034 26.4661 44.3034H13.8015V58.7722ZM13.8015 84.9419H28.3469C33.6134 84.9419 38.3783 83.3063 38.3783 76.8897C38.3783 70.5989 34.3658 68.0826 28.5977 68.0826H13.8015V84.9419Z" fill="black" style="fill:black;fill-opacity:1;"/>
<path d="M72.234 43.8002H60.071V33.7349H72.234M60.071 50.72H72.234V95.3846H60.071V50.72Z" fill="black" style="fill:black;fill-opacity:1;"/>
<path d="M82.2654 33.7349H94.4284V95.3846H82.2654V33.7349Z" fill="black" style="fill:black;fill-opacity:1;"/>
<path d="M119.632 50.7202H128.535V59.024H119.632V81.0418C119.632 85.1937 120.635 86.3261 124.773 86.3261C126.027 86.3261 127.281 86.2002 128.535 85.9486V95.5106C126.529 95.8881 123.895 96.0139 121.388 96.0139C113.989 96.0139 107.344 94.2525 107.344 85.3195V59.024H99.9456V50.7202H107.344V33.4834H119.632V50.7202Z" fill="black" style="fill:black;fill-opacity:1;"/>
<path d="M134.428 50.7203H146.09V59.0241H146.215C148.472 53.4882 154.491 49.5879 160.384 49.5879C161.262 49.5879 162.391 49.7137 163.143 49.9654V61.4146C162.015 61.163 160.134 60.9114 158.754 60.9114C149.726 60.9114 146.717 67.4538 146.717 75.2544V95.3849H134.428V50.7203Z" fill="black" style="fill:black;fill-opacity:1;"/>
<path fill-rule="evenodd" clip-rule="evenodd" d="M176.435 76.1351C176.811 83.8098 180.573 87.4585 187.469 87.4585C192.359 87.4585 196.247 84.3131 196.999 81.5452H207.783C204.397 92.1137 196.999 96.6431 186.968 96.6431C172.924 96.6431 164.272 86.9552 164.272 73.1155C164.272 59.779 173.425 49.5879 186.968 49.5879C202.14 49.5879 209.413 62.2953 208.66 76.1351H176.435ZM196.247 68.3345C195.118 62.0437 192.485 58.7725 186.591 58.7725C178.817 58.7725 176.56 64.8116 176.435 68.3345H196.247Z" fill="black" style="fill:black;fill-opacity:1;"/>
<path d="M218.566 59.0239H211.168V50.72H218.566V47.323C218.566 39.3966 223.457 33.7349 233.363 33.7349C235.494 33.7349 237.751 33.9865 239.883 34.1123V43.2969C238.378 43.0453 236.873 42.9194 235.369 42.9194C232.109 42.9194 230.729 44.3034 230.729 48.0779V50.72H239.131V59.0239H230.729V95.3846H218.566V59.0239Z" fill="black" style="fill:black;fill-opacity:1;"/>
<path d="M248.284 59.0239H240.886V50.72H248.284V47.323C248.284 39.3966 253.174 33.7349 263.08 33.7349C265.337 33.7349 267.469 33.9865 269.601 34.1123V43.2969C268.096 43.0453 266.717 42.9194 265.087 42.9194C261.826 42.9194 260.447 44.3034 260.447 48.0779V50.72H268.848V59.0239H260.447V95.3846H248.284V59.0239Z" fill="black" style="fill:black;fill-opacity:1;"/>
</g>
<defs>
<clipPath id="clip0_113_345">
<rect width="270" height="97" fill="white" style="fill:white;fill-opacity:1;"/>
</clipPath>
</defs>
</svg>
