<svg width="45" height="376" viewBox="0 0 45 376" fill="none" xmlns="http://www.w3.org/2000/svg">
<mask id="mask0_45_267" style="mask-type:luminance" maskUnits="userSpaceOnUse" x="0" y="0" width="45" height="376">
<path d="M0.345504 0.599121L0.34552 375.438L44.3434 375.438L44.3434 0.599119L0.345504 0.599121Z" fill="white"/>
</mask>
<g mask="url(#mask0_45_267)">
<path d="M22.3445 375.438C5.15058 375.438 0.345519 360.495 0.345519 346.458C0.345518 330.425 5.78233 319.656 16.4651 318.324L16.4651 329.154C12.2298 330.122 8.43767 335.265 8.43767 346.276C8.43767 356.803 11.7861 365.032 22.345 365.032C32.9039 365.032 36.2524 356.803 36.2524 346.276C36.2524 335.265 32.4574 330.122 28.1602 329.154L28.1602 318.324C38.9066 319.655 44.3445 330.424 44.3445 346.457C44.3434 360.495 39.5389 375.438 22.3445 375.438Z" fill="#48172C"/>
<path d="M0.851074 302.233L0.851074 312.64L43.8377 312.64L43.8377 302.233L0.851074 302.233Z" fill="#48172C"/>
<path d="M8.94284 250.261L8.94284 269.016L43.8373 269.016L43.8373 279.484L8.94284 279.484L8.94284 298.239L0.851807 298.239L0.851805 250.261L8.94284 250.261Z" fill="#48172C"/>
<path d="M43.8377 213.689L43.8377 224.095L26.8325 224.095L0.851074 248.901L0.851074 235.711L19.8816 218.892L0.851072 202.073L0.851072 188.883L26.8325 213.689L43.8377 213.689Z" fill="#48172C"/>
<path d="M0.852264 186.707L0.852263 157.061C0.852263 145.384 3.19117 137.155 11.5986 137.155C17.0355 137.155 19.4999 141.209 20.5123 147.32C21.5246 140.241 24.1783 135.583 31.3848 135.583C40.928 135.583 43.8383 144.177 43.8383 156.274L43.8383 186.707L0.852264 186.707ZM18.3626 156.818C18.3626 151.07 17.7308 146.835 13.4319 146.835C9.19611 146.835 8.56436 151.071 8.56436 156.818L8.56437 176.3L18.3626 176.3L18.3626 156.818ZM36.1268 156.456C36.1268 150.224 35.4314 146.049 30.69 146.049C25.9485 146.049 25.3162 150.224 25.3162 156.456L25.3162 176.3L36.1262 176.3L36.1268 156.456Z" fill="#48172C"/>
<path d="M22.3445 130.866C5.5915 130.866 0.34555 115.922 0.345549 101.887C0.345549 87.8518 5.59149 72.8445 22.3445 72.8445C39.0975 72.8445 44.3429 87.8484 44.3429 101.887C44.3429 115.925 39.0969 130.867 22.3445 130.867M36.2518 101.887C36.2518 91.5407 32.4569 83.3124 22.3445 83.3124C12.2321 83.3124 8.4377 91.539 8.4377 101.887C8.4377 112.235 12.2326 120.461 22.3456 120.461C32.4586 120.461 36.2518 112.231 36.2518 101.887Z" fill="#48172C"/>
<path d="M0.851804 16.5149L21.7128 38.0535L43.8373 15.9094L43.8373 29.4624L27.2758 45.193L43.8379 60.9866L43.8379 74.5363L21.7134 52.3922L0.851807 73.9307L0.851806 60.7444L16.4658 45.1952L0.851805 29.7046L0.851804 16.5149Z" fill="#48172C"/>
<path d="M8.28067 15.5266C7.29513 15.5351 6.31765 15.3483 5.40466 14.9771C4.49167 14.6058 3.66125 14.0574 2.96133 13.3635C2.26141 12.6696 1.70585 11.844 1.32672 10.9343C0.947581 10.0245 0.75238 9.0487 0.75238 8.06312C0.75238 7.07753 0.947581 6.1017 1.32672 5.19196C1.70585 4.28221 2.26141 3.45655 2.96133 2.76265C3.66125 2.06876 4.49167 1.52037 5.40466 1.14912C6.31765 0.777861 7.29513 0.591097 8.28067 0.59962C10.2489 0.61664 12.1308 1.41047 13.5166 2.8083C14.9024 4.20612 15.6799 6.09478 15.6799 8.06311C15.6799 10.0314 14.9024 11.9201 13.5166 13.3179C12.1308 14.7157 10.2489 15.5096 8.28067 15.5266ZM14.4664 8.05279C14.4794 7.23987 14.3278 6.43271 14.0208 5.6799C13.7137 4.92709 13.2575 4.24419 12.6796 3.67229C12.1017 3.1004 11.4141 2.65131 10.6581 2.3521C9.90212 2.05289 9.09342 1.90974 8.28067 1.93122C7.4719 1.9235 6.66961 2.07611 5.92016 2.38027C5.17072 2.68443 4.48898 3.13411 3.91433 3.70329C3.33969 4.27247 2.88354 4.94988 2.57224 5.69639C2.26093 6.44289 2.10065 7.24367 2.10065 8.05249C2.10065 8.8613 2.26093 9.66212 2.57224 10.4086C2.88354 11.1551 3.33969 11.8325 3.91433 12.4017C4.48898 12.9709 5.17072 13.4206 5.92016 13.7247C6.66961 14.0289 7.4719 14.1815 8.28067 14.1738C9.09338 14.1953 9.90202 14.0521 10.658 13.7529C11.4139 13.4538 12.1015 13.0048 12.6794 12.4329C13.2573 11.8611 13.7135 11.1783 14.0206 10.4255C14.3277 9.67277 14.4794 8.86568 14.4664 8.05279ZM4.73631 10.8873L4.73631 7.68724C4.73631 6.013 5.18724 4.93816 6.64829 4.93816C7.02477 4.9105 7.39868 5.01878 7.70211 5.24336C8.00553 5.46793 8.21834 5.79389 8.30188 6.16202C8.38727 5.43205 8.75281 5.08769 9.41804 5.08769L11.008 5.08769C11.2605 5.10679 11.5133 5.05502 11.738 4.93816L11.8239 4.93816L11.8239 6.72064C11.541 6.81707 11.2411 6.85375 10.9433 6.82835L9.50343 6.82835C9.03129 6.82835 8.8594 7.02145 8.8594 7.6013L8.8594 9.14886L11.8239 9.14886L11.8239 10.8878L4.73631 10.8873ZM7.87216 8.24589C7.87216 7.2793 7.70027 6.67769 6.84139 6.67769C5.93897 6.67769 5.81061 7.27874 5.81061 8.24589L5.81061 9.14828L7.87216 9.14828L7.87216 8.24589Z" fill="#48172C"/>
</g>
</svg>
