<svg width="304" height="48" viewBox="0 0 304 48" fill="none" xmlns="http://www.w3.org/2000/svg">
<path d="M58.7851 48C58.7851 48 303.518 -0.262051 303.323 0.00107201H0.549805L58.7851 48Z" fill="#4D4D4D" style="fill:#4D4D4D;fill:color(display-p3 0.3037 0.3037 0.3037);fill-opacity:1;"/>
<path fill-rule="evenodd" clip-rule="evenodd" d="M98.4209 23.0613C100.066 23.0169 101.421 22.3303 102.776 21.6436C103.51 21.2718 104.244 20.9 105.024 20.6301C105.701 20.8621 105.69 21.4606 105.678 22.0979V22.098C105.674 22.328 105.67 22.563 105.698 22.7877H109.339V15.3729H110.683C110.683 15.3738 110.684 15.3738 110.686 15.3729H110.683C110.673 15.3628 110.684 15.2457 110.7 15.0719L110.7 15.0709L110.7 15.0708C110.741 14.6336 110.814 13.8391 110.686 13.4836C109.659 13.4836 108.653 13.4754 107.653 13.4671C105.67 13.4508 103.708 13.4347 101.651 13.4836V15.3729H103.946C104.298 16.5043 103.851 17.52 102.893 18.3409C102.459 18.7256 101.933 18.9901 101.365 19.1083C100.797 19.2264 100.209 19.1941 99.6573 19.0145C99.111 18.7935 98.6147 18.4648 98.198 18.048C97.7813 17.6313 97.4527 17.1349 97.2317 16.5885C96.4899 14.4835 96.5898 11.6628 98.1736 9.97884C98.719 9.51082 99.3686 9.18014 100.068 9.01444C100.767 8.84874 101.496 8.85282 102.193 9.02634C102.736 9.33189 103.201 9.75876 103.551 10.2736C103.902 10.7885 104.129 11.3774 104.214 11.9944H108.397V6.34248C107.724 6.38176 106.874 6.3598 106.063 6.33884C105.243 6.31768 104.464 6.29753 103.946 6.34248C103.958 6.50761 103.939 6.68978 103.919 6.86705C103.891 7.13042 103.864 7.38299 103.946 7.55285L103.943 7.55131C103.007 6.91481 101.84 6.12131 100.71 5.93727C97.4633 5.02686 94.5852 6.28459 92.3543 8.90004C89.7235 11.9733 89.1973 15.8149 91.4072 19.1513C93.0751 21.8457 95.5165 23.1455 98.4209 23.0613ZM116.637 19.1513H113.943V22.7877H131.869V15.1045H127.265V18.8777H121.335C121.35 18.3475 121.333 17.9295 121.316 17.5163C121.291 16.9368 121.268 16.3667 121.335 15.5097H125.786V13.4836L121.472 13.3521C121.414 12.8627 121.34 10.9735 121.335 10.1157H127.265V13.6205H131.848V6.34249H113.653V9.97885H116.637V19.1513ZM144.118 19.025C144.881 19.0867 145.648 19.0867 146.412 19.025L146.422 22.7824H135.899V19.1461C136.707 19.088 137.517 19.088 138.325 19.1461V9.97359C137.518 10.0552 136.706 10.0552 135.899 9.97359V6.33723C141.473 6.27656 144.569 6.29818 147.461 6.31838C148.833 6.32796 150.16 6.33723 151.684 6.33723C153.099 6.34775 154.92 7.75283 154.92 9.29999L154.917 9.49483C154.899 11.0236 154.887 12.0635 153.978 13.21C153.17 14.048 152.187 14.1042 151.175 14.162C150.58 14.196 149.975 14.2306 149.39 14.4256C149.497 14.5034 149.792 14.5129 150.178 14.5252C151.174 14.557 152.776 14.6081 153.299 15.9096C153.546 16.3112 153.545 16.8971 153.545 17.4821C153.544 18.484 153.544 19.4829 154.783 19.546C155.012 19.3833 155.185 19.1541 155.279 18.8896C155.373 18.6251 155.384 18.338 155.309 18.0673H157.193C157.224 19.8986 156.561 21.6405 154.767 22.6509C152.973 23.6613 151.063 23.5086 149.648 22.1246C148.602 21.1203 148.337 19.8498 148.07 18.5757C147.9 17.7603 147.729 16.9434 147.354 16.1938C146.57 15.3834 145.249 15.2992 143.986 15.3834C143.965 16.0602 144.012 16.7033 144.058 17.316C144.102 17.9135 144.144 18.4821 144.118 19.025ZM145.343 9.97014C144.826 9.97459 144.331 9.97885 143.997 9.97885V13.0837H147.633C148.474 13.11 148.653 12.4943 148.848 11.5997C148.909 11.4108 148.923 11.2101 148.89 11.0145C148.857 10.8188 148.778 10.6339 148.659 10.4752C148.54 10.3165 148.385 10.1886 148.206 10.1022C148.028 10.0159 147.831 9.97357 147.633 9.97885C147.665 9.95014 146.451 9.96059 145.343 9.97014ZM49.888 15.5097H45.1525C45.1525 15.8063 45.1462 16.0985 45.14 16.3867C45.1044 18.0316 45.0716 19.5487 46.2312 21.0353C46.7049 21.696 47.3055 22.2557 47.9977 22.6819C48.69 23.108 49.4602 23.3921 50.2634 23.5175C51.0666 23.6429 51.8867 23.6071 52.6759 23.4122C53.4651 23.2174 54.2076 22.8673 54.8602 22.3825C54.9298 22.3311 54.999 22.2804 55.0676 22.2302C56.1079 21.4684 57.0026 20.8134 57.0174 19.2829C56.9175 16.0412 56.9911 10.1472 57.0174 10.1157H59.7114V6.34249H48.2727V10.1157C49.3776 10.1472 50.8403 10.1472 51.7769 10.1157C51.74 10.1472 51.74 14.7098 51.7769 17.9357C51.7769 18.5093 51.598 18.9198 50.7246 18.8777C49.8064 18.9063 49.8586 17.9134 49.9125 16.8859C49.938 16.4002 49.964 15.9067 49.888 15.5097ZM65.9303 19.1513H68.3559L68.4927 22.9245H59.9847V19.1513H62.2735C64.1782 16.057 67.0721 10.1156 67.0089 10.1156H64.7149V6.34246H86.9609V13.7625H82.6464V10.2525H76.9849C76.8953 11.2837 76.8953 12.3208 76.9849 13.3521L80.626 13.4836V15.5097H76.8481C76.8042 16.1099 76.7988 16.6965 76.7935 17.2643C76.7874 17.9212 76.7815 18.5529 76.7166 19.1513H82.6464V14.9676H86.9609V22.9034H69.8397V19.1302H71.5918C71.5581 19.0384 71.5636 18.7987 71.5741 18.3418C71.5817 18.0133 71.5918 17.5726 71.5918 16.9937C71.4761 16.9937 71.325 16.9902 71.1288 16.9857C70.4864 16.971 69.3609 16.9453 67.4141 16.9937L65.9303 19.1513ZM71.455 15.1045V10.1156L68.7558 15.1045H71.455Z" fill="white" style="fill:white;fill-opacity:1;"/>
</svg>
