<svg width="100" height="90" viewBox="0 0 100 90" fill="none" xmlns="http://www.w3.org/2000/svg">
<path d="M76.5917 0H27.6555C14.8895 0 6.37891 8.51064 6.37891 21.2766H27.6555H76.5917C89.3576 21.2766 97.8683 12.766 97.8683 0H76.5917Z" fill="white"/>
<path d="M74.4681 34.0352H27.6596H6.38298C6.38298 46.8011 14.8936 55.3118 27.6596 55.3118H74.4681C74.6383 55.3118 74.8191 55.3118 75 55.3118C77.0532 55.3118 78.7234 56.982 78.7234 59.0352C78.7234 59.2054 78.7234 59.5671 78.7234 59.5671V63.8224C78.7234 63.9926 78.7234 64.1735 78.7234 64.3543C78.7234 66.4075 77.0532 68.0777 75 68.0777C74.8298 68.0777 74.4681 68.0777 74.4681 68.0777H21.2766C8.51064 68.0777 0 76.5883 0 89.3543H21.2766H74.4681C89.3617 89.3543 100 78.716 100 63.8224V59.5671C100 44.6735 89.3617 34.0352 74.4681 34.0352Z" fill="white"/>
</svg>
