<?xml version="1.0" encoding="UTF-8"?>
<svg id="Layer_2" data-name="Layer 2" xmlns="http://www.w3.org/2000/svg" xmlns:xlink="http://www.w3.org/1999/xlink" viewBox="0 0 1002.97 849.34">
  <defs>
    <style>
      .cls-1 {
        fill: url(#linear-gradient-120);
      }

      .cls-1, .cls-2, .cls-3, .cls-4, .cls-5, .cls-6, .cls-7, .cls-8, .cls-9, .cls-10, .cls-11, .cls-12, .cls-13, .cls-14, .cls-15, .cls-16, .cls-17, .cls-18, .cls-19, .cls-20, .cls-21, .cls-22, .cls-23, .cls-24, .cls-25, .cls-26, .cls-27, .cls-28, .cls-29, .cls-30, .cls-31, .cls-32, .cls-33, .cls-34, .cls-35, .cls-36, .cls-37, .cls-38, .cls-39, .cls-40, .cls-41, .cls-42, .cls-43, .cls-44, .cls-45, .cls-46, .cls-47, .cls-48, .cls-49, .cls-50, .cls-51, .cls-52, .cls-53, .cls-54, .cls-55, .cls-56, .cls-57, .cls-58, .cls-59, .cls-60, .cls-61, .cls-62, .cls-63, .cls-64, .cls-65, .cls-66, .cls-67, .cls-68, .cls-69, .cls-70, .cls-71, .cls-72, .cls-73, .cls-74, .cls-75, .cls-76, .cls-77, .cls-78, .cls-79, .cls-80, .cls-81, .cls-82, .cls-83, .cls-84, .cls-85, .cls-86, .cls-87, .cls-88, .cls-89, .cls-90, .cls-91, .cls-92, .cls-93, .cls-94, .cls-95, .cls-96, .cls-97, .cls-98, .cls-99, .cls-100, .cls-101, .cls-102, .cls-103, .cls-104, .cls-105, .cls-106, .cls-107, .cls-108, .cls-109, .cls-110, .cls-111, .cls-112, .cls-113, .cls-114, .cls-115, .cls-116, .cls-117, .cls-118, .cls-119, .cls-120, .cls-121, .cls-122, .cls-123, .cls-124, .cls-125, .cls-126, .cls-127, .cls-128 {
        stroke-width: 0px;
      }

      .cls-2 {
        fill: url(#linear-gradient-125);
      }

      .cls-3 {
        fill: url(#linear-gradient-124);
      }

      .cls-4 {
        fill: url(#linear-gradient-126);
      }

      .cls-5 {
        fill: url(#linear-gradient-100);
      }

      .cls-6 {
        fill: url(#linear-gradient-101);
      }

      .cls-7 {
        fill: url(#linear-gradient-123);
      }

      .cls-8 {
        fill: url(#linear-gradient-121);
      }

      .cls-9 {
        fill: url(#linear-gradient-122);
      }

      .cls-10 {
        fill: url(#linear-gradient-109);
      }

      .cls-11 {
        fill: url(#linear-gradient-108);
      }

      .cls-12 {
        fill: url(#linear-gradient-106);
      }

      .cls-13 {
        fill: url(#linear-gradient-107);
      }

      .cls-14 {
        fill: url(#linear-gradient-102);
      }

      .cls-15 {
        fill: url(#linear-gradient-104);
      }

      .cls-16 {
        fill: url(#linear-gradient-103);
      }

      .cls-17 {
        fill: url(#linear-gradient-105);
      }

      .cls-18 {
        fill: url(#linear-gradient-117);
      }

      .cls-19 {
        fill: url(#linear-gradient-118);
      }

      .cls-20 {
        fill: url(#linear-gradient-111);
      }

      .cls-21 {
        fill: url(#linear-gradient-112);
      }

      .cls-22 {
        fill: url(#linear-gradient-127);
      }

      .cls-23 {
        fill: url(#linear-gradient-128);
      }

      .cls-24 {
        fill: url(#linear-gradient-110);
      }

      .cls-25 {
        fill: url(#linear-gradient-113);
      }

      .cls-26 {
        fill: url(#linear-gradient-114);
      }

      .cls-27 {
        fill: url(#linear-gradient-115);
      }

      .cls-28 {
        fill: url(#linear-gradient-116);
      }

      .cls-29 {
        fill: url(#linear-gradient-119);
      }

      .cls-30 {
        fill: url(#linear-gradient);
      }

      .cls-31 {
        fill: url(#linear-gradient-38);
      }

      .cls-32 {
        fill: url(#linear-gradient-33);
      }

      .cls-33 {
        fill: url(#linear-gradient-29);
      }

      .cls-34 {
        fill: url(#linear-gradient-32);
      }

      .cls-35 {
        fill: url(#linear-gradient-30);
      }

      .cls-36 {
        fill: url(#linear-gradient-31);
      }

      .cls-37 {
        fill: url(#linear-gradient-36);
      }

      .cls-38 {
        fill: url(#linear-gradient-39);
      }

      .cls-39 {
        fill: url(#linear-gradient-34);
      }

      .cls-40 {
        fill: url(#linear-gradient-37);
      }

      .cls-41 {
        fill: url(#linear-gradient-35);
      }

      .cls-42 {
        fill: url(#linear-gradient-28);
      }

      .cls-43 {
        fill: url(#linear-gradient-25);
      }

      .cls-44 {
        fill: url(#linear-gradient-11);
      }

      .cls-45 {
        fill: url(#linear-gradient-12);
      }

      .cls-46 {
        fill: url(#linear-gradient-13);
      }

      .cls-47 {
        fill: url(#linear-gradient-10);
      }

      .cls-48 {
        fill: url(#linear-gradient-17);
      }

      .cls-49 {
        fill: url(#linear-gradient-16);
      }

      .cls-50 {
        fill: url(#linear-gradient-19);
      }

      .cls-51 {
        fill: url(#linear-gradient-15);
      }

      .cls-52 {
        fill: url(#linear-gradient-23);
      }

      .cls-53 {
        fill: url(#linear-gradient-21);
      }

      .cls-54 {
        fill: url(#linear-gradient-18);
      }

      .cls-55 {
        fill: url(#linear-gradient-14);
      }

      .cls-56 {
        fill: url(#linear-gradient-22);
      }

      .cls-57 {
        fill: url(#linear-gradient-20);
      }

      .cls-58 {
        fill: url(#linear-gradient-27);
      }

      .cls-59 {
        fill: url(#linear-gradient-24);
      }

      .cls-60 {
        fill: url(#linear-gradient-26);
      }

      .cls-61 {
        fill: url(#linear-gradient-45);
      }

      .cls-62 {
        fill: url(#linear-gradient-46);
      }

      .cls-63 {
        fill: url(#linear-gradient-44);
      }

      .cls-64 {
        fill: url(#linear-gradient-48);
      }

      .cls-65 {
        fill: url(#linear-gradient-49);
      }

      .cls-66 {
        fill: url(#linear-gradient-47);
      }

      .cls-67 {
        fill: url(#linear-gradient-42);
      }

      .cls-68 {
        fill: url(#linear-gradient-43);
      }

      .cls-69 {
        fill: url(#linear-gradient-40);
      }

      .cls-70 {
        fill: url(#linear-gradient-41);
      }

      .cls-71 {
        fill: url(#linear-gradient-59);
      }

      .cls-72 {
        fill: url(#linear-gradient-57);
      }

      .cls-73 {
        fill: url(#linear-gradient-58);
      }

      .cls-74 {
        fill: url(#linear-gradient-55);
      }

      .cls-75 {
        fill: url(#linear-gradient-56);
      }

      .cls-76 {
        fill: url(#linear-gradient-53);
      }

      .cls-77 {
        fill: url(#linear-gradient-51);
      }

      .cls-78 {
        fill: url(#linear-gradient-52);
      }

      .cls-79 {
        fill: url(#linear-gradient-50);
      }

      .cls-80 {
        fill: url(#linear-gradient-54);
      }

      .cls-81 {
        fill: url(#linear-gradient-60);
      }

      .cls-82 {
        fill: url(#linear-gradient-61);
      }

      .cls-83 {
        fill: url(#linear-gradient-62);
      }

      .cls-84 {
        fill: url(#linear-gradient-65);
      }

      .cls-85 {
        fill: url(#linear-gradient-79);
      }

      .cls-86 {
        fill: url(#linear-gradient-78);
      }

      .cls-87 {
        fill: url(#linear-gradient-77);
      }

      .cls-88 {
        fill: url(#linear-gradient-75);
      }

      .cls-89 {
        fill: url(#linear-gradient-76);
      }

      .cls-90 {
        fill: url(#linear-gradient-74);
      }

      .cls-91 {
        fill: url(#linear-gradient-67);
      }

      .cls-92 {
        fill: url(#linear-gradient-68);
      }

      .cls-93 {
        fill: url(#linear-gradient-66);
      }

      .cls-94 {
        fill: url(#linear-gradient-63);
      }

      .cls-95 {
        fill: url(#linear-gradient-69);
      }

      .cls-96 {
        fill: url(#linear-gradient-64);
      }

      .cls-97 {
        fill: url(#linear-gradient-71);
      }

      .cls-98 {
        fill: url(#linear-gradient-72);
      }

      .cls-99 {
        fill: url(#linear-gradient-70);
      }

      .cls-100 {
        fill: url(#linear-gradient-73);
      }

      .cls-101 {
        fill: url(#linear-gradient-84);
      }

      .cls-102 {
        fill: url(#linear-gradient-85);
      }

      .cls-103 {
        fill: url(#linear-gradient-82);
      }

      .cls-104 {
        fill: url(#linear-gradient-83);
      }

      .cls-105 {
        fill: url(#linear-gradient-89);
      }

      .cls-106 {
        fill: url(#linear-gradient-88);
      }

      .cls-107 {
        fill: url(#linear-gradient-86);
      }

      .cls-108 {
        fill: url(#linear-gradient-87);
      }

      .cls-109 {
        fill: url(#linear-gradient-80);
      }

      .cls-110 {
        fill: url(#linear-gradient-81);
      }

      .cls-111 {
        fill: url(#linear-gradient-98);
      }

      .cls-112 {
        fill: url(#linear-gradient-91);
      }

      .cls-113 {
        fill: url(#linear-gradient-92);
      }

      .cls-114 {
        fill: url(#linear-gradient-93);
      }

      .cls-115 {
        fill: url(#linear-gradient-90);
      }

      .cls-116 {
        fill: url(#linear-gradient-96);
      }

      .cls-117 {
        fill: url(#linear-gradient-97);
      }

      .cls-118 {
        fill: url(#linear-gradient-94);
      }

      .cls-119 {
        fill: url(#linear-gradient-95);
      }

      .cls-120 {
        fill: url(#linear-gradient-99);
      }

      .cls-121 {
        fill: url(#linear-gradient-4);
      }

      .cls-122 {
        fill: url(#linear-gradient-2);
      }

      .cls-123 {
        fill: url(#linear-gradient-3);
      }

      .cls-124 {
        fill: url(#linear-gradient-8);
      }

      .cls-125 {
        fill: url(#linear-gradient-9);
      }

      .cls-126 {
        fill: url(#linear-gradient-7);
      }

      .cls-127 {
        fill: url(#linear-gradient-5);
      }

      .cls-128 {
        fill: url(#linear-gradient-6);
      }
    </style>
    <linearGradient id="linear-gradient" x1="501.5" y1="253.15" x2="497.67" y2="665.37" gradientUnits="userSpaceOnUse">
      <stop offset="0" stop-color="#fff" stop-opacity="0"/>
      <stop offset=".06" stop-color="#eff4fa" stop-opacity=".09"/>
      <stop offset=".24" stop-color="#c1d7ed" stop-opacity=".37"/>
      <stop offset=".42" stop-color="#9abee1" stop-opacity=".59"/>
      <stop offset=".59" stop-color="#7cabd9" stop-opacity=".77"/>
      <stop offset=".75" stop-color="#679dd3" stop-opacity=".9"/>
      <stop offset=".89" stop-color="#5a94cf" stop-opacity=".97"/>
      <stop offset="1" stop-color="#5692ce"/>
    </linearGradient>
    <linearGradient id="linear-gradient-2" x1="501.55" y1="253.17" x2="497.73" y2="665.39" xlink:href="#linear-gradient"/>
    <linearGradient id="linear-gradient-3" x1="501.39" y1="253.1" x2="497.57" y2="665.32" xlink:href="#linear-gradient"/>
    <linearGradient id="linear-gradient-4" x1="501.45" y1="253.12" x2="497.62" y2="665.34" xlink:href="#linear-gradient"/>
    <linearGradient id="linear-gradient-5" x1="501.29" y1="253.05" x2="497.46" y2="665.27" xlink:href="#linear-gradient"/>
    <linearGradient id="linear-gradient-6" x1="501.34" y1="253.07" x2="497.52" y2="665.29" xlink:href="#linear-gradient"/>
    <linearGradient id="linear-gradient-7" x1="501.18" y1="253" x2="497.36" y2="665.22" xlink:href="#linear-gradient"/>
    <linearGradient id="linear-gradient-8" x1="501.24" y1="253.02" x2="497.41" y2="665.24" xlink:href="#linear-gradient"/>
    <linearGradient id="linear-gradient-9" x1="501.08" y1="252.95" x2="497.25" y2="665.17" xlink:href="#linear-gradient"/>
    <linearGradient id="linear-gradient-10" x1="501.13" y1="252.97" x2="497.31" y2="665.19" xlink:href="#linear-gradient"/>
    <linearGradient id="linear-gradient-11" x1="500.97" y1="252.9" x2="497.15" y2="665.12" xlink:href="#linear-gradient"/>
    <linearGradient id="linear-gradient-12" x1="501.03" y1="252.92" x2="497.2" y2="665.14" xlink:href="#linear-gradient"/>
    <linearGradient id="linear-gradient-13" x1="500.87" y1="252.85" x2="497.04" y2="665.07" xlink:href="#linear-gradient"/>
    <linearGradient id="linear-gradient-14" x1="500.92" y1="252.88" x2="497.1" y2="665.1" xlink:href="#linear-gradient"/>
    <linearGradient id="linear-gradient-15" x1="500.76" y1="252.8" x2="496.94" y2="665.02" xlink:href="#linear-gradient"/>
    <linearGradient id="linear-gradient-16" x1="500.82" y1="252.83" x2="496.99" y2="665.05" xlink:href="#linear-gradient"/>
    <linearGradient id="linear-gradient-17" x1="500.66" y1="252.75" x2="496.83" y2="664.97" xlink:href="#linear-gradient"/>
    <linearGradient id="linear-gradient-18" x1="500.71" y1="252.78" x2="496.89" y2="665" xlink:href="#linear-gradient"/>
    <linearGradient id="linear-gradient-19" x1="500.55" y1="252.7" x2="496.73" y2="664.92" xlink:href="#linear-gradient"/>
    <linearGradient id="linear-gradient-20" x1="500.61" y1="252.73" x2="496.78" y2="664.95" xlink:href="#linear-gradient"/>
    <linearGradient id="linear-gradient-21" x1="500.45" y1="252.65" x2="496.62" y2="664.87" xlink:href="#linear-gradient"/>
    <linearGradient id="linear-gradient-22" x1="500.5" y1="252.68" x2="496.67" y2="664.9" xlink:href="#linear-gradient"/>
    <linearGradient id="linear-gradient-23" x1="500.34" y1="252.6" x2="496.52" y2="664.82" xlink:href="#linear-gradient"/>
    <linearGradient id="linear-gradient-24" x1="500.4" y1="252.63" x2="496.57" y2="664.85" xlink:href="#linear-gradient"/>
    <linearGradient id="linear-gradient-25" x1="500.24" y1="252.55" x2="496.41" y2="664.77" xlink:href="#linear-gradient"/>
    <linearGradient id="linear-gradient-26" x1="500.29" y1="252.58" x2="496.46" y2="664.8" xlink:href="#linear-gradient"/>
    <linearGradient id="linear-gradient-27" x1="500.13" y1="252.5" x2="496.31" y2="664.72" xlink:href="#linear-gradient"/>
    <linearGradient id="linear-gradient-28" x1="500.19" y1="252.53" x2="496.36" y2="664.75" xlink:href="#linear-gradient"/>
    <linearGradient id="linear-gradient-29" x1="500.03" y1="252.45" x2="496.2" y2="664.67" xlink:href="#linear-gradient"/>
    <linearGradient id="linear-gradient-30" x1="500.08" y1="252.48" x2="496.25" y2="664.7" xlink:href="#linear-gradient"/>
    <linearGradient id="linear-gradient-31" x1="499.92" y1="252.4" x2="496.1" y2="664.62" xlink:href="#linear-gradient"/>
    <linearGradient id="linear-gradient-32" x1="499.97" y1="252.43" x2="496.15" y2="664.65" xlink:href="#linear-gradient"/>
    <linearGradient id="linear-gradient-33" x1="503.18" y1="253.94" x2="499.36" y2="666.16" xlink:href="#linear-gradient"/>
    <linearGradient id="linear-gradient-34" x1="503.23" y1="253.97" x2="499.41" y2="666.19" xlink:href="#linear-gradient"/>
    <linearGradient id="linear-gradient-35" x1="503.08" y1="253.89" x2="499.25" y2="666.11" xlink:href="#linear-gradient"/>
    <linearGradient id="linear-gradient-36" x1="503.13" y1="253.92" x2="499.3" y2="666.14" xlink:href="#linear-gradient"/>
    <linearGradient id="linear-gradient-37" x1="502.97" y1="253.84" x2="499.15" y2="666.06" xlink:href="#linear-gradient"/>
    <linearGradient id="linear-gradient-38" x1="503.02" y1="253.87" x2="499.2" y2="666.09" xlink:href="#linear-gradient"/>
    <linearGradient id="linear-gradient-39" x1="502.87" y1="253.79" x2="499.04" y2="666.01" xlink:href="#linear-gradient"/>
    <linearGradient id="linear-gradient-40" x1="502.92" y1="253.82" x2="499.09" y2="666.04" xlink:href="#linear-gradient"/>
    <linearGradient id="linear-gradient-41" x1="502.76" y1="253.74" x2="498.93" y2="665.96" xlink:href="#linear-gradient"/>
    <linearGradient id="linear-gradient-42" x1="502.81" y1="253.77" x2="498.99" y2="665.99" xlink:href="#linear-gradient"/>
    <linearGradient id="linear-gradient-43" x1="502.66" y1="253.7" x2="498.83" y2="665.92" xlink:href="#linear-gradient"/>
    <linearGradient id="linear-gradient-44" x1="502.71" y1="253.72" x2="498.88" y2="665.94" xlink:href="#linear-gradient"/>
    <linearGradient id="linear-gradient-45" x1="502.55" y1="253.65" x2="498.72" y2="665.87" xlink:href="#linear-gradient"/>
    <linearGradient id="linear-gradient-46" x1="502.6" y1="253.67" x2="498.78" y2="665.89" xlink:href="#linear-gradient"/>
    <linearGradient id="linear-gradient-47" x1="502.45" y1="253.6" x2="498.62" y2="665.82" xlink:href="#linear-gradient"/>
    <linearGradient id="linear-gradient-48" x1="502.5" y1="253.62" x2="498.67" y2="665.84" xlink:href="#linear-gradient"/>
    <linearGradient id="linear-gradient-49" x1="502.34" y1="253.55" x2="498.51" y2="665.77" xlink:href="#linear-gradient"/>
    <linearGradient id="linear-gradient-50" x1="502.39" y1="253.57" x2="498.57" y2="665.79" xlink:href="#linear-gradient"/>
    <linearGradient id="linear-gradient-51" x1="502.23" y1="253.5" x2="498.41" y2="665.72" xlink:href="#linear-gradient"/>
    <linearGradient id="linear-gradient-52" x1="502.29" y1="253.52" x2="498.46" y2="665.74" xlink:href="#linear-gradient"/>
    <linearGradient id="linear-gradient-53" x1="502.13" y1="253.45" x2="498.3" y2="665.67" xlink:href="#linear-gradient"/>
    <linearGradient id="linear-gradient-54" x1="502.18" y1="253.47" x2="498.36" y2="665.69" xlink:href="#linear-gradient"/>
    <linearGradient id="linear-gradient-55" x1="502.02" y1="253.4" x2="498.2" y2="665.62" xlink:href="#linear-gradient"/>
    <linearGradient id="linear-gradient-56" x1="502.08" y1="253.42" x2="498.25" y2="665.64" xlink:href="#linear-gradient"/>
    <linearGradient id="linear-gradient-57" x1="501.92" y1="253.35" x2="498.09" y2="665.57" xlink:href="#linear-gradient"/>
    <linearGradient id="linear-gradient-58" x1="501.97" y1="253.37" x2="498.15" y2="665.59" xlink:href="#linear-gradient"/>
    <linearGradient id="linear-gradient-59" x1="501.81" y1="253.3" x2="497.99" y2="665.52" xlink:href="#linear-gradient"/>
    <linearGradient id="linear-gradient-60" x1="501.87" y1="253.32" x2="498.04" y2="665.54" xlink:href="#linear-gradient"/>
    <linearGradient id="linear-gradient-61" x1="501.71" y1="253.25" x2="497.88" y2="665.47" xlink:href="#linear-gradient"/>
    <linearGradient id="linear-gradient-62" x1="501.76" y1="253.27" x2="497.94" y2="665.49" xlink:href="#linear-gradient"/>
    <linearGradient id="linear-gradient-63" x1="501.6" y1="253.2" x2="497.78" y2="665.42" xlink:href="#linear-gradient"/>
    <linearGradient id="linear-gradient-64" x1="501.66" y1="253.22" x2="497.83" y2="665.44" xlink:href="#linear-gradient"/>
    <linearGradient id="linear-gradient-65" x1="504.86" y1="254.74" x2="501.04" y2="666.96" xlink:href="#linear-gradient"/>
    <linearGradient id="linear-gradient-66" x1="504.92" y1="254.76" x2="501.09" y2="666.98" xlink:href="#linear-gradient"/>
    <linearGradient id="linear-gradient-67" x1="504.76" y1="254.69" x2="500.93" y2="666.91" xlink:href="#linear-gradient"/>
    <linearGradient id="linear-gradient-68" x1="504.81" y1="254.71" x2="500.98" y2="666.93" xlink:href="#linear-gradient"/>
    <linearGradient id="linear-gradient-69" x1="504.65" y1="254.64" x2="500.83" y2="666.86" xlink:href="#linear-gradient"/>
    <linearGradient id="linear-gradient-70" x1="504.71" y1="254.66" x2="500.88" y2="666.88" xlink:href="#linear-gradient"/>
    <linearGradient id="linear-gradient-71" x1="504.55" y1="254.59" x2="500.72" y2="666.81" xlink:href="#linear-gradient"/>
    <linearGradient id="linear-gradient-72" x1="504.6" y1="254.61" x2="500.77" y2="666.83" xlink:href="#linear-gradient"/>
    <linearGradient id="linear-gradient-73" x1="504.44" y1="254.54" x2="500.62" y2="666.76" xlink:href="#linear-gradient"/>
    <linearGradient id="linear-gradient-74" x1="504.49" y1="254.56" x2="500.67" y2="666.78" xlink:href="#linear-gradient"/>
    <linearGradient id="linear-gradient-75" x1="504.34" y1="254.49" x2="500.51" y2="666.71" xlink:href="#linear-gradient"/>
    <linearGradient id="linear-gradient-76" x1="504.39" y1="254.52" x2="500.56" y2="666.74" xlink:href="#linear-gradient"/>
    <linearGradient id="linear-gradient-77" x1="504.23" y1="254.44" x2="500.41" y2="666.66" xlink:href="#linear-gradient"/>
    <linearGradient id="linear-gradient-78" x1="504.28" y1="254.47" x2="500.46" y2="666.69" xlink:href="#linear-gradient"/>
    <linearGradient id="linear-gradient-79" x1="504.13" y1="254.39" x2="500.3" y2="666.61" xlink:href="#linear-gradient"/>
    <linearGradient id="linear-gradient-80" x1="504.18" y1="254.42" x2="500.35" y2="666.64" xlink:href="#linear-gradient"/>
    <linearGradient id="linear-gradient-81" x1="504.02" y1="254.34" x2="500.2" y2="666.56" xlink:href="#linear-gradient"/>
    <linearGradient id="linear-gradient-82" x1="504.07" y1="254.37" x2="500.25" y2="666.59" xlink:href="#linear-gradient"/>
    <linearGradient id="linear-gradient-83" x1="503.92" y1="254.29" x2="500.09" y2="666.51" xlink:href="#linear-gradient"/>
    <linearGradient id="linear-gradient-84" x1="503.97" y1="254.32" x2="500.14" y2="666.54" xlink:href="#linear-gradient"/>
    <linearGradient id="linear-gradient-85" x1="503.81" y1="254.24" x2="499.99" y2="666.46" xlink:href="#linear-gradient"/>
    <linearGradient id="linear-gradient-86" x1="503.86" y1="254.27" x2="500.04" y2="666.49" xlink:href="#linear-gradient"/>
    <linearGradient id="linear-gradient-87" x1="503.71" y1="254.19" x2="499.88" y2="666.41" xlink:href="#linear-gradient"/>
    <linearGradient id="linear-gradient-88" x1="503.76" y1="254.22" x2="499.93" y2="666.44" xlink:href="#linear-gradient"/>
    <linearGradient id="linear-gradient-89" x1="503.6" y1="254.14" x2="499.78" y2="666.36" xlink:href="#linear-gradient"/>
    <linearGradient id="linear-gradient-90" x1="503.65" y1="254.17" x2="499.83" y2="666.39" xlink:href="#linear-gradient"/>
    <linearGradient id="linear-gradient-91" x1="503.5" y1="254.09" x2="499.67" y2="666.31" xlink:href="#linear-gradient"/>
    <linearGradient id="linear-gradient-92" x1="503.55" y1="254.12" x2="499.72" y2="666.34" xlink:href="#linear-gradient"/>
    <linearGradient id="linear-gradient-93" x1="503.39" y1="254.04" x2="499.57" y2="666.26" xlink:href="#linear-gradient"/>
    <linearGradient id="linear-gradient-94" x1="503.44" y1="254.07" x2="499.62" y2="666.29" xlink:href="#linear-gradient"/>
    <linearGradient id="linear-gradient-95" x1="503.29" y1="253.99" x2="499.46" y2="666.21" xlink:href="#linear-gradient"/>
    <linearGradient id="linear-gradient-96" x1="503.34" y1="254.02" x2="499.51" y2="666.24" xlink:href="#linear-gradient"/>
    <linearGradient id="linear-gradient-97" x1="506.54" y1="255.53" x2="502.72" y2="667.75" xlink:href="#linear-gradient"/>
    <linearGradient id="linear-gradient-98" x1="506.6" y1="255.56" x2="502.77" y2="667.78" xlink:href="#linear-gradient"/>
    <linearGradient id="linear-gradient-99" x1="506.44" y1="255.48" x2="502.61" y2="667.7" xlink:href="#linear-gradient"/>
    <linearGradient id="linear-gradient-100" x1="506.49" y1="255.51" x2="502.67" y2="667.73" xlink:href="#linear-gradient"/>
    <linearGradient id="linear-gradient-101" x1="506.33" y1="255.43" x2="502.51" y2="667.65" xlink:href="#linear-gradient"/>
    <linearGradient id="linear-gradient-102" x1="506.39" y1="255.46" x2="502.56" y2="667.68" xlink:href="#linear-gradient"/>
    <linearGradient id="linear-gradient-103" x1="506.23" y1="255.38" x2="502.4" y2="667.61" xlink:href="#linear-gradient"/>
    <linearGradient id="linear-gradient-104" x1="506.28" y1="255.41" x2="502.46" y2="667.63" xlink:href="#linear-gradient"/>
    <linearGradient id="linear-gradient-105" x1="506.12" y1="255.34" x2="502.3" y2="667.56" xlink:href="#linear-gradient"/>
    <linearGradient id="linear-gradient-106" x1="506.18" y1="255.36" x2="502.35" y2="667.58" xlink:href="#linear-gradient"/>
    <linearGradient id="linear-gradient-107" x1="506.02" y1="255.29" x2="502.19" y2="667.51" xlink:href="#linear-gradient"/>
    <linearGradient id="linear-gradient-108" x1="506.07" y1="255.31" x2="502.25" y2="667.53" xlink:href="#linear-gradient"/>
    <linearGradient id="linear-gradient-109" x1="505.91" y1="255.24" x2="502.09" y2="667.46" xlink:href="#linear-gradient"/>
    <linearGradient id="linear-gradient-110" x1="505.97" y1="255.26" x2="502.14" y2="667.48" xlink:href="#linear-gradient"/>
    <linearGradient id="linear-gradient-111" x1="505.81" y1="255.19" x2="501.98" y2="667.41" xlink:href="#linear-gradient"/>
    <linearGradient id="linear-gradient-112" x1="505.86" y1="255.21" x2="502.04" y2="667.43" xlink:href="#linear-gradient"/>
    <linearGradient id="linear-gradient-113" x1="505.7" y1="255.14" x2="501.88" y2="667.36" xlink:href="#linear-gradient"/>
    <linearGradient id="linear-gradient-114" x1="505.76" y1="255.16" x2="501.93" y2="667.38" xlink:href="#linear-gradient"/>
    <linearGradient id="linear-gradient-115" x1="505.6" y1="255.09" x2="501.77" y2="667.31" xlink:href="#linear-gradient"/>
    <linearGradient id="linear-gradient-116" x1="505.65" y1="255.11" x2="501.83" y2="667.33" xlink:href="#linear-gradient"/>
    <linearGradient id="linear-gradient-117" x1="505.49" y1="255.04" x2="501.67" y2="667.26" xlink:href="#linear-gradient"/>
    <linearGradient id="linear-gradient-118" x1="505.55" y1="255.06" x2="501.72" y2="667.28" xlink:href="#linear-gradient"/>
    <linearGradient id="linear-gradient-119" x1="505.39" y1="254.99" x2="501.56" y2="667.21" xlink:href="#linear-gradient"/>
    <linearGradient id="linear-gradient-120" x1="505.44" y1="255.01" x2="501.62" y2="667.23" xlink:href="#linear-gradient"/>
    <linearGradient id="linear-gradient-121" x1="505.28" y1="254.94" x2="501.46" y2="667.16" xlink:href="#linear-gradient"/>
    <linearGradient id="linear-gradient-122" x1="505.34" y1="254.96" x2="501.51" y2="667.18" xlink:href="#linear-gradient"/>
    <linearGradient id="linear-gradient-123" x1="505.18" y1="254.89" x2="501.35" y2="667.11" xlink:href="#linear-gradient"/>
    <linearGradient id="linear-gradient-124" x1="505.23" y1="254.91" x2="501.4" y2="667.13" xlink:href="#linear-gradient"/>
    <linearGradient id="linear-gradient-125" x1="505.07" y1="254.84" x2="501.25" y2="667.06" xlink:href="#linear-gradient"/>
    <linearGradient id="linear-gradient-126" x1="505.13" y1="254.86" x2="501.3" y2="667.08" xlink:href="#linear-gradient"/>
    <linearGradient id="linear-gradient-127" x1="504.97" y1="254.79" x2="501.14" y2="667.01" xlink:href="#linear-gradient"/>
    <linearGradient id="linear-gradient-128" x1="505.02" y1="254.81" x2="501.19" y2="667.03" xlink:href="#linear-gradient"/>
  </defs>
  <g id="Layer_1-2" data-name="Layer 1">
    <g>
      <path class="cls-30" d="M232.25,297.61c-34.33,0-69.45-2.98-104.5-8.87-41.69-7.01-84.67-18.36-127.75-33.75l.12-.42c43.06,15.38,86.02,26.73,127.69,33.74,36.72,6.17,73.53,9.14,109.45,8.85,69.95-.59,125.61-13.15,166.28-24.02,50.92-13.61,89.06-31.64,125.94-49.08,49.03-23.18,95.34-45.08,163.81-51.58,12.9-1.22,25.88-1.84,38.9-1.84,88.36,0,179.25,28.15,270.77,83.94l-.19.39c-104.94-63.97-209.05-91.58-309.45-82.06-68.4,6.49-114.69,28.38-163.69,51.54-36.89,17.44-75.04,35.48-126,49.1-40.69,10.88-96.37,23.44-166.37,24.03-1.67.01-3.34.02-5.02.02Z"/>
      <path class="cls-122" d="M232.25,303.3c-34.33,0-69.45-2.98-104.5-8.87-41.69-7.01-84.67-18.36-127.75-33.75l.12-.42c43.06,15.38,86.02,26.73,127.69,33.74,36.72,6.17,73.54,9.16,109.45,8.85,69.95-.59,125.61-13.15,166.28-24.02,50.92-13.61,89.06-31.64,125.94-49.08,49.03-23.18,95.34-45.08,163.81-51.58,12.9-1.22,25.88-1.84,38.9-1.84,88.36,0,179.25,28.15,270.77,83.94l-.19.39c-104.93-63.97-209.04-91.58-309.45-82.06-68.4,6.49-114.69,28.38-163.69,51.54-36.9,17.44-75.04,35.48-126,49.1-40.69,10.88-96.37,23.44-166.37,24.03-1.67.01-3.34.02-5.02.02Z"/>
      <path class="cls-123" d="M232.25,286.23c-34.33,0-69.45-2.98-104.5-8.87-41.69-7.01-84.67-18.36-127.75-33.75l.12-.42c43.06,15.38,86.02,26.73,127.69,33.74,36.72,6.17,73.54,9.14,109.45,8.85,69.95-.59,125.61-13.15,166.28-24.02,50.92-13.61,89.06-31.64,125.94-49.08,49.03-23.18,95.34-45.08,163.81-51.58,100.49-9.54,204.66,18.09,309.67,82.11l-.19.39c-104.94-63.97-209.05-91.58-309.45-82.06-68.4,6.49-114.69,28.38-163.69,51.54-36.89,17.44-75.04,35.48-126,49.1-40.69,10.88-96.37,23.44-166.37,24.03-1.67.01-3.34.02-5.02.02Z"/>
      <path class="cls-121" d="M232.25,291.92c-34.33,0-69.45-2.98-104.5-8.87-41.69-7.01-84.67-18.36-127.75-33.75l.12-.42c43.06,15.38,86.02,26.73,127.69,33.74,36.72,6.17,73.54,9.15,109.45,8.85,69.95-.59,125.61-13.15,166.28-24.02,50.92-13.61,89.06-31.64,125.94-49.08,49.03-23.18,95.34-45.08,163.81-51.58,12.9-1.22,25.88-1.84,38.9-1.84,88.36,0,179.25,28.15,270.77,83.94l-.19.39c-104.93-63.97-209.04-91.58-309.45-82.06-68.4,6.49-114.69,28.38-163.69,51.54-36.9,17.44-75.04,35.48-126,49.1-40.69,10.88-96.37,23.44-166.37,24.03-1.67.01-3.34.02-5.02.02Z"/>
      <path class="cls-127" d="M232.25,274.86c-34.33,0-69.46-2.98-104.5-8.87-41.69-7.01-84.67-18.36-127.75-33.75l.12-.42c43.06,15.38,86.02,26.73,127.69,33.74,36.72,6.17,73.53,9.13,109.45,8.85,69.95-.59,125.61-13.15,166.28-24.02,50.92-13.61,89.06-31.64,125.94-49.08,49.03-23.18,95.34-45.08,163.81-51.58,12.9-1.22,25.88-1.84,38.9-1.84,88.36,0,179.25,28.15,270.77,83.94l-.19.39c-104.94-63.97-209.05-91.58-309.45-82.06-68.4,6.49-114.69,28.38-163.69,51.54-36.89,17.44-75.04,35.48-126,49.1-40.69,10.88-96.37,23.44-166.37,24.03-1.67.01-3.34.02-5.01.02Z"/>
      <path class="cls-128" d="M232.25,280.54c-34.33,0-69.45-2.98-104.5-8.87-41.69-7.01-84.67-18.36-127.75-33.75l.12-.42c43.06,15.38,86.02,26.73,127.69,33.74,36.72,6.17,73.54,9.15,109.45,8.85,69.95-.59,125.61-13.15,166.28-24.02,50.92-13.61,89.06-31.64,125.94-49.08,49.03-23.18,95.34-45.08,163.81-51.58,12.9-1.22,25.88-1.84,38.9-1.84,88.36,0,179.25,28.15,270.77,83.94l-.19.39c-104.93-63.97-209.04-91.58-309.45-82.06-68.4,6.49-114.69,28.38-163.69,51.54-36.9,17.44-75.04,35.48-126,49.1-40.69,10.88-96.37,23.44-166.37,24.03-1.67.01-3.34.02-5.02.02Z"/>
      <path class="cls-126" d="M232.25,263.48c-34.33,0-69.45-2.98-104.5-8.87-41.69-7.01-84.67-18.36-127.75-33.75l.12-.42c43.06,15.38,86.02,26.73,127.69,33.74,36.72,6.17,73.54,9.16,109.45,8.85,69.95-.59,125.61-13.15,166.28-24.02,50.92-13.61,89.06-31.64,125.94-49.08,49.03-23.18,95.34-45.08,163.81-51.58,100.47-9.54,204.67,18.09,309.67,82.11l-.19.39c-91.45-55.76-182.29-83.89-270.58-83.89-13.02,0-25.97.61-38.87,1.84-68.4,6.49-114.69,28.38-163.69,51.54-36.89,17.44-75.04,35.48-126,49.1-40.69,10.88-96.37,23.44-166.37,24.03-1.67.01-3.34.02-5.02.02Z"/>
      <path class="cls-124" d="M232.25,269.17c-34.33,0-69.45-2.98-104.5-8.87-41.69-7.01-84.67-18.36-127.75-33.75l.12-.42c43.06,15.38,86.02,26.73,127.69,33.74,36.72,6.18,73.54,9.15,109.45,8.85,69.95-.59,125.61-13.15,166.28-24.02,50.92-13.61,89.06-31.64,125.94-49.08,49.03-23.18,95.34-45.08,163.81-51.58,12.9-1.22,25.88-1.84,38.9-1.84,88.36,0,179.25,28.15,270.77,83.94l-.19.39c-104.93-63.97-209.04-91.58-309.45-82.06-68.4,6.49-114.69,28.38-163.69,51.54-36.9,17.44-75.04,35.48-126,49.1-40.69,10.88-96.37,23.44-166.37,24.03-1.67.01-3.34.02-5.02.02Z"/>
      <path class="cls-125" d="M232.25,252.1c-34.33,0-69.46-2.98-104.5-8.87-41.69-7.01-84.67-18.36-127.75-33.75l.12-.42c43.06,15.38,86.02,26.73,127.69,33.74,35.02,5.89,70.13,8.87,104.44,8.87,1.67,0,3.34,0,5.01-.02,69.95-.59,125.61-13.15,166.28-24.02,50.92-13.61,89.06-31.64,125.94-49.08,49.03-23.18,95.34-45.08,163.81-51.58,100.47-9.53,204.67,18.09,309.67,82.11l-.19.39c-91.45-55.76-182.29-83.89-270.58-83.89-13.02,0-25.97.61-38.87,1.84-68.4,6.49-114.69,28.38-163.69,51.54-36.89,17.44-75.04,35.48-126,49.1-40.69,10.88-96.37,23.44-166.37,24.03-1.67.01-3.34.02-5.01.02Z"/>
      <path class="cls-47" d="M232.25,257.79c-34.33,0-69.45-2.98-104.5-8.87-41.69-7.01-84.67-18.36-127.75-33.75l.12-.42c43.06,15.38,86.02,26.73,127.69,33.74,36.72,6.17,73.54,9.15,109.45,8.85,69.95-.59,125.61-13.15,166.28-24.02,50.92-13.61,89.06-31.64,125.94-49.08,49.03-23.18,95.34-45.08,163.81-51.58,12.9-1.22,25.88-1.84,38.9-1.84,88.36,0,179.25,28.15,270.77,83.94l-.19.39c-104.93-63.97-209.04-91.58-309.45-82.06-68.4,6.49-114.69,28.38-163.69,51.54-36.9,17.44-75.04,35.48-126,49.1-40.69,10.88-96.37,23.44-166.37,24.03-1.67.01-3.34.02-5.02.02Z"/>
      <path class="cls-44" d="M232.25,240.73c-34.33,0-69.45-2.98-104.5-8.87-41.69-7.01-84.67-18.36-127.75-33.75l.12-.42c43.06,15.38,86.02,26.73,127.69,33.74,36.72,6.17,73.54,9.15,109.45,8.85,69.95-.59,125.61-13.15,166.28-24.02,50.92-13.61,89.06-31.64,125.94-49.08,49.03-23.18,95.34-45.08,163.81-51.58,100.47-9.54,204.67,18.09,309.67,82.11l-.19.39c-91.45-55.76-182.29-83.89-270.58-83.89-13.02,0-25.97.61-38.87,1.84-68.4,6.49-114.69,28.38-163.69,51.54-36.89,17.44-75.04,35.48-126,49.1-40.69,10.88-96.37,23.44-166.37,24.03-1.67.01-3.34.02-5.02.02Z"/>
      <path class="cls-45" d="M232.25,246.42c-34.33,0-69.45-2.98-104.5-8.87-41.69-7.01-84.67-18.36-127.75-33.75l.12-.42c43.06,15.38,86.02,26.73,127.69,33.74,36.72,6.17,73.54,9.14,109.45,8.85,69.95-.59,125.61-13.15,166.28-24.02,50.92-13.61,89.06-31.64,125.94-49.08,49.03-23.18,95.34-45.08,163.81-51.58,12.9-1.22,25.88-1.84,38.9-1.84,88.36,0,179.25,28.15,270.77,83.94l-.19.39c-104.93-63.97-209.04-91.58-309.45-82.06-68.4,6.49-114.69,28.38-163.69,51.54-36.9,17.44-75.04,35.48-126,49.1-40.69,10.88-96.37,23.44-166.37,24.03-1.67.01-3.34.02-5.02.02Z"/>
      <path class="cls-46" d="M232.25,229.35c-34.33,0-69.46-2.98-104.5-8.87-41.69-7.01-84.67-18.36-127.75-33.75l.12-.42c43.06,15.38,86.02,26.73,127.69,33.74,35.02,5.89,70.13,8.87,104.44,8.87,1.67,0,3.34,0,5.01-.02,69.95-.59,125.61-13.15,166.28-24.02,50.92-13.61,89.06-31.64,125.94-49.08,49.03-23.18,95.34-45.08,163.81-51.58,100.47-9.54,204.67,18.09,309.67,82.11l-.19.39c-91.45-55.76-182.29-83.89-270.58-83.89-13.02,0-25.97.61-38.87,1.84-68.4,6.49-114.69,28.38-163.69,51.54-36.89,17.44-75.04,35.48-126,49.1-40.69,10.88-96.37,23.44-166.37,24.03-1.67.01-3.34.02-5.01.02Z"/>
      <path class="cls-55" d="M232.25,235.04c-34.33,0-69.46-2.98-104.5-8.87-41.69-7.01-84.67-18.36-127.75-33.75l.12-.42c43.06,15.38,86.02,26.73,127.69,33.74,36.72,6.17,73.54,9.16,109.45,8.84,69.96-.59,125.61-13.15,166.28-24.02,50.92-13.61,89.06-31.64,125.94-49.08,49.03-23.18,95.34-45.08,163.81-51.58,12.9-1.22,25.88-1.84,38.9-1.84,88.36,0,179.25,28.15,270.77,83.94l-.19.39c-104.93-63.97-209.04-91.58-309.45-82.06-68.4,6.49-114.69,28.38-163.69,51.54-36.9,17.44-75.04,35.48-126,49.1-40.69,10.88-96.37,23.44-166.37,24.03-1.67.01-3.34.02-5.01.02Z"/>
      <path class="cls-51" d="M232.25,217.98c-34.33,0-69.45-2.98-104.5-8.87-41.69-7.01-84.67-18.36-127.75-33.75l.12-.42c43.06,15.38,86.02,26.73,127.69,33.74,36.72,6.17,73.54,9.15,109.45,8.85,69.95-.59,125.61-13.15,166.28-24.02,50.92-13.61,89.06-31.64,125.94-49.08,49.03-23.18,95.34-45.08,163.81-51.58,100.47-9.53,204.67,18.09,309.67,82.11l-.19.39c-91.45-55.76-182.29-83.89-270.58-83.89-13.02,0-25.97.61-38.87,1.84-68.4,6.49-114.69,28.38-163.69,51.54-36.89,17.44-75.04,35.48-126,49.1-40.69,10.88-96.37,23.44-166.37,24.03-1.67.01-3.34.02-5.02.02Z"/>
      <path class="cls-49" d="M232.25,223.66c-34.33,0-69.46-2.98-104.5-8.87-41.69-7.01-84.67-18.36-127.75-33.75l.12-.42c43.06,15.38,86.02,26.73,127.69,33.74,35.02,5.89,70.13,8.87,104.44,8.87,1.67,0,3.34,0,5.01-.02,69.96-.59,125.61-13.15,166.28-24.02,50.92-13.61,89.06-31.64,125.94-49.08,49.03-23.18,95.34-45.08,163.81-51.58,12.9-1.22,25.88-1.84,38.9-1.84,88.36,0,179.25,28.15,270.77,83.94l-.19.39c-104.93-63.97-209.04-91.58-309.45-82.06-68.4,6.49-114.69,28.38-163.69,51.54-36.9,17.44-75.04,35.48-126,49.1-40.69,10.88-96.37,23.44-166.37,24.03-1.67.01-3.34.02-5.01.02Z"/>
      <path class="cls-48" d="M232.25,206.6c-34.33,0-69.46-2.98-104.5-8.87-41.69-7.01-84.67-18.36-127.75-33.75l.12-.42c43.06,15.38,86.02,26.73,127.69,33.74,35.02,5.89,70.13,8.87,104.44,8.87,1.67,0,3.34,0,5.01-.02,69.95-.59,125.61-13.15,166.28-24.02,50.92-13.61,89.06-31.64,125.94-49.08,49.03-23.18,95.34-45.08,163.81-51.58,100.47-9.54,204.67,18.09,309.67,82.11l-.19.39c-91.45-55.76-182.29-83.89-270.58-83.89-13.02,0-25.97.61-38.87,1.84-68.4,6.49-114.69,28.38-163.69,51.54-36.89,17.44-75.04,35.48-126,49.1-40.69,10.88-96.37,23.44-166.37,24.03-1.67.01-3.34.02-5.01.02Z"/>
      <path class="cls-54" d="M232.25,212.29c-34.33,0-69.46-2.98-104.5-8.87-41.69-7.01-84.67-18.36-127.75-33.75l.12-.42c43.06,15.38,86.02,26.73,127.69,33.74,35.02,5.89,70.13,8.87,104.44,8.87,1.67,0,3.34,0,5.01-.02,69.96-.59,125.61-13.15,166.28-24.02,50.92-13.61,89.06-31.64,125.94-49.08,49.03-23.18,95.34-45.08,163.81-51.58,12.9-1.22,25.88-1.84,38.9-1.84,88.36,0,179.25,28.15,270.77,83.94l-.19.39c-104.93-63.97-209.04-91.58-309.45-82.06-68.4,6.49-114.69,28.38-163.69,51.54-36.9,17.44-75.04,35.48-126,49.1-40.69,10.88-96.37,23.44-166.37,24.03-1.67.01-3.34.02-5.01.02Z"/>
      <path class="cls-50" d="M232.25,195.22c-34.33,0-69.45-2.98-104.5-8.87-41.69-7.01-84.67-18.36-127.75-33.75l.12-.42c43.06,15.38,86.02,26.73,127.69,33.74,36.72,6.17,73.54,9.14,109.45,8.85,69.95-.59,125.61-13.15,166.28-24.02,50.92-13.61,89.06-31.64,125.94-49.08,49.03-23.18,95.34-45.08,163.81-51.58,100.47-9.54,204.67,18.09,309.67,82.11l-.19.39c-91.45-55.76-182.29-83.89-270.58-83.89-13.02,0-25.97.61-38.87,1.84-68.4,6.49-114.69,28.38-163.69,51.54-36.89,17.44-75.04,35.48-126,49.1-40.69,10.88-96.37,23.44-166.37,24.03-1.67.01-3.34.02-5.02.02Z"/>
      <path class="cls-57" d="M232.25,200.91c-34.33,0-69.46-2.98-104.5-8.87-41.69-7.01-84.67-18.36-127.75-33.75l.12-.42c43.06,15.38,86.02,26.73,127.69,33.74,35.02,5.89,70.13,8.87,104.44,8.87,1.67,0,3.34,0,5.01-.02,69.96-.59,125.61-13.15,166.28-24.02,50.92-13.61,89.06-31.64,125.94-49.08,49.03-23.18,95.34-45.08,163.81-51.58,12.9-1.22,25.88-1.84,38.9-1.84,88.36,0,179.25,28.15,270.77,83.94l-.19.39c-104.93-63.97-209.04-91.58-309.45-82.06-68.4,6.49-114.69,28.38-163.69,51.54-36.9,17.44-75.04,35.48-126,49.1-40.69,10.88-96.37,23.44-166.37,24.03-1.67.01-3.34.02-5.01.02Z"/>
      <path class="cls-53" d="M232.25,183.85c-34.33,0-69.46-2.98-104.5-8.87-41.69-7.01-84.67-18.36-127.75-33.75l.12-.42c43.06,15.38,86.02,26.73,127.69,33.74,36.72,6.17,73.53,9.15,109.45,8.85,69.95-.59,125.61-13.15,166.28-24.02,50.92-13.61,89.06-31.64,125.94-49.08,49.03-23.18,95.34-45.08,163.81-51.58,100.47-9.54,204.67,18.09,309.67,82.11l-.19.39c-91.45-55.76-182.29-83.89-270.58-83.89-13.02,0-25.97.61-38.87,1.84-68.4,6.49-114.69,28.38-163.69,51.54-36.89,17.44-75.04,35.48-126,49.1-40.69,10.88-96.37,23.44-166.37,24.03-1.67.01-3.34.02-5.01.02Z"/>
      <path class="cls-56" d="M232.25,189.54c-34.33,0-69.46-2.98-104.5-8.87-41.69-7.01-84.67-18.36-127.75-33.75l.12-.42c43.06,15.38,86.02,26.73,127.69,33.74,36.72,6.17,73.54,9.18,109.45,8.84,69.96-.59,125.61-13.15,166.28-24.02,50.92-13.61,89.06-31.64,125.94-49.08,49.03-23.18,95.34-45.08,163.81-51.58,12.9-1.22,25.88-1.84,38.9-1.84,88.36,0,179.25,28.15,270.77,83.94l-.19.39c-104.93-63.97-209.04-91.58-309.45-82.06-68.4,6.49-114.69,28.38-163.69,51.54-36.9,17.44-75.04,35.48-126,49.1-40.69,10.88-96.37,23.44-166.37,24.03-1.67.01-3.34.02-5.01.02Z"/>
      <path class="cls-52" d="M232.25,172.47c-34.33,0-69.45-2.98-104.5-8.87-41.69-7.01-84.67-18.36-127.75-33.75l.12-.42c43.06,15.38,86.02,26.73,127.69,33.74,36.72,6.17,73.54,9.16,109.45,8.85,69.95-.59,125.61-13.15,166.28-24.02,50.92-13.61,89.06-31.64,125.94-49.08,49.03-23.18,95.34-45.08,163.81-51.58,100.47-9.54,204.67,18.09,309.67,82.11l-.19.39c-91.45-55.76-182.29-83.89-270.58-83.89-13.02,0-25.97.61-38.87,1.84-68.4,6.49-114.69,28.38-163.69,51.54-36.89,17.44-75.04,35.48-126,49.1-40.69,10.88-96.37,23.44-166.37,24.03-1.67.01-3.34.02-5.02.02Z"/>
      <path class="cls-59" d="M232.25,178.16c-34.33,0-69.45-2.98-104.5-8.87-41.69-7.01-84.67-18.36-127.75-33.75l.12-.42c43.06,15.38,86.02,26.73,127.69,33.74,36.72,6.18,73.54,9.15,109.45,8.85,69.95-.59,125.61-13.15,166.28-24.02,50.92-13.61,89.06-31.64,125.94-49.08,49.03-23.18,95.34-45.08,163.81-51.58,12.9-1.22,25.88-1.84,38.9-1.84,88.36,0,179.25,28.15,270.77,83.94l-.19.39c-104.93-63.97-209.04-91.58-309.45-82.06-68.4,6.49-114.69,28.38-163.69,51.54-36.9,17.44-75.04,35.48-126,49.1-40.69,10.88-96.37,23.44-166.37,24.03-1.67.01-3.34.02-5.02.02Z"/>
      <path class="cls-43" d="M232.25,161.1c-34.33,0-69.46-2.98-104.5-8.87-41.69-7.01-84.67-18.36-127.75-33.75l.12-.42c43.06,15.38,86.02,26.73,127.69,33.74,36.72,6.17,73.53,9.14,109.45,8.85,69.95-.59,125.61-13.15,166.28-24.02,50.92-13.61,89.06-31.64,125.94-49.08,49.03-23.18,95.34-45.08,163.81-51.58,100.47-9.54,204.67,18.09,309.67,82.11l-.19.39c-91.45-55.76-182.29-83.89-270.59-83.89-13.02,0-25.96.61-38.87,1.84-68.4,6.49-114.69,28.38-163.69,51.54-36.9,17.44-75.04,35.48-126,49.1-40.69,10.88-96.37,23.44-166.37,24.03-1.67.01-3.34.02-5.01.02Z"/>
      <path class="cls-60" d="M232.25,166.79c-34.33,0-69.46-2.98-104.5-8.87-41.69-7.01-84.67-18.36-127.75-33.75l.12-.42c43.06,15.38,86.02,26.73,127.69,33.74,36.72,6.17,73.53,9.13,109.45,8.85,69.95-.59,125.61-13.15,166.28-24.02,50.92-13.61,89.06-31.64,125.94-49.08,49.03-23.18,95.34-45.08,163.81-51.58,12.9-1.22,25.88-1.84,38.9-1.84,88.36,0,179.25,28.15,270.77,83.94l-.19.39c-104.93-63.97-209.04-91.58-309.45-82.06-68.4,6.49-114.69,28.38-163.69,51.54-36.9,17.44-75.04,35.48-126,49.1-40.69,10.88-96.37,23.44-166.37,24.03-1.67.01-3.34.02-5.01.02Z"/>
      <path class="cls-58" d="M232.25,149.72c-34.33,0-69.45-2.98-104.5-8.87-41.69-7.01-84.67-18.36-127.75-33.75l.12-.42c43.06,15.38,86.02,26.73,127.69,33.74,36.72,6.17,73.54,9.16,109.45,8.85,69.95-.59,125.61-13.15,166.28-24.02,50.92-13.61,89.06-31.64,125.94-49.08,49.03-23.18,95.34-45.08,163.81-51.58,100.47-9.54,204.67,18.09,309.67,82.11l-.19.39c-91.45-55.76-182.3-83.89-270.59-83.89-13.02,0-25.96.61-38.87,1.84-68.4,6.49-114.69,28.38-163.69,51.54-36.9,17.44-75.04,35.48-126,49.1-40.69,10.88-96.37,23.44-166.37,24.03-1.67.01-3.34.02-5.02.02Z"/>
      <path class="cls-42" d="M232.25,155.41c-34.33,0-69.45-2.98-104.5-8.87-41.69-7.01-84.67-18.36-127.75-33.75l.12-.42c43.06,15.38,86.02,26.73,127.69,33.74,36.72,6.17,73.53,9.13,109.45,8.85,69.95-.59,125.61-13.15,166.28-24.02,50.92-13.61,89.06-31.64,125.94-49.08,49.03-23.18,95.34-45.08,163.81-51.58,12.9-1.22,25.88-1.84,38.9-1.84,88.36,0,179.25,28.15,270.77,83.94l-.19.39c-104.93-63.97-209.04-91.58-309.45-82.06-68.4,6.49-114.69,28.38-163.69,51.54-36.89,17.44-75.04,35.48-126,49.1-40.69,10.88-96.37,23.44-166.37,24.03-1.67.01-3.34.02-5.02.02Z"/>
      <path class="cls-33" d="M232.25,138.35c-34.33,0-69.45-2.98-104.5-8.87-41.69-7.01-84.67-18.36-127.75-33.75l.12-.42c43.06,15.38,86.02,26.73,127.69,33.74,36.72,6.17,73.54,9.16,109.45,8.85,69.95-.59,125.61-13.15,166.28-24.02,50.92-13.61,89.06-31.64,125.94-49.08,49.03-23.18,95.34-45.08,163.81-51.58,12.9-1.22,25.88-1.84,38.9-1.84,88.36,0,179.25,28.15,270.77,83.94l-.19.39C897.85,31.73,793.74,4.13,693.33,13.65c-68.4,6.49-114.69,28.38-163.69,51.54-36.9,17.44-75.04,35.48-126,49.1-40.69,10.88-96.37,23.44-166.37,24.03-1.67.01-3.34.02-5.02.02Z"/>
      <path class="cls-35" d="M232.25,144.03c-34.33,0-69.45-2.98-104.5-8.87-41.69-7.01-84.67-18.36-127.75-33.75l.12-.42c43.06,15.38,86.02,26.73,127.69,33.74,36.72,6.17,73.53,9.13,109.45,8.85,69.95-.59,125.61-13.15,166.28-24.02,50.92-13.61,89.06-31.64,125.94-49.08,49.03-23.18,95.34-45.08,163.81-51.58,12.9-1.22,25.88-1.84,38.9-1.84,88.36,0,179.25,28.15,270.77,83.94l-.19.39c-104.93-63.97-209.04-91.58-309.45-82.06-68.4,6.49-114.69,28.38-163.69,51.54-36.89,17.44-75.04,35.48-126,49.1-40.69,10.88-96.37,23.44-166.37,24.03-1.67.01-3.34.02-5.02.02Z"/>
      <path class="cls-36" d="M232.25,126.97c-34.33,0-69.45-2.98-104.5-8.87-41.69-7.01-84.67-18.36-127.75-33.75l.12-.42c43.06,15.38,86.02,26.73,127.69,33.74,36.72,6.17,73.54,9.15,109.45,8.85,69.95-.59,125.61-13.15,166.28-24.02,50.92-13.61,89.06-31.64,125.94-49.08,49.03-23.18,95.34-45.08,163.81-51.58,12.9-1.22,25.88-1.84,38.9-1.84,88.36,0,179.25,28.15,270.77,83.94l-.19.39C897.85,20.35,793.74-7.25,693.33,2.27c-68.4,6.49-114.69,28.38-163.69,51.54-36.9,17.44-75.04,35.48-126,49.1-40.69,10.88-96.37,23.44-166.37,24.03-1.67.01-3.34.02-5.02.02Z"/>
      <path class="cls-34" d="M232.25,132.66c-34.33,0-69.45-2.98-104.5-8.87-41.69-7.01-84.67-18.36-127.75-33.75l.12-.42c43.06,15.38,86.02,26.73,127.69,33.74,35.02,5.89,70.13,8.87,104.44,8.87,1.67,0,3.34,0,5.01-.02,69.95-.59,125.61-13.15,166.28-24.02,50.92-13.61,89.06-31.64,125.94-49.08,49.03-23.18,95.34-45.08,163.81-51.58,12.9-1.22,25.88-1.84,38.9-1.84,88.36,0,179.25,28.15,270.77,83.94l-.19.39C897.85,26.04,793.74-1.56,693.33,7.96c-68.4,6.49-114.69,28.38-163.69,51.54-36.89,17.44-75.04,35.48-126,49.1-40.69,10.88-96.37,23.44-166.37,24.03-1.67.01-3.34.02-5.02.02Z"/>
      <path class="cls-32" d="M232.25,479.62c-34.33,0-69.45-2.98-104.5-8.87-41.69-7.01-84.67-18.36-127.75-33.75l.12-.42c43.06,15.38,86.02,26.73,127.69,33.74,36.72,6.17,73.54,9.16,109.45,8.85,69.95-.59,125.61-13.15,166.28-24.02,50.92-13.61,89.06-31.64,125.94-49.08,49.03-23.18,95.34-45.08,163.81-51.58,12.9-1.22,25.88-1.84,38.9-1.84,88.36,0,179.25,28.15,270.77,83.94l-.19.39c-104.93-63.97-209.04-91.58-309.45-82.06-68.4,6.49-114.69,28.38-163.69,51.54-36.9,17.44-75.04,35.48-126,49.1-40.69,10.88-96.37,23.44-166.37,24.03-1.67.01-3.34.02-5.02.02Z"/>
      <path class="cls-39" d="M232.25,485.31c-34.33,0-69.45-2.98-104.5-8.87-41.69-7.01-84.67-18.36-127.75-33.75l.12-.42c43.06,15.38,86.02,26.73,127.69,33.74,36.72,6.17,73.53,9.14,109.45,8.85,69.95-.59,125.61-13.15,166.28-24.02,50.92-13.61,89.06-31.64,125.94-49.08,49.03-23.18,95.34-45.08,163.81-51.58,12.9-1.22,25.88-1.84,38.9-1.84,88.36,0,179.25,28.15,270.77,83.94l-.19.39c-104.93-63.97-209.04-91.58-309.45-82.06-68.4,6.49-114.69,28.38-163.69,51.54-36.89,17.44-75.04,35.48-126,49.1-40.69,10.88-96.37,23.44-166.37,24.03-1.67.01-3.34.02-5.02.02Z"/>
      <path class="cls-41" d="M232.25,468.25c-34.33,0-69.45-2.98-104.5-8.87-41.69-7.01-84.67-18.36-127.75-33.75l.12-.42c43.06,15.38,86.02,26.73,127.69,33.74,36.72,6.17,73.54,9.16,109.45,8.85,69.95-.59,125.61-13.15,166.28-24.02,50.92-13.61,89.06-31.64,125.94-49.08,49.03-23.18,95.34-45.08,163.81-51.58,12.9-1.22,25.88-1.84,38.9-1.84,88.36,0,179.25,28.15,270.77,83.94l-.19.39c-104.93-63.97-209.04-91.58-309.45-82.06-68.4,6.49-114.69,28.38-163.69,51.54-36.9,17.44-75.04,35.48-126,49.1-40.69,10.88-96.37,23.44-166.37,24.03-1.67.01-3.34.02-5.02.02Z"/>
      <path class="cls-37" d="M232.25,473.93c-34.33,0-69.46-2.98-104.5-8.87-41.69-7.01-84.67-18.36-127.75-33.75l.12-.42c43.06,15.38,86.02,26.73,127.69,33.74,36.72,6.17,73.53,9.14,109.45,8.85,69.95-.59,125.61-13.15,166.28-24.02,50.92-13.61,89.06-31.64,125.94-49.08,49.03-23.18,95.34-45.08,163.81-51.58,12.9-1.22,25.88-1.84,38.9-1.84,88.36,0,179.25,28.15,270.77,83.94l-.19.39c-104.94-63.97-209.05-91.59-309.45-82.06-68.4,6.49-114.69,28.38-163.69,51.54-36.89,17.44-75.04,35.48-126,49.1-40.69,10.88-96.37,23.44-166.37,24.03-1.67.01-3.34.02-5.01.02Z"/>
      <path class="cls-40" d="M232.25,456.87c-34.33,0-69.45-2.98-104.5-8.87-41.69-7.01-84.67-18.36-127.75-33.75l.12-.42c43.06,15.38,86.02,26.73,127.69,33.74,36.72,6.17,73.54,9.15,109.45,8.85,69.95-.59,125.61-13.15,166.28-24.02,50.92-13.61,89.06-31.64,125.94-49.08,49.03-23.18,95.34-45.08,163.81-51.58,12.9-1.22,25.88-1.84,38.9-1.84,88.36,0,179.25,28.15,270.77,83.94l-.19.39c-104.93-63.97-209.04-91.58-309.45-82.06-68.4,6.49-114.69,28.38-163.69,51.54-36.9,17.44-75.04,35.48-126,49.1-40.69,10.88-96.37,23.44-166.37,24.03-1.67.01-3.34.02-5.02.02Z"/>
      <path class="cls-31" d="M232.25,462.56c-34.33,0-69.45-2.98-104.5-8.87-41.69-7.01-84.67-18.36-127.75-33.75l.12-.42c43.06,15.38,86.02,26.73,127.69,33.74,36.72,6.17,73.54,9.14,109.45,8.85,69.95-.59,125.61-13.15,166.28-24.02,50.92-13.61,89.06-31.64,125.94-49.08,49.03-23.18,95.34-45.08,163.81-51.58,100.49-9.54,204.66,18.09,309.67,82.11l-.19.39c-104.94-63.97-209.05-91.59-309.45-82.06-68.4,6.49-114.69,28.38-163.69,51.54-36.89,17.44-75.04,35.48-126,49.1-40.69,10.88-96.37,23.44-166.37,24.03-1.67.01-3.34.02-5.02.02Z"/>
      <path class="cls-38" d="M232.25,445.49c-34.33,0-69.45-2.98-104.5-8.87-41.69-7.01-84.67-18.36-127.75-33.75l.12-.42c43.06,15.38,86.02,26.73,127.69,33.74,36.72,6.17,73.54,9.15,109.45,8.85,69.95-.59,125.61-13.15,166.28-24.02,50.92-13.61,89.06-31.64,125.94-49.08,49.03-23.18,95.34-45.08,163.81-51.58,12.9-1.22,25.88-1.84,38.9-1.84,88.36,0,179.25,28.15,270.77,83.94l-.19.39c-104.93-63.97-209.04-91.58-309.45-82.06-68.4,6.49-114.69,28.38-163.69,51.54-36.9,17.44-75.04,35.48-126,49.1-40.69,10.88-96.37,23.44-166.37,24.03-1.67.01-3.34.02-5.02.02Z"/>
      <path class="cls-69" d="M232.25,451.18c-34.33,0-69.46-2.98-104.5-8.87-41.69-7.01-84.67-18.36-127.75-33.75l.12-.42c43.06,15.38,86.02,26.73,127.69,33.74,36.72,6.17,73.53,9.14,109.45,8.85,69.95-.59,125.61-13.15,166.28-24.02,50.92-13.61,89.06-31.64,125.94-49.08,49.03-23.18,95.34-45.08,163.81-51.58,12.9-1.22,25.88-1.84,38.9-1.84,88.36,0,179.25,28.15,270.77,83.94l-.19.39c-104.94-63.97-209.05-91.59-309.45-82.06-68.4,6.49-114.69,28.38-163.69,51.54-36.89,17.44-75.04,35.48-126,49.1-40.69,10.88-96.37,23.44-166.37,24.03-1.67.01-3.34.02-5.01.02Z"/>
      <path class="cls-70" d="M232.25,434.12c-34.33,0-69.45-2.98-104.5-8.87-41.69-7.01-84.67-18.36-127.75-33.75l.12-.42c43.06,15.38,86.02,26.73,127.69,33.74,36.72,6.18,73.54,9.15,109.45,8.85,69.95-.59,125.61-13.15,166.28-24.02,50.92-13.61,89.06-31.64,125.94-49.08,49.03-23.18,95.34-45.08,163.81-51.58,12.9-1.22,25.88-1.84,38.9-1.84,88.36,0,179.25,28.15,270.77,83.94l-.19.39c-104.93-63.97-209.04-91.58-309.45-82.06-68.4,6.49-114.69,28.38-163.69,51.54-36.9,17.44-75.04,35.48-126,49.1-40.69,10.88-96.37,23.44-166.37,24.03-1.67.01-3.34.02-5.02.02Z"/>
      <path class="cls-67" d="M232.25,439.81c-34.33,0-69.45-2.98-104.5-8.87-41.69-7.01-84.67-18.36-127.75-33.75l.12-.42c43.06,15.38,86.02,26.73,127.69,33.74,36.72,6.17,73.54,9.16,109.45,8.85,69.95-.59,125.61-13.15,166.28-24.02,50.92-13.61,89.06-31.64,125.94-49.08,49.03-23.18,95.34-45.08,163.81-51.58,100.47-9.54,204.67,18.09,309.67,82.11l-.19.39c-91.45-55.76-182.29-83.89-270.58-83.89-13.02,0-25.97.61-38.87,1.84-68.4,6.49-114.69,28.38-163.69,51.54-36.89,17.44-75.04,35.48-126,49.1-40.69,10.88-96.37,23.44-166.37,24.03-1.67.01-3.34.02-5.02.02Z"/>
      <path class="cls-68" d="M232.25,422.74c-34.33,0-69.46-2.98-104.5-8.87-41.69-7.01-84.67-18.36-127.75-33.75l.12-.42c43.06,15.38,86.02,26.73,127.69,33.74,36.72,6.17,73.54,9.17,109.45,8.84,69.96-.59,125.61-13.15,166.28-24.02,50.92-13.61,89.06-31.64,125.94-49.08,49.03-23.18,95.34-45.08,163.81-51.58,12.9-1.22,25.88-1.84,38.9-1.84,88.36,0,179.25,28.15,270.77,83.94l-.19.39c-104.93-63.97-209.04-91.58-309.45-82.06-68.4,6.49-114.69,28.38-163.69,51.54-36.9,17.44-75.04,35.48-126,49.1-40.69,10.88-96.37,23.44-166.37,24.03-1.67.01-3.34.02-5.01.02Z"/>
      <path class="cls-63" d="M232.25,428.43c-34.33,0-69.46-2.98-104.5-8.87-41.69-7.01-84.67-18.36-127.75-33.75l.12-.42c43.06,15.38,86.02,26.73,127.69,33.74,36.72,6.17,73.53,9.14,109.45,8.85,69.95-.59,125.61-13.15,166.28-24.02,50.92-13.61,89.06-31.64,125.94-49.08,49.03-23.18,95.34-45.08,163.81-51.58,100.47-9.54,204.67,18.09,309.67,82.11l-.19.39c-91.45-55.76-182.29-83.89-270.58-83.89-13.02,0-25.97.61-38.87,1.84-68.4,6.49-114.69,28.38-163.69,51.54-36.89,17.44-75.04,35.48-126,49.1-40.69,10.88-96.37,23.44-166.37,24.03-1.67.01-3.34.02-5.01.02Z"/>
      <path class="cls-61" d="M232.25,411.37c-34.33,0-69.46-2.98-104.5-8.87-41.69-7.01-84.67-18.36-127.75-33.75l.12-.42c43.06,15.38,86.02,26.73,127.69,33.74,36.72,6.17,73.54,9.17,109.45,8.84,69.96-.59,125.61-13.15,166.28-24.02,50.92-13.61,89.06-31.64,125.94-49.08,49.03-23.18,95.34-45.08,163.81-51.58,12.9-1.22,25.88-1.84,38.9-1.84,88.36,0,179.25,28.15,270.77,83.94l-.19.39c-104.93-63.97-209.04-91.58-309.45-82.06-68.4,6.49-114.69,28.38-163.69,51.54-36.9,17.44-75.04,35.48-126,49.1-40.69,10.88-96.37,23.44-166.37,24.03-1.67.01-3.34.02-5.01.02Z"/>
      <path class="cls-62" d="M232.25,417.05c-34.33,0-69.45-2.98-104.5-8.87-41.69-7.01-84.67-18.36-127.75-33.75l.12-.42c43.06,15.38,86.02,26.73,127.69,33.74,36.72,6.17,73.54,9.16,109.45,8.85,69.95-.59,125.61-13.15,166.28-24.02,50.92-13.61,89.06-31.64,125.94-49.08,49.03-23.18,95.34-45.08,163.81-51.58,100.47-9.54,204.67,18.09,309.67,82.11l-.19.39c-91.45-55.76-182.29-83.89-270.58-83.89-13.02,0-25.97.61-38.87,1.84-68.4,6.49-114.69,28.38-163.69,51.54-36.89,17.44-75.04,35.48-126,49.1-40.69,10.88-96.37,23.44-166.37,24.03-1.67.01-3.34.02-5.02.02Z"/>
      <path class="cls-66" d="M232.25,399.99c-34.33,0-69.46-2.98-104.5-8.87-41.69-7.01-84.67-18.36-127.75-33.75l.12-.42c43.06,15.38,86.02,26.73,127.69,33.74,36.72,6.17,73.54,9.16,109.45,8.84,69.96-.59,125.61-13.15,166.28-24.02,50.92-13.61,89.06-31.64,125.94-49.08,49.03-23.18,95.34-45.08,163.81-51.58,12.9-1.22,25.88-1.84,38.9-1.84,88.36,0,179.25,28.15,270.77,83.94l-.19.39c-104.93-63.97-209.04-91.58-309.45-82.06-68.4,6.49-114.69,28.38-163.69,51.54-36.9,17.44-75.04,35.48-126,49.1-40.69,10.88-96.37,23.44-166.37,24.03-1.67.01-3.34.02-5.01.02Z"/>
      <path class="cls-64" d="M232.25,405.68c-34.33,0-69.46-2.98-104.5-8.87-41.69-7.01-84.67-18.36-127.75-33.75l.12-.42c43.06,15.38,86.02,26.73,127.69,33.74,36.72,6.17,73.53,9.13,109.45,8.85,69.95-.59,125.61-13.15,166.28-24.02,50.92-13.61,89.06-31.64,125.94-49.08,49.03-23.18,95.34-45.08,163.81-51.58,100.47-9.54,204.67,18.09,309.67,82.11l-.19.39c-91.45-55.76-182.29-83.89-270.58-83.89-13.02,0-25.97.61-38.87,1.84-68.4,6.49-114.69,28.38-163.69,51.54-36.89,17.44-75.04,35.48-126,49.1-40.69,10.88-96.37,23.44-166.37,24.03-1.67.01-3.34.02-5.01.02Z"/>
      <path class="cls-65" d="M232.25,388.62c-34.33,0-69.46-2.98-104.5-8.87-41.69-7.01-84.67-18.36-127.75-33.75l.12-.42c43.06,15.38,86.02,26.73,127.69,33.74,35.02,5.89,70.13,8.87,104.44,8.87,1.67,0,3.34,0,5.01-.02,69.96-.59,125.61-13.15,166.28-24.02,50.92-13.61,89.06-31.64,125.94-49.08,49.03-23.18,95.34-45.08,163.81-51.58,12.9-1.22,25.88-1.84,38.9-1.84,88.36,0,179.25,28.15,270.77,83.94l-.19.39c-104.93-63.97-209.04-91.58-309.45-82.06-68.4,6.49-114.69,28.38-163.69,51.54-36.9,17.44-75.04,35.48-126,49.1-40.69,10.88-96.37,23.44-166.37,24.03-1.67.01-3.34.02-5.01.02Z"/>
      <path class="cls-79" d="M232.25,394.3c-34.33,0-69.45-2.98-104.5-8.87-41.69-7.01-84.67-18.36-127.75-33.75l.12-.42c43.06,15.38,86.02,26.73,127.69,33.74,36.72,6.17,73.54,9.15,109.45,8.85,69.95-.59,125.61-13.15,166.28-24.02,50.92-13.61,89.06-31.64,125.94-49.08,49.03-23.18,95.34-45.08,163.81-51.58,100.47-9.54,204.67,18.09,309.67,82.11l-.19.39c-91.45-55.76-182.29-83.89-270.58-83.89-13.02,0-25.97.61-38.87,1.84-68.4,6.49-114.69,28.38-163.69,51.54-36.89,17.44-75.04,35.48-126,49.1-40.69,10.88-96.37,23.44-166.37,24.03-1.67.01-3.34.02-5.02.02Z"/>
      <path class="cls-77" d="M232.25,377.24c-34.33,0-69.46-2.98-104.5-8.87-41.69-7.01-84.67-18.36-127.75-33.75l.12-.42c43.06,15.38,86.02,26.73,127.69,33.74,35.02,5.89,70.13,8.87,104.44,8.87,1.67,0,3.34,0,5.01-.02,69.96-.59,125.61-13.15,166.28-24.02,50.92-13.61,89.06-31.64,125.94-49.08,49.03-23.18,95.34-45.08,163.81-51.58,12.9-1.22,25.88-1.84,38.9-1.84,88.36,0,179.25,28.15,270.77,83.94l-.19.39c-104.93-63.97-209.04-91.58-309.45-82.06-68.4,6.49-114.69,28.38-163.69,51.54-36.9,17.44-75.04,35.48-126,49.1-40.69,10.88-96.37,23.44-166.37,24.03-1.67.01-3.34.02-5.01.02Z"/>
      <path class="cls-78" d="M232.25,382.93c-34.33,0-69.46-2.98-104.5-8.87-41.69-7.01-84.67-18.36-127.75-33.75l.12-.42c43.06,15.38,86.02,26.73,127.69,33.74,36.72,6.17,73.53,9.13,109.45,8.85,69.95-.59,125.61-13.15,166.28-24.02,50.92-13.61,89.06-31.64,125.94-49.08,49.03-23.18,95.34-45.08,163.81-51.58,100.47-9.54,204.67,18.09,309.67,82.11l-.19.39c-91.45-55.76-182.29-83.89-270.58-83.89-13.02,0-25.97.61-38.87,1.84-68.4,6.49-114.69,28.38-163.69,51.54-36.89,17.44-75.04,35.48-126,49.1-40.69,10.88-96.37,23.44-166.37,24.03-1.67.01-3.34.02-5.01.02Z"/>
      <path class="cls-76" d="M232.25,365.86c-34.33,0-69.46-2.98-104.5-8.87-41.69-7.01-84.67-18.36-127.75-33.75l.12-.42c43.06,15.38,86.02,26.73,127.69,33.74,35.02,5.89,70.13,8.87,104.44,8.87,1.67,0,3.34,0,5.01-.02,69.96-.59,125.61-13.15,166.28-24.02,50.92-13.61,89.06-31.64,125.94-49.08,49.03-23.18,95.34-45.08,163.81-51.58,12.9-1.22,25.88-1.84,38.9-1.84,88.36,0,179.25,28.15,270.77,83.94l-.19.39c-104.93-63.97-209.04-91.58-309.45-82.06-68.4,6.49-114.69,28.38-163.69,51.54-36.9,17.44-75.04,35.48-126,49.1-40.69,10.88-96.37,23.44-166.37,24.03-1.67.01-3.34.02-5.01.02Z"/>
      <path class="cls-80" d="M232.25,371.55c-34.33,0-69.45-2.98-104.5-8.87-41.69-7.01-84.67-18.36-127.75-33.75l.12-.42c43.06,15.38,86.02,26.73,127.69,33.74,36.72,6.18,73.54,9.15,109.45,8.85,69.95-.59,125.61-13.15,166.28-24.02,50.92-13.61,89.06-31.64,125.94-49.08,49.03-23.18,95.34-45.08,163.81-51.58,100.47-9.53,204.67,18.09,309.67,82.11l-.19.39c-91.45-55.76-182.29-83.89-270.58-83.89-13.02,0-25.97.61-38.87,1.84-68.4,6.49-114.69,28.38-163.69,51.54-36.89,17.44-75.04,35.48-126,49.1-40.69,10.88-96.37,23.44-166.37,24.03-1.67.01-3.34.02-5.02.02Z"/>
      <path class="cls-74" d="M232.25,354.49c-34.33,0-69.45-2.98-104.5-8.87-41.69-7.01-84.67-18.36-127.75-33.75l.12-.42c43.06,15.38,86.02,26.73,127.69,33.74,36.72,6.18,73.54,9.16,109.45,8.85,69.95-.59,125.61-13.15,166.28-24.02,50.92-13.61,89.06-31.64,125.94-49.08,49.03-23.18,95.34-45.08,163.81-51.58,12.9-1.22,25.88-1.84,38.9-1.84,88.36,0,179.25,28.15,270.77,83.94l-.19.39c-104.93-63.97-209.04-91.58-309.45-82.06-68.4,6.49-114.69,28.38-163.69,51.54-36.9,17.44-75.04,35.48-126,49.1-40.69,10.88-96.37,23.44-166.37,24.03-1.67.01-3.34.02-5.02.02Z"/>
      <path class="cls-75" d="M232.25,360.18c-34.33,0-69.46-2.98-104.5-8.87-41.69-7.01-84.67-18.36-127.75-33.75l.12-.42c43.06,15.38,86.02,26.73,127.69,33.74,35.02,5.89,70.13,8.87,104.44,8.87,1.67,0,3.34,0,5.01-.02,69.95-.59,125.61-13.15,166.28-24.02,50.92-13.61,89.06-31.64,125.94-49.08,49.03-23.18,95.34-45.08,163.81-51.58,100.47-9.54,204.67,18.09,309.67,82.11l-.19.39c-91.45-55.76-182.29-83.89-270.58-83.89-13.02,0-25.97.61-38.87,1.84-68.4,6.49-114.69,28.38-163.69,51.54-36.89,17.44-75.04,35.48-126,49.1-40.69,10.88-96.37,23.44-166.37,24.03-1.67.01-3.34.02-5.01.02Z"/>
      <path class="cls-72" d="M232.25,343.11c-34.33,0-69.46-2.98-104.5-8.87-41.69-7.01-84.67-18.36-127.75-33.75l.12-.42c43.06,15.38,86.02,26.73,127.69,33.74,36.72,6.17,73.53,9.14,109.45,8.85,69.95-.59,125.61-13.15,166.28-24.02,50.92-13.61,89.06-31.64,125.94-49.08,49.03-23.18,95.34-45.08,163.81-51.58,12.9-1.22,25.88-1.84,38.9-1.84,88.36,0,179.25,28.15,270.77,83.94l-.19.39c-104.93-63.97-209.04-91.58-309.45-82.06-68.4,6.49-114.69,28.38-163.69,51.54-36.9,17.44-75.04,35.48-126,49.1-40.69,10.88-96.37,23.44-166.37,24.03-1.67.01-3.34.02-5.01.02Z"/>
      <path class="cls-73" d="M232.25,348.8c-34.33,0-69.45-2.98-104.5-8.87-41.69-7.01-84.67-18.36-127.75-33.75l.12-.42c43.06,15.38,86.02,26.73,127.69,33.74,36.72,6.17,73.54,9.14,109.45,8.85,69.95-.59,125.61-13.15,166.28-24.02,50.92-13.61,89.06-31.64,125.94-49.08,49.03-23.18,95.34-45.08,163.81-51.58,100.47-9.54,204.67,18.09,309.67,82.11l-.19.39c-91.45-55.76-182.29-83.89-270.58-83.89-13.02,0-25.97.61-38.87,1.84-68.4,6.49-114.69,28.38-163.69,51.54-36.89,17.44-75.04,35.48-126,49.1-40.69,10.88-96.37,23.44-166.37,24.03-1.67.01-3.34.02-5.02.02Z"/>
      <path class="cls-71" d="M232.25,331.73c-34.33,0-69.45-2.98-104.5-8.87-41.69-7.01-84.67-18.36-127.75-33.75l.12-.42c43.06,15.38,86.02,26.73,127.69,33.74,36.72,6.17,73.53,9.14,109.45,8.85,69.95-.59,125.61-13.15,166.28-24.02,50.92-13.61,89.06-31.64,125.94-49.08,49.03-23.18,95.34-45.08,163.81-51.58,12.9-1.22,25.88-1.84,38.9-1.84,88.36,0,179.25,28.15,270.77,83.94l-.19.39c-104.93-63.97-209.04-91.58-309.45-82.06-68.4,6.49-114.69,28.38-163.69,51.54-36.89,17.44-75.04,35.48-126,49.1-40.69,10.88-96.37,23.44-166.37,24.03-1.67.01-3.34.02-5.02.02Z"/>
      <path class="cls-81" d="M232.25,337.42c-34.33,0-69.46-2.98-104.5-8.87-41.69-7.01-84.67-18.36-127.75-33.75l.12-.42c43.06,15.38,86.02,26.73,127.69,33.74,35.02,5.89,70.13,8.87,104.44,8.87,1.67,0,3.34,0,5.01-.02,69.95-.59,125.61-13.15,166.28-24.02,50.92-13.61,89.06-31.64,125.94-49.08,49.03-23.18,95.34-45.08,163.81-51.58,100.47-9.54,204.67,18.09,309.67,82.11l-.19.39c-104.94-63.97-209.03-91.57-309.45-82.06-68.4,6.49-114.69,28.38-163.69,51.54-36.9,17.44-75.04,35.48-126,49.1-40.69,10.88-96.37,23.44-166.37,24.03-1.67.01-3.34.02-5.01.02Z"/>
      <path class="cls-82" d="M232.25,320.36c-34.33,0-69.45-2.98-104.5-8.87-41.69-7.01-84.67-18.36-127.75-33.75l.12-.42c43.06,15.38,86.02,26.73,127.69,33.74,36.72,6.17,73.53,9.14,109.45,8.85,69.95-.59,125.61-13.15,166.28-24.02,50.92-13.61,89.06-31.64,125.94-49.08,49.03-23.18,95.34-45.08,163.81-51.58,12.9-1.22,25.88-1.84,38.9-1.84,88.36,0,179.25,28.15,270.77,83.94l-.19.39c-104.93-63.97-209.04-91.58-309.45-82.06-68.4,6.49-114.69,28.38-163.69,51.54-36.89,17.44-75.04,35.48-126,49.1-40.69,10.88-96.37,23.44-166.37,24.03-1.67.01-3.34.02-5.02.02Z"/>
      <path class="cls-83" d="M232.25,326.05c-34.33,0-69.45-2.98-104.5-8.87-41.69-7.01-84.67-18.36-127.75-33.75l.12-.42c43.06,15.38,86.02,26.73,127.69,33.74,36.72,6.17,73.54,9.16,109.45,8.85,69.95-.59,125.61-13.15,166.28-24.02,50.92-13.61,89.06-31.64,125.94-49.08,49.03-23.18,95.34-45.08,163.81-51.58,12.9-1.22,25.88-1.84,38.9-1.84,88.36,0,179.25,28.15,270.77,83.94l-.19.39c-104.93-63.97-209.04-91.58-309.45-82.06-68.4,6.49-114.69,28.38-163.69,51.54-36.9,17.44-75.04,35.48-126,49.1-40.69,10.88-96.37,23.44-166.37,24.03-1.67.01-3.34.02-5.02.02Z"/>
      <path class="cls-94" d="M232.25,308.98c-34.33,0-69.45-2.98-104.5-8.87-41.69-7.01-84.67-18.36-127.75-33.75l.12-.42c43.06,15.38,86.02,26.73,127.69,33.74,36.72,6.17,73.53,9.14,109.45,8.85,69.95-.59,125.61-13.15,166.28-24.02,50.92-13.61,89.06-31.64,125.94-49.08,49.03-23.18,95.34-45.08,163.81-51.58,12.9-1.22,25.88-1.84,38.9-1.84,88.36,0,179.25,28.15,270.77,83.94l-.19.39c-104.93-63.97-209.04-91.58-309.45-82.06-68.4,6.49-114.69,28.38-163.69,51.54-36.89,17.44-75.04,35.48-126,49.1-40.69,10.88-96.37,23.44-166.37,24.03-1.67.01-3.34.02-5.02.02Z"/>
      <path class="cls-96" d="M232.25,314.67c-34.33,0-69.45-2.98-104.5-8.87-41.69-7.01-84.67-18.36-127.75-33.75l.12-.42c43.06,15.38,86.02,26.73,127.69,33.74,36.72,6.17,73.54,9.16,109.45,8.85,69.95-.59,125.61-13.15,166.28-24.02,50.92-13.61,89.06-31.64,125.94-49.08,49.03-23.18,95.34-45.08,163.81-51.58,12.9-1.22,25.88-1.84,38.9-1.84,88.36,0,179.25,28.15,270.77,83.94l-.19.39c-104.93-63.97-209.04-91.58-309.45-82.06-68.4,6.49-114.69,28.38-163.69,51.54-36.9,17.44-75.04,35.48-126,49.1-40.69,10.88-96.37,23.44-166.37,24.03-1.67.01-3.34.02-5.02.02Z"/>
      <path class="cls-84" d="M232.25,661.64c-34.33,0-69.45-2.98-104.5-8.87-41.69-7.01-84.67-18.36-127.75-33.75l.12-.42c43.06,15.38,86.02,26.73,127.69,33.74,35.02,5.89,70.13,8.87,104.44,8.87,1.67,0,3.34,0,5.01-.02,69.95-.59,125.61-13.15,166.28-24.02,50.92-13.61,89.06-31.64,125.94-49.08,49.03-23.18,95.34-45.08,163.81-51.58,100.49-9.54,204.66,18.09,309.67,82.11l-.19.39c-104.94-63.97-209.05-91.59-309.45-82.06-68.4,6.49-114.69,28.38-163.69,51.54-36.89,17.44-75.04,35.48-126,49.1-40.69,10.88-96.37,23.44-166.37,24.03-1.67.01-3.34.02-5.02.02Z"/>
      <path class="cls-93" d="M232.25,667.32c-34.33,0-69.45-2.98-104.5-8.87-41.69-7.01-84.67-18.36-127.75-33.75l.12-.42c43.06,15.38,86.02,26.73,127.69,33.74,36.72,6.17,73.54,9.16,109.45,8.85,69.95-.59,125.61-13.15,166.28-24.02,50.92-13.61,89.06-31.64,125.94-49.08,49.03-23.18,95.34-45.08,163.81-51.58,12.9-1.22,25.88-1.84,38.9-1.84,88.36,0,179.25,28.15,270.77,83.94l-.19.39c-104.93-63.97-209.04-91.58-309.45-82.06-68.4,6.49-114.69,28.38-163.69,51.54-36.9,17.44-75.04,35.48-126,49.1-40.69,10.88-96.37,23.44-166.37,24.03-1.67.01-3.34.02-5.02.02Z"/>
      <path class="cls-91" d="M232.25,650.26c-34.33,0-69.46-2.98-104.5-8.87-41.69-7.01-84.67-18.36-127.75-33.75l.12-.42c43.06,15.38,86.02,26.73,127.69,33.74,35.02,5.89,70.13,8.87,104.44,8.87,1.67,0,3.34,0,5.01-.02,69.95-.59,125.61-13.15,166.28-24.02,50.92-13.61,89.06-31.64,125.94-49.08,49.03-23.18,95.34-45.08,163.81-51.58,12.9-1.22,25.88-1.84,38.9-1.84,88.36,0,179.25,28.15,270.77,83.94l-.19.39c-104.94-63.97-209.05-91.59-309.45-82.06-68.4,6.49-114.69,28.38-163.69,51.54-36.89,17.44-75.04,35.48-126,49.1-40.69,10.88-96.37,23.44-166.37,24.03-1.67.01-3.34.02-5.01.02Z"/>
      <path class="cls-92" d="M232.25,655.95c-34.33,0-69.45-2.98-104.5-8.87-41.69-7.01-84.67-18.36-127.75-33.75l.12-.42c43.06,15.38,86.02,26.73,127.69,33.74,36.72,6.17,73.54,9.16,109.45,8.85,69.95-.59,125.61-13.15,166.28-24.02,50.92-13.61,89.06-31.64,125.94-49.08,49.03-23.18,95.34-45.08,163.81-51.58,12.9-1.22,25.88-1.84,38.9-1.84,88.36,0,179.25,28.15,270.77,83.94l-.19.39c-104.93-63.97-209.04-91.58-309.45-82.06-68.4,6.49-114.69,28.38-163.69,51.54-36.9,17.44-75.04,35.48-126,49.1-40.69,10.88-96.37,23.44-166.37,24.03-1.67.01-3.34.02-5.02.02Z"/>
      <path class="cls-95" d="M232.25,638.88c-34.33,0-69.45-2.98-104.5-8.87-41.69-7.01-84.67-18.36-127.75-33.75l.12-.42c43.06,15.38,86.02,26.73,127.69,33.74,36.72,6.17,73.54,9.15,109.45,8.85,69.95-.59,125.61-13.15,166.28-24.02,50.92-13.61,89.06-31.64,125.94-49.08,49.03-23.18,95.34-45.08,163.81-51.58,100.49-9.54,204.66,18.09,309.67,82.11l-.19.39c-104.94-63.97-209.05-91.59-309.45-82.06-68.4,6.49-114.69,28.38-163.69,51.54-36.89,17.44-75.04,35.48-126,49.1-40.69,10.88-96.37,23.44-166.37,24.03-1.67.01-3.34.02-5.02.02Z"/>
      <path class="cls-99" d="M232.25,644.57c-34.33,0-69.45-2.98-104.5-8.87-41.69-7.01-84.67-18.36-127.75-33.75l.12-.42c43.06,15.38,86.02,26.73,127.69,33.74,36.72,6.17,73.54,9.16,109.45,8.85,69.95-.59,125.61-13.15,166.28-24.02,50.92-13.61,89.06-31.64,125.94-49.08,49.03-23.18,95.34-45.08,163.81-51.58,12.9-1.22,25.88-1.84,38.9-1.84,88.36,0,179.25,28.15,270.77,83.94l-.19.39c-104.93-63.97-209.04-91.58-309.45-82.06-68.4,6.49-114.69,28.38-163.69,51.54-36.9,17.44-75.04,35.48-126,49.1-40.69,10.88-96.37,23.44-166.37,24.03-1.67.01-3.34.02-5.02.02Z"/>
      <path class="cls-97" d="M232.25,627.51c-34.33,0-69.46-2.98-104.5-8.87-41.69-7.01-84.67-18.36-127.75-33.75l.12-.42c43.06,15.38,86.02,26.73,127.69,33.74,36.72,6.17,73.53,9.15,109.45,8.85,69.95-.59,125.61-13.15,166.28-24.02,50.92-13.61,89.06-31.64,125.94-49.08,49.03-23.18,95.34-45.08,163.81-51.58,12.9-1.22,25.88-1.84,38.9-1.84,88.36,0,179.25,28.15,270.77,83.94l-.19.39c-104.94-63.97-209.05-91.59-309.45-82.06-68.4,6.49-114.69,28.38-163.69,51.54-36.89,17.44-75.04,35.48-126,49.1-40.69,10.88-96.37,23.44-166.37,24.03-1.67.01-3.34.02-5.01.02Z"/>
      <path class="cls-98" d="M232.25,633.2c-34.33,0-69.45-2.98-104.5-8.87-41.69-7.01-84.67-18.36-127.75-33.75l.12-.42c43.06,15.38,86.02,26.73,127.69,33.74,36.72,6.17,73.54,9.16,109.45,8.85,69.95-.59,125.61-13.15,166.28-24.02,50.92-13.61,89.06-31.64,125.94-49.08,49.03-23.18,95.34-45.08,163.81-51.58,12.9-1.22,25.88-1.84,38.9-1.84,88.36,0,179.25,28.15,270.77,83.94l-.19.39c-104.93-63.97-209.04-91.58-309.45-82.06-68.4,6.49-114.69,28.38-163.69,51.54-36.9,17.44-75.04,35.48-126,49.1-40.69,10.88-96.37,23.44-166.37,24.03-1.67.01-3.34.02-5.02.02Z"/>
      <path class="cls-100" d="M232.25,616.13c-34.33,0-69.45-2.98-104.5-8.87-41.69-7.01-84.67-18.36-127.75-33.75l.12-.42c43.06,15.38,86.02,26.73,127.69,33.74,36.72,6.17,73.54,9.16,109.45,8.85,69.95-.59,125.61-13.15,166.28-24.02,50.92-13.61,89.06-31.64,125.94-49.08,49.03-23.18,95.34-45.08,163.81-51.58,100.47-9.54,204.67,18.09,309.67,82.11l-.19.39c-91.45-55.76-182.29-83.89-270.58-83.89-13.02,0-25.97.61-38.87,1.84-68.4,6.49-114.69,28.38-163.69,51.54-36.89,17.44-75.04,35.48-126,49.1-40.69,10.88-96.37,23.44-166.37,24.03-1.67.01-3.34.02-5.02.02Z"/>
      <path class="cls-90" d="M232.25,621.82c-34.33,0-69.45-2.98-104.5-8.87-41.69-7.01-84.67-18.36-127.75-33.75l.12-.42c43.06,15.38,86.02,26.73,127.69,33.74,36.72,6.17,73.54,9.15,109.45,8.85,69.95-.59,125.61-13.15,166.28-24.02,50.92-13.61,89.06-31.64,125.94-49.08,49.03-23.18,95.34-45.08,163.81-51.58,12.9-1.22,25.88-1.84,38.9-1.84,88.36,0,179.25,28.15,270.77,83.94l-.19.39c-104.93-63.97-209.04-91.58-309.45-82.06-68.4,6.49-114.69,28.38-163.69,51.54-36.9,17.44-75.04,35.48-126,49.1-40.69,10.88-96.37,23.44-166.37,24.03-1.67.01-3.34.02-5.02.02Z"/>
      <path class="cls-88" d="M232.25,604.76c-34.33,0-69.46-2.98-104.5-8.87-41.69-7.01-84.67-18.36-127.75-33.75l.12-.42c43.06,15.38,86.02,26.73,127.69,33.74,36.72,6.17,73.53,9.14,109.45,8.85,69.95-.59,125.61-13.15,166.28-24.02,50.92-13.61,89.06-31.64,125.94-49.08,49.03-23.18,95.34-45.08,163.81-51.58,100.47-9.53,204.67,18.09,309.67,82.11l-.19.39c-91.45-55.76-182.29-83.89-270.58-83.89-13.02,0-25.97.61-38.87,1.84-68.4,6.49-114.69,28.38-163.69,51.54-36.89,17.44-75.04,35.48-126,49.1-40.69,10.88-96.37,23.44-166.37,24.03-1.67.01-3.34.02-5.01.02Z"/>
      <path class="cls-89" d="M232.25,610.45c-34.33,0-69.45-2.98-104.5-8.87-41.69-7.01-84.67-18.36-127.75-33.75l.12-.42c43.06,15.38,86.02,26.73,127.69,33.74,36.72,6.17,73.54,9.15,109.45,8.85,69.95-.59,125.61-13.15,166.28-24.02,50.92-13.61,89.06-31.64,125.94-49.08,49.03-23.18,95.34-45.08,163.81-51.58,12.9-1.22,25.88-1.84,38.9-1.84,88.36,0,179.25,28.15,270.77,83.94l-.19.39c-104.93-63.97-209.04-91.58-309.45-82.06-68.4,6.49-114.69,28.38-163.69,51.54-36.9,17.44-75.04,35.48-126,49.1-40.69,10.88-96.37,23.44-166.37,24.03-1.67.01-3.34.02-5.02.02Z"/>
      <path class="cls-87" d="M232.25,593.38c-34.33,0-69.45-2.98-104.5-8.87-41.69-7.01-84.67-18.36-127.75-33.75l.12-.42c43.06,15.38,86.02,26.73,127.69,33.74,36.72,6.17,73.54,9.16,109.45,8.85,69.95-.59,125.61-13.15,166.28-24.02,50.92-13.61,89.06-31.64,125.94-49.08,49.03-23.18,95.34-45.08,163.81-51.58,100.47-9.54,204.67,18.09,309.67,82.11l-.19.39c-91.45-55.76-182.29-83.89-270.58-83.89-13.02,0-25.97.61-38.87,1.84-68.4,6.49-114.69,28.38-163.69,51.54-36.89,17.44-75.04,35.48-126,49.1-40.69,10.88-96.37,23.44-166.37,24.03-1.67.01-3.34.02-5.02.02Z"/>
      <path class="cls-86" d="M232.25,599.07c-34.33,0-69.46-2.98-104.5-8.87-41.69-7.01-84.67-18.36-127.75-33.75l.12-.42c43.06,15.38,86.02,26.73,127.69,33.74,36.72,6.18,73.54,9.17,109.45,8.84,69.96-.59,125.61-13.15,166.28-24.02,50.92-13.61,89.06-31.64,125.94-49.08,49.03-23.18,95.34-45.08,163.81-51.58,12.9-1.22,25.88-1.84,38.9-1.84,88.36,0,179.25,28.15,270.77,83.94l-.19.39c-104.93-63.97-209.04-91.58-309.45-82.06-68.4,6.49-114.69,28.38-163.69,51.54-36.9,17.44-75.04,35.48-126,49.1-40.69,10.88-96.37,23.44-166.37,24.03-1.67.01-3.34.02-5.01.02Z"/>
      <path class="cls-85" d="M232.25,582c-34.33,0-69.46-2.98-104.5-8.87-41.69-7.01-84.67-18.36-127.75-33.75l.12-.42c43.06,15.38,86.02,26.73,127.69,33.74,36.72,6.17,73.53,9.14,109.45,8.85,69.95-.59,125.61-13.15,166.28-24.02,50.92-13.61,89.06-31.64,125.94-49.08,49.03-23.18,95.34-45.08,163.81-51.58,100.47-9.54,204.67,18.09,309.67,82.11l-.19.39c-91.45-55.76-182.29-83.89-270.58-83.89-13.02,0-25.97.61-38.87,1.84-68.4,6.49-114.69,28.38-163.69,51.54-36.89,17.44-75.04,35.48-126,49.1-40.69,10.88-96.37,23.44-166.37,24.03-1.67.01-3.34.02-5.01.02Z"/>
      <path class="cls-109" d="M232.25,587.69c-34.33,0-69.46-2.98-104.5-8.87-41.69-7.01-84.67-18.36-127.75-33.75l.12-.42c43.06,15.38,86.02,26.73,127.69,33.74,36.72,6.17,73.54,9.17,109.45,8.84,69.96-.59,125.61-13.15,166.28-24.02,50.92-13.61,89.06-31.64,125.94-49.08,49.03-23.18,95.34-45.08,163.81-51.58,12.9-1.22,25.88-1.84,38.9-1.84,88.36,0,179.25,28.15,270.77,83.94l-.19.39c-104.93-63.97-209.04-91.58-309.45-82.06-68.4,6.49-114.69,28.38-163.69,51.54-36.9,17.44-75.04,35.48-126,49.1-40.69,10.88-96.37,23.44-166.37,24.03-1.67.01-3.34.02-5.01.02Z"/>
      <path class="cls-110" d="M232.25,570.63c-34.33,0-69.45-2.98-104.5-8.87-41.69-7.01-84.67-18.36-127.75-33.75l.12-.42c43.06,15.38,86.02,26.73,127.69,33.74,36.72,6.17,73.54,9.15,109.45,8.85,69.95-.59,125.61-13.15,166.28-24.02,50.92-13.61,89.06-31.64,125.94-49.08,49.03-23.18,95.34-45.08,163.81-51.58,100.47-9.53,204.67,18.09,309.67,82.11l-.19.39c-91.45-55.76-182.29-83.89-270.58-83.89-13.02,0-25.97.61-38.87,1.84-68.4,6.49-114.69,28.38-163.69,51.54-36.89,17.44-75.04,35.48-126,49.1-40.69,10.88-96.37,23.44-166.37,24.03-1.67.01-3.34.02-5.02.02Z"/>
      <path class="cls-103" d="M232.25,576.32c-34.33,0-69.46-2.98-104.5-8.87-41.69-7.01-84.67-18.36-127.75-33.75l.12-.42c43.06,15.38,86.02,26.73,127.69,33.74,36.72,6.17,73.54,9.17,109.45,8.84,69.96-.59,125.61-13.15,166.28-24.02,50.92-13.61,89.06-31.64,125.94-49.08,49.03-23.18,95.34-45.08,163.81-51.58,12.9-1.22,25.88-1.84,38.9-1.84,88.36,0,179.25,28.15,270.77,83.94l-.19.39c-104.93-63.97-209.04-91.58-309.45-82.06-68.4,6.49-114.69,28.38-163.69,51.54-36.9,17.44-75.04,35.48-126,49.1-40.69,10.88-96.37,23.44-166.37,24.03-1.67.01-3.34.02-5.01.02Z"/>
      <path class="cls-104" d="M232.25,559.25c-34.33,0-69.46-2.98-104.5-8.87-41.69-7.01-84.67-18.36-127.75-33.75l.12-.42c43.06,15.38,86.02,26.73,127.69,33.74,36.72,6.17,73.53,9.14,109.45,8.85,69.95-.59,125.61-13.15,166.28-24.02,50.92-13.61,89.06-31.64,125.94-49.08,49.03-23.18,95.34-45.08,163.81-51.58,100.47-9.54,204.67,18.09,309.67,82.11l-.19.39c-91.45-55.76-182.29-83.89-270.58-83.89-13.02,0-25.97.61-38.87,1.84-68.4,6.49-114.69,28.38-163.69,51.54-36.89,17.44-75.04,35.48-126,49.1-40.69,10.88-96.37,23.44-166.37,24.03-1.67.01-3.34.02-5.01.02Z"/>
      <path class="cls-101" d="M232.25,564.94c-34.33,0-69.46-2.98-104.5-8.87-41.69-7.01-84.67-18.36-127.75-33.75l.12-.42c43.06,15.38,86.02,26.73,127.69,33.74,36.72,6.17,73.54,9.16,109.45,8.84,69.96-.59,125.61-13.15,166.28-24.02,50.92-13.61,89.06-31.64,125.94-49.08,49.03-23.18,95.34-45.08,163.81-51.58,12.9-1.22,25.88-1.84,38.9-1.84,88.36,0,179.25,28.15,270.77,83.94l-.19.39c-104.93-63.97-209.04-91.58-309.45-82.06-68.4,6.49-114.69,28.38-163.69,51.54-36.9,17.44-75.04,35.48-126,49.1-40.69,10.88-96.37,23.44-166.37,24.03-1.67.01-3.34.02-5.01.02Z"/>
      <path class="cls-102" d="M232.25,547.88c-34.33,0-69.45-2.98-104.5-8.87-41.69-7.01-84.67-18.36-127.75-33.75l.12-.42c43.06,15.38,86.02,26.73,127.69,33.74,36.72,6.17,73.54,9.15,109.45,8.85,69.95-.59,125.61-13.15,166.28-24.02,50.92-13.61,89.06-31.64,125.94-49.08,49.03-23.18,95.34-45.08,163.81-51.58,100.47-9.54,204.67,18.09,309.67,82.11l-.19.39c-91.45-55.76-182.29-83.89-270.58-83.89-13.02,0-25.97.61-38.87,1.84-68.4,6.49-114.69,28.38-163.69,51.54-36.89,17.44-75.04,35.48-126,49.1-40.69,10.88-96.37,23.44-166.37,24.03-1.67.01-3.34.02-5.02.02Z"/>
      <path class="cls-107" d="M232.25,553.57c-34.33,0-69.46-2.98-104.5-8.87-41.69-7.01-84.67-18.36-127.75-33.75l.12-.42c43.06,15.38,86.02,26.73,127.69,33.74,35.02,5.89,70.13,8.87,104.44,8.87,1.67,0,3.34,0,5.01-.02,69.96-.59,125.61-13.15,166.28-24.02,50.92-13.61,89.06-31.64,125.94-49.08,49.03-23.18,95.34-45.08,163.81-51.58,12.9-1.22,25.88-1.84,38.9-1.84,88.36,0,179.25,28.15,270.77,83.94l-.19.39c-104.93-63.97-209.04-91.58-309.45-82.06-68.4,6.49-114.69,28.38-163.69,51.54-36.9,17.44-75.04,35.48-126,49.1-40.69,10.88-96.37,23.44-166.37,24.03-1.67.01-3.34.02-5.01.02Z"/>
      <path class="cls-108" d="M232.25,536.5c-34.33,0-69.46-2.98-104.5-8.87-41.69-7.01-84.67-18.36-127.75-33.75l.12-.42c43.06,15.38,86.02,26.73,127.69,33.74,36.72,6.17,73.53,9.14,109.45,8.85,69.95-.59,125.61-13.15,166.28-24.02,50.92-13.61,89.06-31.64,125.94-49.08,49.03-23.18,95.34-45.08,163.81-51.58,100.47-9.54,204.67,18.09,309.67,82.11l-.19.39c-91.45-55.76-182.29-83.89-270.58-83.89-13.02,0-25.97.61-38.87,1.84-68.4,6.49-114.69,28.38-163.69,51.54-36.89,17.44-75.04,35.48-126,49.1-40.69,10.88-96.37,23.44-166.37,24.03-1.67.01-3.34.02-5.01.02Z"/>
      <path class="cls-106" d="M232.25,542.19c-34.33,0-69.46-2.98-104.5-8.87-41.69-7.01-84.67-18.36-127.75-33.75l.12-.42c43.06,15.38,86.02,26.73,127.69,33.74,35.02,5.89,70.13,8.87,104.44,8.87,1.67,0,3.34,0,5.01-.02,69.96-.59,125.61-13.15,166.28-24.02,50.92-13.61,89.06-31.64,125.94-49.08,49.03-23.18,95.34-45.08,163.81-51.58,12.9-1.22,25.88-1.84,38.9-1.84,88.36,0,179.25,28.15,270.77,83.94l-.19.39c-104.93-63.97-209.04-91.58-309.45-82.06-68.4,6.49-114.69,28.38-163.69,51.54-36.9,17.44-75.04,35.48-126,49.1-40.69,10.88-96.37,23.44-166.37,24.03-1.67.01-3.34.02-5.01.02Z"/>
      <path class="cls-105" d="M232.25,525.13c-34.33,0-69.45-2.98-104.5-8.87-41.69-7.01-84.67-18.36-127.75-33.75l.12-.42c43.06,15.38,86.02,26.73,127.69,33.74,36.72,6.17,73.54,9.14,109.45,8.85,69.95-.59,125.61-13.15,166.28-24.02,50.92-13.61,89.06-31.64,125.94-49.08,49.03-23.18,95.34-45.08,163.81-51.58,100.47-9.53,204.67,18.09,309.67,82.11l-.19.39c-91.45-55.76-182.3-83.89-270.59-83.89-13.02,0-25.96.61-38.87,1.84-68.4,6.49-114.69,28.38-163.69,51.54-36.89,17.44-75.04,35.48-126,49.1-40.69,10.88-96.37,23.44-166.37,24.03-1.67.01-3.34.02-5.02.02Z"/>
      <path class="cls-115" d="M232.25,530.81c-34.33,0-69.45-2.98-104.5-8.87-41.69-7.01-84.67-18.36-127.75-33.75l.12-.42c43.06,15.38,86.02,26.73,127.69,33.74,36.72,6.18,73.54,9.16,109.45,8.85,69.95-.59,125.61-13.15,166.28-24.02,50.92-13.61,89.06-31.64,125.94-49.08,49.03-23.18,95.34-45.08,163.81-51.58,12.9-1.22,25.88-1.84,38.9-1.84,88.36,0,179.25,28.15,270.77,83.94l-.19.39c-104.93-63.97-209.04-91.58-309.45-82.06-68.4,6.49-114.69,28.38-163.69,51.54-36.9,17.44-75.04,35.48-126,49.1-40.69,10.88-96.37,23.44-166.37,24.03-1.67.01-3.34.02-5.02.02Z"/>
      <path class="cls-112" d="M232.25,513.75c-34.33,0-69.46-2.98-104.5-8.87-41.69-7.01-84.67-18.36-127.75-33.75l.12-.42c43.06,15.38,86.02,26.73,127.69,33.74,36.72,6.17,73.53,9.13,109.45,8.85,69.95-.59,125.61-13.15,166.28-24.02,50.92-13.61,89.06-31.64,125.94-49.08,49.03-23.18,95.34-45.08,163.81-51.58,100.47-9.54,204.67,18.09,309.67,82.11l-.19.39c-104.94-63.97-209.03-91.58-309.45-82.06-68.4,6.49-114.69,28.38-163.69,51.54-36.9,17.44-75.04,35.48-126,49.1-40.69,10.88-96.37,23.44-166.37,24.03-1.67.01-3.34.02-5.01.02Z"/>
      <path class="cls-113" d="M232.25,519.44c-34.33,0-69.45-2.98-104.5-8.87-41.69-7.01-84.67-18.36-127.75-33.75l.12-.42c43.06,15.38,86.02,26.73,127.69,33.74,35.02,5.89,70.13,8.87,104.44,8.87,1.67,0,3.34,0,5.01-.02,69.95-.59,125.61-13.15,166.28-24.02,50.92-13.61,89.06-31.64,125.94-49.08,49.03-23.18,95.34-45.08,163.81-51.58,12.9-1.22,25.88-1.84,38.9-1.84,88.36,0,179.25,28.15,270.77,83.94l-.19.39c-104.93-63.97-209.04-91.58-309.45-82.06-68.4,6.49-114.69,28.38-163.69,51.54-36.89,17.44-75.04,35.48-126,49.1-40.69,10.88-96.37,23.44-166.37,24.03-1.67.01-3.34.02-5.02.02Z"/>
      <path class="cls-114" d="M232.25,502.37c-34.33,0-69.45-2.98-104.5-8.87-41.69-7.01-84.67-18.36-127.75-33.75l.12-.42c43.06,15.38,86.02,26.73,127.69,33.74,36.72,6.17,73.54,9.16,109.45,8.85,69.95-.59,125.61-13.15,166.28-24.02,50.92-13.61,89.06-31.64,125.94-49.08,49.03-23.18,95.34-45.08,163.81-51.58,12.9-1.22,25.88-1.84,38.9-1.84,88.36,0,179.25,28.15,270.77,83.94l-.19.39c-104.93-63.97-209.04-91.58-309.45-82.06-68.4,6.49-114.69,28.38-163.69,51.54-36.9,17.44-75.04,35.48-126,49.1-40.69,10.88-96.37,23.44-166.37,24.03-1.67.01-3.34.02-5.02.02Z"/>
      <path class="cls-118" d="M232.25,508.06c-34.33,0-69.45-2.98-104.5-8.87-41.69-7.01-84.67-18.36-127.75-33.75l.12-.42c43.06,15.38,86.02,26.73,127.69,33.74,36.72,6.17,73.53,9.15,109.45,8.85,69.95-.59,125.61-13.15,166.28-24.02,50.92-13.61,89.06-31.64,125.94-49.08,49.03-23.18,95.34-45.08,163.81-51.58,12.9-1.22,25.88-1.84,38.9-1.84,88.36,0,179.25,28.15,270.77,83.94l-.19.39c-104.93-63.97-209.04-91.58-309.45-82.06-68.4,6.49-114.69,28.38-163.69,51.54-36.89,17.44-75.04,35.48-126,49.1-40.69,10.88-96.37,23.44-166.37,24.03-1.67.01-3.34.02-5.02.02Z"/>
      <path class="cls-119" d="M232.25,491c-34.33,0-69.45-2.98-104.5-8.87-41.69-7.01-84.67-18.36-127.75-33.75l.12-.42c43.06,15.38,86.02,26.73,127.69,33.74,36.72,6.17,73.54,9.16,109.45,8.85,69.95-.59,125.61-13.15,166.28-24.02,50.92-13.61,89.06-31.64,125.94-49.08,49.03-23.18,95.34-45.08,163.81-51.58,12.9-1.22,25.88-1.84,38.9-1.84,88.36,0,179.25,28.15,270.77,83.94l-.19.39c-104.93-63.97-209.04-91.58-309.45-82.06-68.4,6.49-114.69,28.38-163.69,51.54-36.9,17.44-75.04,35.48-126,49.1-40.69,10.88-96.37,23.44-166.37,24.03-1.67.01-3.34.02-5.02.02Z"/>
      <path class="cls-116" d="M232.25,496.69c-34.33,0-69.45-2.98-104.5-8.87-41.69-7.01-84.67-18.36-127.75-33.75l.12-.42c43.06,15.38,86.02,26.73,127.69,33.74,36.72,6.17,73.53,9.14,109.45,8.85,69.95-.59,125.61-13.15,166.28-24.02,50.92-13.61,89.06-31.64,125.94-49.08,49.03-23.18,95.34-45.08,163.81-51.58,12.9-1.22,25.88-1.84,38.9-1.84,88.36,0,179.25,28.15,270.77,83.94l-.19.39c-104.93-63.97-209.04-91.58-309.45-82.06-68.4,6.49-114.69,28.38-163.69,51.54-36.89,17.44-75.04,35.48-126,49.1-40.69,10.88-96.37,23.44-166.37,24.03-1.67.01-3.34.02-5.02.02Z"/>
      <path class="cls-117" d="M232.25,843.65c-34.33,0-69.45-2.98-104.5-8.87-41.69-7.01-84.67-18.36-127.75-33.75l.12-.42c43.06,15.38,86.02,26.73,127.69,33.74,36.72,6.17,73.54,9.14,109.45,8.85,69.95-.59,125.61-13.15,166.28-24.02,50.92-13.61,89.06-31.64,125.94-49.08,49.03-23.18,95.34-45.08,163.81-51.58,12.9-1.22,25.88-1.84,38.9-1.84,88.36,0,179.25,28.15,270.77,83.94l-.19.39c-104.93-63.97-209.04-91.58-309.45-82.06-68.4,6.49-114.69,28.38-163.69,51.54-36.9,17.44-75.04,35.48-126,49.1-40.69,10.88-96.37,23.44-166.37,24.03-1.67.01-3.34.02-5.02.02Z"/>
      <path class="cls-111" d="M232.25,849.34c-34.33,0-69.45-2.98-104.5-8.87-41.69-7.01-84.67-18.36-127.75-33.75l.12-.42c43.06,15.38,86.02,26.73,127.69,33.74,36.72,6.17,73.53,9.13,109.45,8.85,69.95-.59,125.61-13.15,166.28-24.02,50.92-13.61,89.06-31.64,125.94-49.08,49.03-23.18,95.34-45.08,163.81-51.58,12.9-1.22,25.88-1.84,38.9-1.84,88.36,0,179.25,28.15,270.77,83.94l-.19.39c-104.93-63.97-209.04-91.58-309.45-82.06-68.4,6.49-114.69,28.38-163.69,51.54-36.89,17.44-75.04,35.48-126,49.1-40.69,10.88-96.37,23.44-166.37,24.03-1.67.01-3.34.02-5.02.02Z"/>
      <path class="cls-120" d="M232.25,832.27c-34.33,0-69.45-2.98-104.5-8.87-41.69-7.01-84.67-18.36-127.75-33.75l.12-.42c43.06,15.38,86.02,26.73,127.69,33.74,36.72,6.17,73.54,9.16,109.45,8.85,69.95-.59,125.61-13.15,166.28-24.02,50.92-13.61,89.06-31.64,125.94-49.08,49.03-23.18,95.34-45.08,163.81-51.58,12.9-1.22,25.88-1.84,38.9-1.84,88.36,0,179.25,28.15,270.77,83.94l-.19.39c-104.93-63.97-209.04-91.58-309.45-82.06-68.4,6.49-114.69,28.38-163.69,51.54-36.9,17.44-75.04,35.48-126,49.1-40.69,10.88-96.37,23.44-166.37,24.03-1.67.01-3.34.02-5.02.02Z"/>
      <path class="cls-5" d="M232.25,837.96c-34.33,0-69.45-2.98-104.5-8.87-41.69-7.01-84.67-18.36-127.75-33.75l.12-.42c43.06,15.38,86.02,26.73,127.69,33.74,36.72,6.17,73.53,9.13,109.45,8.85,69.95-.59,125.61-13.15,166.28-24.02,50.92-13.61,89.06-31.64,125.94-49.08,49.03-23.18,95.34-45.08,163.81-51.58,100.49-9.54,204.66,18.09,309.67,82.11l-.19.39c-104.94-63.97-209.05-91.58-309.45-82.06-68.4,6.49-114.69,28.38-163.69,51.54-36.89,17.44-75.04,35.48-126,49.1-40.69,10.88-96.37,23.44-166.37,24.03-1.67.01-3.34.02-5.02.02Z"/>
      <path class="cls-6" d="M232.25,820.9c-34.33,0-69.45-2.98-104.5-8.87-41.69-7.01-84.67-18.36-127.75-33.75l.12-.42c43.06,15.38,86.02,26.73,127.69,33.74,36.72,6.17,73.54,9.16,109.45,8.85,69.95-.59,125.61-13.15,166.28-24.02,50.92-13.61,89.06-31.64,125.94-49.08,49.03-23.18,95.34-45.08,163.81-51.58,12.9-1.22,25.88-1.84,38.9-1.84,88.36,0,179.25,28.15,270.77,83.94l-.19.39c-104.93-63.97-209.04-91.58-309.45-82.06-68.4,6.49-114.69,28.38-163.69,51.54-36.9,17.44-75.04,35.48-126,49.1-40.69,10.88-96.37,23.44-166.37,24.03-1.67.01-3.34.02-5.02.02Z"/>
      <path class="cls-14" d="M232.25,826.59c-34.33,0-69.46-2.98-104.5-8.87-41.69-7.01-84.67-18.36-127.75-33.75l.12-.42c43.06,15.38,86.02,26.73,127.69,33.74,36.72,6.17,73.53,9.13,109.45,8.85,69.95-.59,125.61-13.15,166.28-24.02,50.92-13.61,89.06-31.64,125.94-49.08,49.03-23.18,95.34-45.08,163.81-51.58,12.9-1.22,25.88-1.84,38.9-1.84,88.36,0,179.25,28.15,270.77,83.94l-.19.39c-104.94-63.97-209.05-91.58-309.45-82.06-68.4,6.49-114.69,28.38-163.69,51.54-36.89,17.44-75.04,35.48-126,49.1-40.69,10.88-96.37,23.44-166.37,24.03-1.67.01-3.34.02-5.01.02Z"/>
      <path class="cls-16" d="M232.25,809.52c-34.33,0-69.45-2.98-104.5-8.87-41.69-7.01-84.67-18.36-127.75-33.75l.12-.42c43.06,15.38,86.02,26.73,127.69,33.74,36.72,6.17,73.54,9.16,109.45,8.85,69.95-.59,125.61-13.15,166.28-24.02,50.92-13.61,89.06-31.64,125.94-49.08,49.03-23.18,95.34-45.08,163.81-51.58,12.9-1.22,25.88-1.84,38.9-1.84,88.36,0,179.25,28.15,270.77,83.94l-.19.39c-104.93-63.97-209.04-91.58-309.45-82.06-68.4,6.49-114.69,28.38-163.69,51.54-36.9,17.44-75.04,35.48-126,49.1-40.69,10.88-96.37,23.44-166.37,24.03-1.67.01-3.34.02-5.02.02Z"/>
      <path class="cls-15" d="M232.25,815.21c-34.33,0-69.45-2.98-104.5-8.87-41.69-7.01-84.67-18.36-127.75-33.75l.12-.42c43.06,15.38,86.02,26.73,127.69,33.74,36.72,6.18,73.54,9.15,109.45,8.85,69.95-.59,125.61-13.15,166.28-24.02,50.92-13.61,89.06-31.64,125.94-49.08,49.03-23.18,95.34-45.08,163.81-51.58,100.49-9.54,204.66,18.09,309.67,82.11l-.19.39c-104.94-63.97-209.05-91.58-309.45-82.06-68.4,6.49-114.69,28.38-163.69,51.54-36.89,17.44-75.04,35.48-126,49.1-40.69,10.88-96.37,23.44-166.37,24.03-1.67.01-3.34.02-5.02.02Z"/>
      <path class="cls-17" d="M232.25,798.15c-34.33,0-69.45-2.98-104.5-8.87-41.69-7.01-84.67-18.36-127.75-33.75l.12-.42c43.06,15.38,86.02,26.73,127.69,33.74,36.72,6.17,73.54,9.16,109.45,8.85,69.95-.59,125.61-13.15,166.28-24.02,50.92-13.61,89.06-31.64,125.94-49.08,49.03-23.18,95.34-45.08,163.81-51.58,12.9-1.22,25.88-1.84,38.9-1.84,88.36,0,179.25,28.15,270.77,83.94l-.19.39c-104.93-63.97-209.04-91.58-309.45-82.06-68.4,6.49-114.69,28.38-163.69,51.54-36.9,17.44-75.04,35.48-126,49.1-40.69,10.88-96.37,23.44-166.37,24.03-1.67.01-3.34.02-5.02.02Z"/>
      <path class="cls-12" d="M232.25,803.83c-34.33,0-69.46-2.98-104.5-8.87-41.69-7.01-84.67-18.36-127.75-33.75l.12-.42c43.06,15.38,86.02,26.73,127.69,33.74,35.02,5.89,70.13,8.87,104.44,8.87,1.67,0,3.34,0,5.01-.02,69.95-.59,125.61-13.15,166.28-24.02,50.92-13.61,89.06-31.64,125.94-49.08,49.03-23.18,95.34-45.08,163.81-51.58,100.47-9.54,204.67,18.09,309.67,82.11l-.19.39c-91.45-55.76-182.29-83.89-270.58-83.89-13.02,0-25.97.61-38.87,1.84-68.4,6.49-114.69,28.38-163.69,51.54-36.89,17.44-75.04,35.48-126,49.1-40.69,10.88-96.37,23.44-166.37,24.03-1.67.01-3.34.02-5.01.02Z"/>
      <path class="cls-13" d="M232.25,786.77c-34.33,0-69.45-2.98-104.5-8.87-41.69-7.01-84.67-18.36-127.75-33.75l.12-.42c43.06,15.38,86.02,26.73,127.69,33.74,36.72,6.17,73.54,9.15,109.45,8.85,69.95-.59,125.61-13.15,166.28-24.02,50.92-13.61,89.06-31.64,125.94-49.08,49.03-23.18,95.34-45.08,163.81-51.58,12.9-1.22,25.88-1.84,38.9-1.84,88.36,0,179.25,28.15,270.77,83.94l-.19.39c-104.93-63.97-209.04-91.58-309.45-82.06-68.4,6.49-114.69,28.38-163.69,51.54-36.9,17.44-75.04,35.48-126,49.1-40.69,10.88-96.37,23.44-166.37,24.03-1.67.01-3.34.02-5.02.02Z"/>
      <path class="cls-11" d="M232.25,792.46c-34.33,0-69.45-2.98-104.5-8.87-41.69-7.01-84.67-18.36-127.75-33.75l.12-.42c43.06,15.38,86.02,26.73,127.69,33.74,36.72,6.17,73.54,9.14,109.45,8.85,69.95-.59,125.61-13.15,166.28-24.02,50.92-13.61,89.06-31.64,125.94-49.08,49.03-23.18,95.34-45.08,163.81-51.58,100.47-9.54,204.67,18.09,309.67,82.11l-.19.39c-91.45-55.76-182.29-83.89-270.58-83.89-13.02,0-25.97.61-38.87,1.84-68.4,6.49-114.69,28.38-163.69,51.54-36.89,17.44-75.04,35.48-126,49.1-40.69,10.88-96.37,23.44-166.37,24.03-1.67.01-3.34.02-5.02.02Z"/>
      <path class="cls-10" d="M232.25,775.4c-34.33,0-69.46-2.98-104.5-8.87-41.69-7.01-84.67-18.36-127.75-33.75l.12-.42c43.06,15.38,86.02,26.73,127.69,33.74,36.72,6.17,73.54,9.17,109.45,8.84,69.96-.59,125.61-13.15,166.28-24.02,50.92-13.61,89.06-31.64,125.94-49.08,49.03-23.18,95.34-45.08,163.81-51.58,12.9-1.22,25.88-1.84,38.9-1.84,88.36,0,179.25,28.15,270.77,83.94l-.19.39c-104.93-63.97-209.04-91.58-309.45-82.06-68.4,6.49-114.69,28.38-163.69,51.54-36.9,17.44-75.04,35.48-126,49.1-40.69,10.88-96.37,23.44-166.37,24.03-1.67.01-3.34.02-5.01.02Z"/>
      <path class="cls-24" d="M232.25,781.08c-34.33,0-69.46-2.98-104.5-8.87-41.69-7.01-84.67-18.36-127.75-33.75l.12-.42c43.06,15.38,86.02,26.73,127.69,33.74,35.02,5.89,70.13,8.87,104.44,8.87,1.67,0,3.34,0,5.01-.02,69.95-.59,125.61-13.15,166.28-24.02,50.92-13.61,89.06-31.64,125.94-49.08,49.03-23.18,95.34-45.08,163.81-51.58,100.47-9.54,204.67,18.09,309.67,82.11l-.19.39c-91.45-55.76-182.29-83.89-270.58-83.89-13.02,0-25.97.61-38.87,1.84-68.4,6.49-114.69,28.38-163.69,51.54-36.89,17.44-75.04,35.48-126,49.1-40.69,10.88-96.37,23.44-166.37,24.03-1.67.01-3.34.02-5.01.02Z"/>
      <path class="cls-20" d="M232.25,764.02c-34.33,0-69.46-2.98-104.5-8.87-41.69-7.01-84.67-18.36-127.75-33.75l.12-.42c43.06,15.38,86.02,26.73,127.69,33.74,36.72,6.18,73.54,9.17,109.45,8.84,69.96-.59,125.61-13.15,166.28-24.02,50.92-13.61,89.06-31.64,125.94-49.08,49.03-23.18,95.34-45.08,163.81-51.58,12.9-1.22,25.88-1.84,38.9-1.84,88.36,0,179.25,28.15,270.77,83.94l-.19.39c-104.93-63.97-209.04-91.58-309.45-82.06-68.4,6.49-114.69,28.38-163.69,51.54-36.9,17.44-75.04,35.48-126,49.1-40.69,10.88-96.37,23.44-166.37,24.03-1.67.01-3.34.02-5.01.02Z"/>
      <path class="cls-21" d="M232.25,769.71c-34.33,0-69.45-2.98-104.5-8.87-41.69-7.01-84.67-18.36-127.75-33.75l.12-.42c43.06,15.38,86.02,26.73,127.69,33.74,36.72,6.17,73.54,9.16,109.45,8.85,69.95-.59,125.61-13.15,166.28-24.02,50.92-13.61,89.06-31.64,125.94-49.08,49.03-23.18,95.34-45.08,163.81-51.58,100.47-9.54,204.67,18.09,309.67,82.11l-.19.39c-91.45-55.76-182.29-83.89-270.58-83.89-13.02,0-25.97.61-38.87,1.84-68.4,6.49-114.69,28.38-163.69,51.54-36.89,17.44-75.04,35.48-126,49.1-40.69,10.88-96.37,23.44-166.37,24.03-1.67.01-3.34.02-5.02.02Z"/>
      <path class="cls-25" d="M232.25,752.64c-34.33,0-69.46-2.98-104.5-8.87-41.69-7.01-84.67-18.36-127.75-33.75l.12-.42c43.06,15.38,86.02,26.73,127.69,33.74,36.72,6.17,73.54,9.17,109.45,8.84,69.96-.59,125.61-13.15,166.28-24.02,50.92-13.61,89.06-31.64,125.94-49.08,49.03-23.18,95.34-45.08,163.81-51.58,12.9-1.22,25.88-1.84,38.9-1.84,88.36,0,179.25,28.15,270.77,83.94l-.19.39c-104.93-63.97-209.04-91.58-309.45-82.06-68.4,6.49-114.69,28.38-163.69,51.54-36.9,17.44-75.04,35.48-126,49.1-40.69,10.88-96.37,23.44-166.37,24.03-1.67.01-3.34.02-5.01.02Z"/>
      <path class="cls-26" d="M232.25,758.33c-34.33,0-69.46-2.98-104.5-8.87-41.69-7.01-84.67-18.36-127.75-33.75l.12-.42c43.06,15.38,86.02,26.73,127.69,33.74,35.02,5.89,70.13,8.87,104.44,8.87,1.67,0,3.34,0,5.01-.02,69.95-.59,125.61-13.15,166.28-24.02,50.92-13.61,89.06-31.64,125.94-49.08,49.03-23.18,95.34-45.08,163.81-51.58,100.47-9.53,204.67,18.09,309.67,82.11l-.19.39c-91.45-55.76-182.29-83.89-270.58-83.89-13.02,0-25.97.61-38.87,1.84-68.4,6.49-114.69,28.38-163.69,51.54-36.89,17.44-75.04,35.48-126,49.1-40.69,10.88-96.37,23.44-166.37,24.03-1.67.01-3.34.02-5.01.02Z"/>
      <path class="cls-27" d="M232.25,741.27c-34.33,0-69.46-2.98-104.5-8.87-41.69-7.01-84.67-18.36-127.75-33.75l.12-.42c43.06,15.38,86.02,26.73,127.69,33.74,36.72,6.17,73.54,9.17,109.45,8.84,69.96-.59,125.61-13.15,166.28-24.02,50.92-13.61,89.06-31.64,125.94-49.08,49.03-23.18,95.34-45.08,163.81-51.58,12.9-1.22,25.88-1.84,38.9-1.84,88.36,0,179.25,28.15,270.77,83.94l-.19.39c-104.93-63.97-209.04-91.58-309.45-82.06-68.4,6.49-114.69,28.38-163.69,51.54-36.9,17.44-75.04,35.48-126,49.1-40.69,10.88-96.37,23.44-166.37,24.03-1.67.01-3.34.02-5.01.02Z"/>
      <path class="cls-28" d="M232.25,746.96c-34.33,0-69.45-2.98-104.5-8.87-41.69-7.01-84.67-18.36-127.75-33.75l.12-.42c43.06,15.38,86.02,26.73,127.69,33.74,36.72,6.17,73.54,9.16,109.45,8.85,69.95-.59,125.61-13.15,166.28-24.02,50.92-13.61,89.06-31.64,125.94-49.08,49.03-23.18,95.34-45.08,163.81-51.58,100.47-9.54,204.67,18.09,309.67,82.11l-.19.39c-91.45-55.76-182.29-83.89-270.58-83.89-13.02,0-25.97.61-38.87,1.84-68.4,6.49-114.69,28.38-163.69,51.54-36.89,17.44-75.04,35.48-126,49.1-40.69,10.88-96.37,23.44-166.37,24.03-1.67.01-3.34.02-5.02.02Z"/>
      <path class="cls-18" d="M232.25,729.89c-34.33,0-69.46-2.98-104.5-8.87-41.69-7.01-84.67-18.36-127.75-33.75l.12-.42c43.06,15.38,86.02,26.73,127.69,33.74,36.72,6.17,73.54,9.16,109.45,8.84,69.96-.59,125.61-13.15,166.28-24.02,50.92-13.61,89.06-31.64,125.94-49.08,49.03-23.18,95.34-45.08,163.81-51.58,12.9-1.22,25.88-1.84,38.9-1.84,88.36,0,179.25,28.15,270.77,83.94l-.19.39c-104.93-63.97-209.04-91.58-309.45-82.06-68.4,6.49-114.69,28.38-163.69,51.54-36.9,17.44-75.04,35.48-126,49.1-40.69,10.88-96.37,23.44-166.37,24.03-1.67.01-3.34.02-5.01.02Z"/>
      <path class="cls-19" d="M232.25,735.58c-34.33,0-69.46-2.98-104.5-8.87-41.69-7.01-84.67-18.36-127.75-33.75l.12-.42c43.06,15.38,86.02,26.73,127.69,33.74,36.72,6.17,73.53,9.15,109.45,8.85,69.95-.59,125.61-13.15,166.28-24.02,50.92-13.61,89.06-31.64,125.94-49.08,49.03-23.18,95.34-45.08,163.81-51.58,100.47-9.54,204.67,18.09,309.67,82.11l-.19.39c-91.45-55.76-182.29-83.89-270.58-83.89-13.02,0-25.97.61-38.87,1.84-68.4,6.49-114.69,28.38-163.69,51.54-36.89,17.44-75.04,35.48-126,49.1-40.69,10.88-96.37,23.44-166.37,24.03-1.67.01-3.34.02-5.01.02Z"/>
      <path class="cls-29" d="M232.25,718.52c-34.33,0-69.46-2.98-104.5-8.87-41.69-7.01-84.67-18.36-127.75-33.75l.12-.42c43.06,15.38,86.02,26.73,127.69,33.74,36.72,6.17,73.53,9.13,109.45,8.85,69.95-.59,125.61-13.15,166.28-24.02,50.92-13.61,89.06-31.64,125.94-49.08,49.03-23.18,95.34-45.08,163.81-51.58,12.9-1.22,25.88-1.84,38.9-1.84,88.36,0,179.25,28.15,270.77,83.94l-.19.39c-104.93-63.97-209.04-91.58-309.45-82.06-68.4,6.49-114.69,28.38-163.69,51.54-36.9,17.44-75.04,35.48-126,49.1-40.69,10.88-96.37,23.44-166.37,24.03-1.67.01-3.34.02-5.01.02Z"/>
      <path class="cls-1" d="M232.25,724.2c-34.33,0-69.45-2.98-104.5-8.87-41.69-7.01-84.67-18.36-127.75-33.75l.12-.42c43.06,15.38,86.02,26.73,127.69,33.74,36.72,6.17,73.54,9.15,109.45,8.85,69.95-.59,125.61-13.15,166.28-24.02,50.92-13.61,89.06-31.64,125.94-49.08,49.03-23.18,95.34-45.08,163.81-51.58,100.47-9.53,204.67,18.09,309.67,82.11l-.19.39c-91.45-55.76-182.29-83.89-270.58-83.89-13.02,0-25.97.61-38.87,1.84-68.4,6.49-114.69,28.38-163.69,51.54-36.89,17.44-75.04,35.48-126,49.1-40.69,10.88-96.37,23.44-166.37,24.03-1.67.01-3.34.02-5.02.02Z"/>
      <path class="cls-8" d="M232.25,707.14c-34.33,0-69.45-2.98-104.5-8.87-41.69-7.01-84.67-18.36-127.75-33.75l.12-.42c43.06,15.38,86.02,26.73,127.69,33.74,36.72,6.18,73.54,9.16,109.45,8.85,69.95-.59,125.61-13.15,166.28-24.02,50.92-13.61,89.06-31.64,125.94-49.08,49.03-23.18,95.34-45.08,163.81-51.58,12.9-1.22,25.88-1.84,38.9-1.84,88.36,0,179.25,28.15,270.77,83.94l-.19.39c-104.93-63.97-209.04-91.58-309.45-82.06-68.4,6.49-114.69,28.38-163.69,51.54-36.9,17.44-75.04,35.48-126,49.1-40.69,10.88-96.37,23.44-166.37,24.03-1.67.01-3.34.02-5.02.02Z"/>
      <path class="cls-9" d="M232.25,712.83c-34.33,0-69.46-2.98-104.5-8.87-41.69-7.01-84.67-18.36-127.75-33.75l.12-.42c43.06,15.38,86.02,26.73,127.69,33.74,36.72,6.17,73.53,9.14,109.45,8.85,69.95-.59,125.61-13.15,166.28-24.02,50.92-13.61,89.06-31.64,125.94-49.08,49.03-23.18,95.34-45.08,163.81-51.58,100.47-9.54,204.67,18.09,309.67,82.11l-.19.39c-91.45-55.76-182.29-83.89-270.58-83.89-13.02,0-25.97.61-38.87,1.84-68.4,6.49-114.69,28.38-163.69,51.54-36.89,17.44-75.04,35.48-126,49.1-40.69,10.88-96.37,23.44-166.37,24.03-1.67.01-3.34.02-5.01.02Z"/>
      <path class="cls-7" d="M232.25,695.76c-34.33,0-69.45-2.98-104.5-8.87-41.69-7.01-84.67-18.36-127.75-33.75l.12-.42c43.06,15.38,86.02,26.73,127.69,33.74,35.02,5.89,70.13,8.87,104.44,8.87,1.67,0,3.34,0,5.01-.02,69.95-.59,125.61-13.15,166.28-24.02,50.92-13.61,89.06-31.64,125.94-49.08,49.03-23.18,95.34-45.08,163.81-51.58,12.9-1.22,25.88-1.84,38.9-1.84,88.36,0,179.25,28.15,270.77,83.94l-.19.39c-104.93-63.97-209.04-91.58-309.45-82.06-68.4,6.49-114.69,28.38-163.69,51.54-36.89,17.44-75.04,35.48-126,49.1-40.69,10.88-96.37,23.44-166.37,24.03-1.67.01-3.34.02-5.02.02Z"/>
      <path class="cls-3" d="M232.25,701.45c-34.33,0-69.45-2.98-104.5-8.87-41.69-7.01-84.67-18.36-127.75-33.75l.12-.42c43.06,15.38,86.02,26.73,127.69,33.74,36.72,6.18,73.54,9.15,109.45,8.85,69.95-.59,125.61-13.15,166.28-24.02,50.92-13.61,89.06-31.64,125.94-49.08,49.03-23.18,95.34-45.08,163.81-51.58,100.47-9.54,204.67,18.09,309.67,82.11l-.19.39c-91.45-55.76-182.3-83.89-270.59-83.89-13.02,0-25.96.61-38.87,1.84-68.4,6.49-114.69,28.38-163.69,51.54-36.9,17.44-75.04,35.48-126,49.1-40.69,10.88-96.37,23.44-166.37,24.03-1.67.01-3.34.02-5.02.02Z"/>
      <path class="cls-2" d="M232.25,684.39c-34.33,0-69.45-2.98-104.5-8.87-41.69-7.01-84.67-18.36-127.75-33.75l.12-.42c43.06,15.38,86.02,26.73,127.69,33.74,35.02,5.89,70.13,8.87,104.44,8.87,1.67,0,3.34,0,5.01-.02,69.95-.59,125.61-13.15,166.28-24.02,50.92-13.61,89.06-31.64,125.94-49.08,49.03-23.18,95.34-45.08,163.81-51.58,12.9-1.22,25.88-1.84,38.9-1.84,88.36,0,179.25,28.15,270.77,83.94l-.19.39c-104.93-63.97-209.04-91.58-309.45-82.06-68.4,6.49-114.69,28.38-163.69,51.54-36.89,17.44-75.04,35.48-126,49.1-40.69,10.88-96.37,23.44-166.37,24.03-1.67.01-3.34.02-5.02.02Z"/>
      <path class="cls-4" d="M232.25,690.08c-34.33,0-69.46-2.98-104.5-8.87-41.69-7.01-84.67-18.36-127.75-33.75l.12-.42c43.06,15.38,86.02,26.73,127.69,33.74,36.72,6.17,73.53,9.14,109.45,8.85,69.95-.59,125.61-13.15,166.28-24.02,50.92-13.61,89.06-31.64,125.94-49.08,49.03-23.18,95.34-45.08,163.81-51.58,100.47-9.54,204.67,18.09,309.67,82.11l-.19.39c-104.94-63.98-209.03-91.58-309.45-82.06-68.4,6.49-114.69,28.38-163.69,51.54-36.9,17.44-75.04,35.48-126,49.1-40.69,10.88-96.37,23.44-166.37,24.03-1.67.01-3.34.02-5.01.02Z"/>
      <path class="cls-22" d="M232.25,673.01c-34.33,0-69.45-2.98-104.5-8.87-41.69-7.01-84.67-18.36-127.75-33.75l.12-.42c43.06,15.38,86.02,26.73,127.69,33.74,35.02,5.89,70.13,8.87,104.44,8.87,1.67,0,3.34,0,5.01-.02,69.95-.59,125.61-13.15,166.28-24.02,50.92-13.61,89.06-31.64,125.94-49.08,49.03-23.18,95.34-45.08,163.81-51.58,12.9-1.22,25.88-1.84,38.9-1.84,88.36,0,179.25,28.15,270.77,83.94l-.19.39c-104.93-63.97-209.04-91.58-309.45-82.06-68.4,6.49-114.69,28.38-163.69,51.54-36.89,17.44-75.04,35.48-126,49.1-40.69,10.88-96.37,23.44-166.37,24.03-1.67.01-3.34.02-5.02.02Z"/>
      <path class="cls-23" d="M232.25,678.7c-34.33,0-69.45-2.98-104.5-8.87-41.69-7.01-84.67-18.36-127.75-33.75l.12-.42c43.06,15.38,86.02,26.73,127.69,33.74,36.72,6.17,73.54,9.14,109.45,8.85,69.95-.59,125.61-13.15,166.28-24.02,50.92-13.61,89.06-31.64,125.94-49.08,49.03-23.18,95.34-45.08,163.81-51.58,12.9-1.22,25.88-1.84,38.9-1.84,88.36,0,179.25,28.15,270.77,83.94l-.19.39c-104.93-63.97-209.04-91.58-309.45-82.06-68.4,6.49-114.69,28.38-163.69,51.54-36.9,17.44-75.04,35.48-126,49.1-40.69,10.88-96.37,23.44-166.37,24.03-1.67.01-3.34.02-5.02.02Z"/>
    </g>
  </g>
</svg>