<svg width="46" height="40" viewBox="0 0 46 40" fill="none" xmlns="http://www.w3.org/2000/svg">
<path d="M12.666 0H34.5709H44.0948C44.0948 5.71429 40.2852 9.52381 34.5709 9.52381H3.14208C3.14208 3.80952 6.95163 0 12.666 0Z" fill="white" style="fill:white;fill:white;fill-opacity:1;"/>
<path d="M3.14208 15.2381H33.6185C40.2852 15.2381 45.0471 20 45.0471 26.6667V28.5714C45.0471 35.2381 40.2852 40 33.6185 40H0.284912C0.284912 34.2857 4.09446 30.4762 9.80879 30.4762H33.8566C34.7756 30.4762 35.5233 29.7286 35.5233 28.8095V26.4286C35.5233 25.5095 34.7756 24.7619 33.8566 24.7619H12.666C6.95163 24.7619 3.14208 20.9524 3.14208 15.2381Z" fill="white" style="fill:white;fill:white;fill-opacity:1;"/>
</svg>
