<svg width="139" height="32" viewBox="0 0 139 32" fill="none" xmlns="http://www.w3.org/2000/svg">
<rect x="0.278259" y="0.928223" width="138.705" height="30.688" rx="15.344" fill="#B9F7B3"/>
<path d="M16.499 15.0837H14.579V13.9797C15.139 13.9797 15.587 13.8757 15.923 13.6677C16.259 13.4517 16.507 13.1157 16.667 12.6597H17.867V20.9397H16.499V15.0837ZM22.812 21.0837C21.812 21.0837 21.044 20.7077 20.508 19.9557C19.98 19.1957 19.716 18.1437 19.716 16.7997C19.716 15.4557 19.98 14.4077 20.508 13.6557C21.044 12.8957 21.812 12.5157 22.812 12.5157C23.82 12.5157 24.588 12.8957 25.116 13.6557C25.644 14.4077 25.908 15.4557 25.908 16.7997C25.908 18.1437 25.644 19.1957 25.116 19.9557C24.588 20.7077 23.82 21.0837 22.812 21.0837ZM22.812 19.9077C23.38 19.9077 23.796 19.6477 24.06 19.1277C24.332 18.6077 24.468 17.8317 24.468 16.7997C24.468 15.7677 24.332 14.9917 24.06 14.4717C23.796 13.9517 23.38 13.6917 22.812 13.6917C22.244 13.6917 21.824 13.9557 21.552 14.4837C21.28 15.0037 21.144 15.7757 21.144 16.7997C21.144 17.8237 21.28 18.5997 21.552 19.1277C21.824 19.6477 22.244 19.9077 22.812 19.9077ZM34.1285 12.7197H35.3765L30.4565 20.9397H29.2085L34.1285 12.7197ZM29.1125 17.3157C28.4645 17.3157 27.9565 17.1077 27.5885 16.6917C27.2285 16.2677 27.0485 15.6797 27.0485 14.9277C27.0485 14.1757 27.2285 13.5917 27.5885 13.1757C27.9565 12.7517 28.4645 12.5397 29.1125 12.5397C29.7685 12.5397 30.2765 12.7517 30.6365 13.1757C31.0045 13.5917 31.1885 14.1757 31.1885 14.9277C31.1885 15.6797 31.0045 16.2677 30.6365 16.6917C30.2765 17.1077 29.7685 17.3157 29.1125 17.3157ZM29.1125 16.3917C29.4005 16.3917 29.6205 16.2677 29.7725 16.0197C29.9245 15.7637 30.0005 15.3997 30.0005 14.9277C30.0005 14.4557 29.9245 14.0957 29.7725 13.8477C29.6205 13.5917 29.4005 13.4637 29.1125 13.4637C28.8325 13.4637 28.6165 13.5917 28.4645 13.8477C28.3125 14.0957 28.2365 14.4557 28.2365 14.9277C28.2365 15.3997 28.3125 15.7637 28.4645 16.0197C28.6165 16.2677 28.8325 16.3917 29.1125 16.3917ZM35.4605 21.1197C34.8125 21.1197 34.3085 20.9117 33.9485 20.4957C33.5885 20.0717 33.4085 19.4837 33.4085 18.7317C33.4085 17.9797 33.5885 17.3957 33.9485 16.9797C34.3085 16.5557 34.8125 16.3437 35.4605 16.3437C36.1165 16.3437 36.6245 16.5557 36.9845 16.9797C37.3525 17.3957 37.5365 17.9797 37.5365 18.7317C37.5365 19.4837 37.3525 20.0717 36.9845 20.4957C36.6245 20.9117 36.1165 21.1197 35.4605 21.1197ZM35.4605 20.1957C35.7485 20.1957 35.9685 20.0717 36.1205 19.8237C36.2725 19.5677 36.3485 19.2037 36.3485 18.7317C36.3485 18.2597 36.2725 17.8997 36.1205 17.6517C35.9685 17.3957 35.7485 17.2677 35.4605 17.2677C35.1805 17.2677 34.9645 17.3957 34.8125 17.6517C34.6605 17.8997 34.5845 18.2597 34.5845 18.7317C34.5845 19.2037 34.6605 19.5677 34.8125 19.8237C34.9645 20.0717 35.1805 20.1957 35.4605 20.1957ZM44.1702 21.0837C43.5622 21.0837 43.0302 20.9517 42.5742 20.6877C42.1182 20.4237 41.7662 20.0517 41.5182 19.5717C41.2702 19.0837 41.1462 18.5197 41.1462 17.8797C41.1462 17.2397 41.2702 16.6797 41.5182 16.1997C41.7662 15.7117 42.1182 15.3357 42.5742 15.0717C43.0302 14.8077 43.5622 14.6757 44.1702 14.6757C44.7782 14.6757 45.3102 14.8077 45.7662 15.0717C46.2222 15.3357 46.5742 15.7117 46.8222 16.1997C47.0702 16.6797 47.1942 17.2397 47.1942 17.8797C47.1942 18.5197 47.0702 19.0837 46.8222 19.5717C46.5742 20.0517 46.2222 20.4237 45.7662 20.6877C45.3102 20.9517 44.7782 21.0837 44.1702 21.0837ZM44.1702 19.9437C44.6902 19.9437 45.0902 19.7677 45.3702 19.4157C45.6582 19.0557 45.8022 18.5437 45.8022 17.8797C45.8022 17.2157 45.6582 16.7077 45.3702 16.3557C45.0902 15.9957 44.6902 15.8157 44.1702 15.8157C43.6502 15.8157 43.2502 15.9957 42.9702 16.3557C42.6902 16.7157 42.5502 17.2237 42.5502 17.8797C42.5502 18.5357 42.6902 19.0437 42.9702 19.4037C43.2502 19.7637 43.6502 19.9437 44.1702 19.9437ZM48.9583 14.3157C48.9583 13.7797 49.0823 13.3717 49.3303 13.0917C49.5863 12.8037 49.9583 12.6597 50.4463 12.6597H51.5863V13.7397H50.9143C50.7063 13.7397 50.5503 13.7957 50.4463 13.9077C50.3503 14.0117 50.3023 14.1797 50.3023 14.4117V14.8197H51.5263V15.8037H50.3023V20.9397H48.9583V15.8037H47.7943V14.8197H48.9583V14.3157ZM53.3763 14.3157C53.3763 13.7797 53.5003 13.3717 53.7483 13.0917C54.0043 12.8037 54.3763 12.6597 54.8643 12.6597H56.0043V13.7397H55.3323C55.1243 13.7397 54.9683 13.7957 54.8643 13.9077C54.7683 14.0117 54.7203 14.1797 54.7203 14.4117V14.8197H55.9443V15.8037H54.7203V20.9397H53.3763V15.8037H52.2123V14.8197H53.3763V14.3157ZM61.6209 21.0837C61.0209 21.0837 60.5409 20.9237 60.1809 20.6037C59.8209 20.2837 59.6409 19.8437 59.6409 19.2837C59.6409 18.8117 59.7609 18.4477 60.0009 18.1917C60.2489 17.9277 60.5409 17.7437 60.8769 17.6397C61.2129 17.5277 61.6409 17.4317 62.1609 17.3517C62.6729 17.2637 63.0369 17.1757 63.2529 17.0877C63.4769 16.9997 63.5889 16.8477 63.5889 16.6317C63.5889 16.4317 63.5009 16.2477 63.3249 16.0797C63.1489 15.9037 62.8609 15.8157 62.4609 15.8157C62.0849 15.8157 61.7849 15.8997 61.5609 16.0677C61.3449 16.2357 61.2249 16.4757 61.2009 16.7877H59.8809C59.9049 16.1157 60.1529 15.5957 60.6249 15.2277C61.0969 14.8597 61.7169 14.6757 62.4849 14.6757C63.1729 14.6757 63.7529 14.8397 64.2249 15.1677C64.6969 15.4957 64.9329 16.0557 64.9329 16.8477V19.1877C64.9329 19.5717 64.9449 19.8997 64.9689 20.1717C64.9929 20.4437 65.0409 20.6997 65.1129 20.9397H63.8169C63.7529 20.7317 63.7129 20.4637 63.6969 20.1357C63.4569 20.4397 63.1529 20.6757 62.7849 20.8437C62.4169 21.0037 62.0289 21.0837 61.6209 21.0837ZM61.9929 20.0157C62.4169 20.0157 62.7889 19.8997 63.1089 19.6677C63.4289 19.4277 63.5889 19.1197 63.5889 18.7437V17.8197C63.4849 17.9397 63.3449 18.0277 63.1689 18.0837C62.9929 18.1317 62.7409 18.1837 62.4129 18.2397C62.0929 18.2957 61.8369 18.3517 61.6449 18.4077C61.4609 18.4637 61.3049 18.5557 61.1769 18.6837C61.0489 18.8037 60.9849 18.9757 60.9849 19.1997C60.9849 19.4637 61.0729 19.6677 61.2489 19.8117C61.4329 19.9477 61.6809 20.0157 61.9929 20.0157ZM66.5835 12.6597H67.9275V20.9397H66.5835V12.6597ZM69.5249 12.6597L70.8689 12.6597V20.9397H69.5249V12.6597ZM78.2347 21.0837C77.8507 21.0837 77.5067 21.0037 77.2027 20.8437C76.9067 20.6837 76.6547 20.4517 76.4467 20.1477L76.4107 20.9397H75.1147V12.6597H76.4587V15.5757C76.8827 14.9757 77.4747 14.6757 78.2347 14.6757C78.7307 14.6757 79.1747 14.8077 79.5667 15.0717C79.9667 15.3277 80.2787 15.6997 80.5027 16.1877C80.7267 16.6677 80.8387 17.2317 80.8387 17.8797C80.8387 18.5277 80.7267 19.0957 80.5027 19.5837C80.2787 20.0637 79.9667 20.4357 79.5667 20.6997C79.1747 20.9557 78.7307 21.0837 78.2347 21.0837ZM77.9107 19.9437C78.3827 19.9437 78.7547 19.7597 79.0267 19.3917C79.3067 19.0157 79.4467 18.5117 79.4467 17.8797C79.4467 17.2477 79.3067 16.7477 79.0267 16.3797C78.7547 16.0037 78.3827 15.8157 77.9107 15.8157C77.4547 15.8157 77.0987 15.9997 76.8427 16.3677C76.5867 16.7277 76.4587 17.2317 76.4587 17.8797C76.4587 18.5277 76.5867 19.0357 76.8427 19.4037C77.0987 19.7637 77.4547 19.9437 77.9107 19.9437ZM84.8343 21.0837C84.2263 21.0837 83.6943 20.9517 83.2383 20.6877C82.7823 20.4237 82.4303 20.0517 82.1823 19.5717C81.9343 19.0837 81.8103 18.5197 81.8103 17.8797C81.8103 17.2397 81.9343 16.6797 82.1823 16.1997C82.4303 15.7117 82.7823 15.3357 83.2383 15.0717C83.6943 14.8077 84.2263 14.6757 84.8343 14.6757C85.4423 14.6757 85.9743 14.8077 86.4303 15.0717C86.8863 15.3357 87.2383 15.7117 87.4863 16.1997C87.7343 16.6797 87.8583 17.2397 87.8583 17.8797C87.8583 18.5197 87.7343 19.0837 87.4863 19.5717C87.2383 20.0517 86.8863 20.4237 86.4303 20.6877C85.9743 20.9517 85.4423 21.0837 84.8343 21.0837ZM84.8343 19.9437C85.3543 19.9437 85.7543 19.7677 86.0343 19.4157C86.3223 19.0557 86.4663 18.5437 86.4663 17.8797C86.4663 17.2157 86.3223 16.7077 86.0343 16.3557C85.7543 15.9957 85.3543 15.8157 84.8343 15.8157C84.3143 15.8157 83.9143 15.9957 83.6343 16.3557C83.3543 16.7157 83.2143 17.2237 83.2143 17.8797C83.2143 18.5357 83.3543 19.0437 83.6343 19.4037C83.9143 19.7637 84.3143 19.9437 84.8343 19.9437ZM91.8421 21.0837C91.2341 21.0837 90.7021 20.9517 90.2461 20.6877C89.7901 20.4237 89.4381 20.0517 89.1901 19.5717C88.9421 19.0837 88.8181 18.5197 88.8181 17.8797C88.8181 17.2397 88.9421 16.6797 89.1901 16.1997C89.4381 15.7117 89.7901 15.3357 90.2461 15.0717C90.7021 14.8077 91.2341 14.6757 91.8421 14.6757C92.4501 14.6757 92.9821 14.8077 93.4381 15.0717C93.8941 15.3357 94.2461 15.7117 94.4941 16.1997C94.7421 16.6797 94.8661 17.2397 94.8661 17.8797C94.8661 18.5197 94.7421 19.0837 94.4941 19.5717C94.2461 20.0517 93.8941 20.4237 93.4381 20.6877C92.9821 20.9517 92.4501 21.0837 91.8421 21.0837ZM91.8421 19.9437C92.3621 19.9437 92.7621 19.7677 93.0421 19.4157C93.3301 19.0557 93.4741 18.5437 93.4741 17.8797C93.4741 17.2157 93.3301 16.7077 93.0421 16.3557C92.7621 15.9957 92.3621 15.8157 91.8421 15.8157C91.3221 15.8157 90.9221 15.9957 90.6421 16.3557C90.3621 16.7157 90.2221 17.2237 90.2221 17.8797C90.2221 18.5357 90.3621 19.0437 90.6421 19.4037C90.9221 19.7637 91.3221 19.9437 91.8421 19.9437ZM96.1862 12.6597H97.5302V17.2437L99.7982 14.8197H101.466L99.3182 17.0277L101.754 20.9397H100.182L98.3942 17.9877L97.5302 18.8877V20.9397H96.1862V12.6597ZM102.724 14.8197H104.068V20.9397H102.724V14.8197ZM102.7 12.6597H104.092V14.0277H102.7V12.6597ZM105.666 14.8197H106.962L107.01 15.7197C107.226 15.3757 107.502 15.1157 107.838 14.9397C108.182 14.7637 108.546 14.6757 108.93 14.6757C109.338 14.6757 109.698 14.7717 110.01 14.9637C110.33 15.1477 110.578 15.4117 110.754 15.7557C110.938 16.0917 111.03 16.4837 111.03 16.9317V20.9397H109.686V17.1717C109.686 16.7557 109.586 16.4317 109.386 16.1997C109.186 15.9677 108.898 15.8517 108.522 15.8517C108.074 15.8517 107.71 16.0157 107.43 16.3437C107.15 16.6637 107.01 17.0877 107.01 17.6157V20.9397H105.666V14.8197ZM115.088 23.2437C114.36 23.2437 113.764 23.0717 113.3 22.7277C112.836 22.3917 112.564 21.9317 112.484 21.3477H113.888C113.944 21.6117 114.084 21.8157 114.308 21.9597C114.54 22.1037 114.82 22.1757 115.148 22.1757C115.58 22.1757 115.912 22.0477 116.144 21.7917C116.384 21.5357 116.504 21.1757 116.504 20.7117V19.9677C116.304 20.2557 116.056 20.4797 115.76 20.6397C115.464 20.7917 115.128 20.8677 114.752 20.8677C114.264 20.8677 113.832 20.7437 113.456 20.4957C113.08 20.2397 112.784 19.8797 112.568 19.4157C112.352 18.9437 112.244 18.3957 112.244 17.7717C112.244 17.1477 112.352 16.6037 112.568 16.1397C112.784 15.6677 113.08 15.3077 113.456 15.0597C113.84 14.8037 114.272 14.6757 114.752 14.6757C115.128 14.6757 115.464 14.7557 115.76 14.9157C116.064 15.0757 116.316 15.3037 116.516 15.5997L116.552 14.8197H117.848V20.5917C117.848 21.4077 117.6 22.0517 117.104 22.5237C116.608 23.0037 115.936 23.2437 115.088 23.2437ZM115.136 19.7997C115.568 19.7997 115.904 19.6237 116.144 19.2717C116.384 18.9117 116.504 18.4117 116.504 17.7717C116.504 17.1317 116.384 16.6357 116.144 16.2837C115.904 15.9237 115.568 15.7437 115.136 15.7437C114.688 15.7437 114.328 15.9277 114.056 16.2957C113.784 16.6637 113.648 17.1557 113.648 17.7717C113.648 18.3877 113.784 18.8797 114.056 19.2477C114.328 19.6157 114.688 19.7997 115.136 19.7997ZM121.634 21.0837C120.818 21.0837 120.182 20.8917 119.726 20.5077C119.27 20.1157 119.03 19.5757 119.006 18.8877H120.326C120.342 19.2557 120.466 19.5397 120.698 19.7397C120.93 19.9397 121.254 20.0397 121.67 20.0397C122.022 20.0397 122.298 19.9717 122.498 19.8357C122.698 19.6997 122.798 19.5157 122.798 19.2837C122.798 19.0197 122.674 18.8277 122.426 18.7077C122.186 18.5797 121.814 18.4597 121.31 18.3477C120.846 18.2357 120.47 18.1277 120.182 18.0237C119.894 17.9117 119.646 17.7397 119.438 17.5077C119.238 17.2757 119.138 16.9637 119.138 16.5717C119.138 15.9957 119.358 15.5357 119.798 15.1917C120.246 14.8477 120.838 14.6757 121.574 14.6757C122.326 14.6757 122.91 14.8597 123.326 15.2277C123.742 15.5877 123.966 16.0837 123.998 16.7157H122.678C122.654 16.3797 122.542 16.1237 122.342 15.9477C122.142 15.7717 121.862 15.6837 121.502 15.6837C121.19 15.6837 120.946 15.7477 120.77 15.8757C120.594 15.9957 120.506 16.1677 120.506 16.3917C120.506 16.6477 120.622 16.8357 120.854 16.9557C121.094 17.0677 121.466 17.1837 121.97 17.3037C122.434 17.4157 122.814 17.5277 123.11 17.6397C123.406 17.7517 123.658 17.9277 123.866 18.1677C124.074 18.4077 124.178 18.7357 124.178 19.1517C124.178 19.7517 123.946 20.2237 123.482 20.5677C123.026 20.9117 122.41 21.0837 121.634 21.0837Z" fill="#1F1F1F"/>
</svg>
