<svg width="76" height="35" viewBox="0 0 76 35" fill="none" xmlns="http://www.w3.org/2000/svg">
<rect width="75.7681" height="34.9224" rx="17.4612" fill="#FD9BB7"/>
<path d="M16.4094 13.1605H22.3771V14.4881H17.9079V17.1302H22.0617V18.4578H17.9079V22.2303H16.4094V13.1605ZM23.6074 15.5265H25.0796V16.6044C25.4564 15.8858 26.0523 15.5265 26.8673 15.5265H27.4457V16.9462H26.7227C26.1619 16.9462 25.7456 17.1127 25.474 17.4457C25.2111 17.7699 25.0796 18.2825 25.0796 18.9836V22.2303H23.6074V15.5265ZM28.6522 15.5265H30.1244V22.2303H28.6522V15.5265ZM28.6259 13.1605H30.1507V14.659H28.6259V13.1605ZM34.7529 22.3881C34.1044 22.3881 33.5348 22.2435 33.0441 21.9543C32.5534 21.6651 32.1765 21.2576 31.9136 20.7318C31.6507 20.2061 31.5193 19.597 31.5193 18.9047C31.5193 18.1949 31.6595 17.5727 31.9399 17.0382C32.2204 16.5036 32.6103 16.0918 33.1098 15.8026C33.6093 15.5134 34.1745 15.3688 34.8055 15.3688C35.7782 15.3688 36.5318 15.7106 37.0664 16.3941C37.6009 17.0776 37.877 18.0153 37.8945 19.2071H33.0704C33.1142 19.8292 33.2851 20.3068 33.583 20.6398C33.881 20.9728 34.2928 21.1393 34.8186 21.1393C35.213 21.1393 35.5416 21.0473 35.8045 20.8633C36.0674 20.6705 36.2295 20.3988 36.2908 20.0483H37.8156C37.7192 20.7669 37.3862 21.3365 36.8166 21.7571C36.2558 22.1778 35.5679 22.3881 34.7529 22.3881ZM36.3828 18.2212C36.3566 17.7042 36.2032 17.3098 35.9228 17.0382C35.6424 16.7578 35.2655 16.6176 34.7923 16.6176C34.3279 16.6176 33.9511 16.7578 33.6619 17.0382C33.3727 17.3098 33.1887 17.7042 33.1098 18.2212H36.3828ZM39.281 15.5265L40.7006 15.5265L40.7532 16.5124C40.9898 16.1356 41.2921 15.8508 41.6601 15.658C42.037 15.4652 42.4357 15.3688 42.8563 15.3688C43.3032 15.3688 43.6976 15.474 44.0393 15.6843C44.3899 15.8858 44.6615 16.175 44.8543 16.5518C45.0559 16.9199 45.1566 17.3493 45.1566 17.84V22.2303H43.6844V18.1029C43.6844 17.6472 43.5749 17.2923 43.3558 17.0382C43.1367 16.784 42.8213 16.657 42.4094 16.657C41.9187 16.657 41.5199 16.8366 41.2132 17.1959C40.9065 17.5464 40.7532 18.0109 40.7532 18.5893V22.2303H39.281V15.5265ZM49.3392 22.3881C48.7959 22.3881 48.3052 22.2479 47.867 21.9675C47.4376 21.6783 47.1002 21.2708 46.8549 20.745C46.6095 20.2104 46.4868 19.5883 46.4868 18.8784C46.4868 18.1686 46.6095 17.5508 46.8549 17.025C47.1002 16.4905 47.4376 16.083 47.867 15.8026C48.3052 15.5134 48.7959 15.3688 49.3392 15.3688C50.1717 15.3688 50.8202 15.6974 51.2846 16.3547V13.1605H52.7569V22.2303H51.3372L51.2978 21.3759C51.07 21.7002 50.7895 21.9499 50.4565 22.1252C50.1235 22.3005 49.7511 22.3881 49.3392 22.3881ZM49.6941 21.1393C50.1936 21.1393 50.5836 20.9422 50.864 20.5478C51.1444 20.1447 51.2846 19.5883 51.2846 18.8784C51.2846 18.1686 51.1444 17.6165 50.864 17.2222C50.5836 16.8191 50.1936 16.6176 49.6941 16.6176C49.1859 16.6176 48.7784 16.8235 48.4717 17.2354C48.1737 17.6385 48.0248 18.1862 48.0248 18.8784C48.0248 19.5707 48.1737 20.1228 48.4717 20.5347C48.7784 20.9378 49.1859 21.1393 49.6941 21.1393ZM57.0165 22.3881C56.1226 22.3881 55.426 22.1778 54.9265 21.7571C54.427 21.3277 54.1641 20.7362 54.1378 19.9826H55.5837C55.6012 20.3857 55.737 20.6968 55.9912 20.9159C56.2453 21.135 56.6002 21.2445 57.0559 21.2445C57.4415 21.2445 57.7438 21.17 57.9629 21.021C58.182 20.8721 58.2915 20.6705 58.2915 20.4164C58.2915 20.1272 58.1557 19.9169 57.884 19.7854C57.6211 19.6452 57.2136 19.5138 56.6616 19.3911C56.1533 19.2684 55.7414 19.1501 55.426 19.0362C55.1105 18.9135 54.8388 18.7251 54.611 18.471C54.3919 18.2168 54.2824 17.8751 54.2824 17.4457C54.2824 16.8147 54.5234 16.3108 55.0053 15.934C55.4961 15.5572 56.1445 15.3688 56.9507 15.3688C57.7745 15.3688 58.4142 15.5704 58.8699 15.9735C59.3256 16.3678 59.5709 16.9111 59.606 17.6034H58.1601C58.1338 17.2354 58.0111 16.9549 57.792 16.7621C57.5729 16.5694 57.2662 16.473 56.8719 16.473C56.5301 16.473 56.2628 16.5431 56.07 16.6833C55.8773 16.8147 55.7809 17.0031 55.7809 17.2485C55.7809 17.5289 55.9079 17.7349 56.1621 17.8663C56.425 17.989 56.8324 18.116 57.3845 18.2475C57.8928 18.3702 58.309 18.4929 58.6333 18.6155C58.9575 18.7382 59.2335 18.931 59.4614 19.1939C59.6892 19.4568 59.8031 19.8161 59.8031 20.2718C59.8031 20.929 59.549 21.446 59.0408 21.8229C58.5413 22.1997 57.8665 22.3881 57.0165 22.3881Z" fill="#48172C"/>
</svg>
