<svg width="168" height="68" viewBox="0 0 168 68" fill="none" xmlns="http://www.w3.org/2000/svg">
<mask id="mask0_1_251" style="mask-type:luminance" maskUnits="userSpaceOnUse" x="0" y="0" width="168" height="68">
<path d="M167.4 0.534424H0V67.1344H167.4V0.534424Z" fill="white"/>
</mask>
<g mask="url(#mask0_1_251)">
<path d="M0 15.4274C0 3.78736 10.0506 0.534424 19.4905 0.534424C30.2734 0.534424 37.516 4.21643 38.4114 11.4471H31.1293C30.4787 8.57961 27.0197 6.01235 19.614 6.01235C12.5342 6.01235 7.00035 8.28017 7.00035 15.427C7.00035 22.5739 12.5323 24.8432 19.6126 24.8432C27.0183 24.8432 30.4772 22.2756 31.1278 19.3656H38.4114C37.5156 26.6406 30.2745 30.3215 19.4905 30.3215C10.0506 30.3204 0 27.0674 0 15.4274Z" fill="white"/>
<path d="M49.2339 0.876709H42.2354V29.9777H49.2339V0.876709Z" fill="white"/>
<path d="M84.1867 6.35463H71.5708V29.9773H64.5312V6.35463H51.9191V0.876709H84.1867V6.35463Z" fill="white"/>
<path d="M108.783 29.9777H101.786V18.4658L85.1016 0.876709H93.9719L105.284 13.7585L116.595 0.876709H125.467L108.782 18.4658L108.783 29.9777Z" fill="white"/>
<path d="M42.2361 37.6912H62.1742C70.0274 37.6912 75.5612 39.2748 75.5612 44.9661C75.5612 48.6481 72.8365 50.3152 68.7251 51.0005C73.4859 51.6854 76.6194 53.4821 76.6194 58.3611C76.6194 64.8234 70.8411 66.7918 62.7034 66.7918H42.2361V37.6912ZM62.3365 49.5438C66.2023 49.5438 69.0506 49.1159 69.0506 46.206C69.0506 43.3385 66.2023 42.9106 62.3365 42.9106H49.2354V49.5438H62.3365ZM62.581 61.5697C66.7719 61.5697 69.5795 61.099 69.5795 57.8877C69.5795 54.6765 66.7715 54.25 62.581 54.25H49.2342V61.5686L62.581 61.5697Z" fill="white"/>
<path d="M79.7906 52.2418C79.7906 40.9009 89.8411 37.3489 99.2811 37.3489C108.721 37.3489 118.812 40.9005 118.812 52.2418C118.812 63.5832 108.721 67.1344 99.2818 67.1344C89.8422 67.1344 79.7913 63.5824 79.7913 52.2418M99.2818 61.6565C106.24 61.6565 111.774 59.0889 111.774 52.2418C111.774 45.3948 106.239 42.8264 99.2818 42.8264C92.3244 42.8264 86.7898 45.3944 86.7898 52.2418C86.7898 59.0893 92.3236 61.6565 99.2818 61.6565Z" fill="white"/>
<path d="M156.696 37.6912L142.21 51.8139L157.103 66.7918H147.988L137.409 55.5797L126.789 66.7918H117.674L132.567 51.8139L118.081 37.6912H126.951L137.409 48.2615L147.826 37.6912H156.696Z" fill="white"/>
<path d="M157.361 42.7201C157.36 41.7208 157.653 40.7435 158.203 39.9119C158.754 39.0803 159.537 38.4316 160.453 38.0479C161.37 37.6643 162.379 37.5628 163.353 37.7565C164.327 37.9501 165.222 38.43 165.925 39.1357C166.628 39.8413 167.107 40.7409 167.302 41.7207C167.497 42.7006 167.399 43.7166 167.021 44.6404C166.642 45.5641 166 46.3541 165.175 46.9105C164.35 47.4668 163.38 47.7645 162.388 47.7659C161.725 47.7789 161.067 47.6573 160.452 47.4085C159.837 47.1597 159.279 46.7888 158.81 46.3178C158.34 45.8468 157.97 45.2855 157.721 44.6674C157.473 44.0492 157.35 43.387 157.361 42.7201ZM162.388 46.9086C163.212 46.9173 164.021 46.6792 164.711 46.2244C165.401 45.7695 165.941 45.1185 166.263 44.354C166.584 43.5896 166.673 42.7461 166.518 41.9308C166.362 41.1155 165.969 40.3651 165.389 39.7749C164.809 39.1848 164.068 38.7815 163.259 38.6163C162.451 38.4511 161.612 38.5315 160.85 38.8472C160.087 39.1629 159.434 39.6997 158.975 40.3894C158.516 41.0791 158.271 41.8906 158.271 42.7208C158.256 43.271 158.353 43.8185 158.554 44.3304C158.755 44.8422 159.057 45.3077 159.442 45.699C159.826 46.0902 160.285 46.3991 160.792 46.6069C161.298 46.8148 161.841 46.9174 162.388 46.9086ZM160.481 40.3215H162.633C163.76 40.3215 164.482 40.627 164.482 41.6159C164.501 41.8707 164.428 42.1238 164.277 42.3292C164.126 42.5346 163.907 42.6786 163.659 42.7351C164.15 42.793 164.382 43.0406 164.382 43.491V44.5675C164.369 44.7385 164.404 44.9098 164.483 45.0619V45.1202H163.284C163.219 44.9286 163.194 44.7255 163.211 44.5239V43.5489C163.211 43.2292 163.081 43.1131 162.691 43.1131H161.651V45.1198H160.481L160.481 40.3215ZM162.258 42.4447C162.908 42.4447 163.312 42.3286 163.312 41.747C163.312 41.1361 162.908 41.0493 162.258 41.0493H161.651V42.4451L162.258 42.4447Z" fill="white"/>
</g>
</svg>
