<svg width="83" height="703" viewBox="0 0 83 703" fill="none" xmlns="http://www.w3.org/2000/svg">
<mask id="mask0_87_300" style="mask-type:luminance" maskUnits="userSpaceOnUse" x="0" y="0" width="83" height="703">
<path d="M0.241616 6.10352e-05L0.241638 703L82.7584 703L82.7584 5.59569e-05L0.241616 6.10352e-05Z" fill="white"/>
</mask>
<g mask="url(#mask0_87_300)">
<path d="M41.5 703C9.2534 703 0.241637 674.974 0.241636 648.648C0.241636 618.578 10.4382 598.382 30.4734 595.885L30.4734 616.196C22.5303 618.011 15.4182 627.656 15.4182 648.308C15.4182 668.051 21.6982 683.483 41.5011 683.483C61.3039 683.483 67.5839 668.051 67.5839 648.308C67.5839 627.656 60.4666 618.01 52.4073 616.196L52.4073 595.884C72.5618 598.381 82.7605 618.577 82.7605 648.647C82.7584 674.974 73.7477 703 41.5 703Z" fill="#48172C"/>
<path d="M1.18979 565.706L1.18979 585.223L81.81 585.223L81.81 565.706L1.18979 565.706Z" fill="#48172C"/>
<path d="M16.3656 468.234L16.3656 503.409L81.8092 503.409L81.8092 523.04L16.3656 523.04L16.3656 558.215L1.19113 558.215L1.19113 468.234L16.3656 468.234Z" fill="#48172C"/>
<path d="M81.81 399.643L81.81 419.16L49.9171 419.16L1.18979 465.682L1.18979 440.945L36.881 409.401L1.18978 377.858L1.18978 353.12L49.9171 399.644L81.81 399.643Z" fill="#48172C"/>
<path d="M1.19196 349.04L1.19195 293.439C1.19195 271.54 5.57851 256.108 21.3465 256.108C31.5431 256.108 36.1651 263.71 38.0638 275.171C39.9624 261.894 44.9393 253.158 58.4548 253.158C76.3528 253.158 81.8111 269.277 81.8111 291.965L81.8111 349.04L1.19196 349.04ZM34.032 292.985C34.032 282.204 32.8472 274.262 24.7848 274.262C16.8406 274.262 15.6558 282.205 15.6558 292.985L15.6558 329.523L34.032 329.523L34.032 292.985ZM67.3483 292.305C67.3483 280.618 66.0442 272.788 57.1517 272.788C48.2593 272.788 47.0734 280.618 47.0734 292.305L47.0734 329.523L67.3473 329.523L67.3483 292.305Z" fill="#48172C"/>
<path d="M41.5001 244.311C10.0804 244.311 0.241759 216.285 0.241759 189.962C0.241758 163.64 10.0804 135.494 41.5001 135.494C72.9199 135.494 82.7574 163.634 82.7574 189.962C82.7574 216.291 72.9188 244.314 41.5001 244.314M67.5829 189.962C67.5829 170.558 60.4656 155.126 41.5001 155.126C22.5346 155.126 15.4184 170.555 15.4184 189.962C15.4184 209.37 22.5357 224.798 41.5022 224.798C60.4688 224.798 67.5829 209.363 67.5829 189.962Z" fill="#48172C"/>
<path d="M1.19113 29.8497L40.3154 70.2446L81.8092 28.7141L81.8092 54.1323L50.7485 83.6345L81.8103 113.255L81.8103 138.667L40.3164 97.1365L1.19113 137.531L1.19113 112.801L30.4746 83.6387L1.19113 54.5865L1.19113 29.8497Z" fill="#48172C"/>
<path d="M15.1238 27.9956C13.2754 28.0116 11.4422 27.6613 9.72989 26.965C8.0176 26.2687 6.46017 25.2402 5.14749 23.9389C3.83481 22.6375 2.79287 21.089 2.08182 19.3828C1.37076 17.6766 1.00467 15.8465 1.00467 13.9981C1.00467 12.1496 1.37076 10.3195 2.08182 8.61329C2.79287 6.90709 3.83481 5.35858 5.14749 4.0572C6.46017 2.75582 8.0176 1.72733 9.72988 1.03106C11.4422 0.33478 13.2754 -0.0154908 15.1238 0.000492587C18.8152 0.0324132 22.3445 1.52123 24.9435 4.14281C27.5426 6.76439 29.0008 10.3065 29.0008 13.9981C29.0008 17.6896 27.5426 21.2317 24.9436 23.8533C22.3445 26.4748 18.8152 27.9636 15.1238 27.9956ZM26.725 13.9787C26.7494 12.4541 26.465 10.9403 25.8891 9.52841C25.3132 8.11654 24.4576 6.83577 23.3738 5.7632C22.29 4.69063 21.0003 3.84838 19.5825 3.28722C18.1647 2.72606 16.6481 2.45759 15.1238 2.49788C13.6069 2.48339 12.1023 2.7696 10.6967 3.34005C9.29113 3.9105 8.01255 4.75385 6.93482 5.82134C5.8571 6.88882 5.0016 8.15928 4.41776 9.55933C3.83392 10.9594 3.53331 12.4612 3.53331 13.9781C3.53331 15.495 3.83392 16.9969 4.41776 18.397C5.0016 19.797 5.8571 21.0675 6.93482 22.135C8.01255 23.2025 9.29113 24.0458 10.6967 24.6163C12.1023 25.1867 13.6069 25.4729 15.1238 25.4584C16.648 25.4987 18.1646 25.2303 19.5823 24.6692C21 24.1081 22.2896 23.266 23.3734 22.1935C24.4572 21.121 25.3128 19.8404 25.8888 18.4287C26.4648 17.0169 26.7492 15.5032 26.725 13.9787ZM8.47642 19.2947L8.47642 13.2931C8.47642 10.1531 9.32212 8.13729 12.0623 8.13729C12.7684 8.08542 13.4696 8.2885 14.0387 8.70969C14.6077 9.13087 15.0069 9.74219 15.1635 10.4326C15.3237 9.06358 16.0092 8.41774 17.2569 8.41774L20.2388 8.41774C20.7124 8.45356 21.1865 8.35647 21.6078 8.13729L21.769 8.13729L21.769 11.4803C21.2384 11.6611 20.676 11.7299 20.1174 11.6823L17.417 11.6823C16.5315 11.6823 16.2092 12.0445 16.2092 13.1319L16.2092 16.0343L21.769 16.0343L21.769 19.2957L8.47642 19.2947ZM14.3576 14.3409C14.3576 12.528 14.0352 11.3997 12.4244 11.3997C10.732 11.3997 10.4912 12.527 10.4912 14.3409L10.4912 16.0333L14.3576 16.0333L14.3576 14.3409Z" fill="#48172C"/>
</g>
</svg>
