<svg width="106" height="33" viewBox="0 0 106 33" fill="none" xmlns="http://www.w3.org/2000/svg">
<rect x="0.791443" y="0.739502" width="105.089" height="31.4487" rx="15.7244" fill="#FF6C52"/>
<path d="M15.7718 12.886H21.2918V14.098H17.1398V16.198H20.9678V17.41H17.1398V19.966H21.3998V21.178H16.4198V21.166H15.7718V12.886ZM24.3765 21.31C23.7765 21.31 23.2965 21.15 22.9365 20.83C22.5765 20.51 22.3965 20.07 22.3965 19.51C22.3965 19.038 22.5165 18.674 22.7565 18.418C23.0045 18.154 23.2965 17.97 23.6325 17.866C23.9685 17.754 24.3965 17.658 24.9165 17.578C25.4285 17.49 25.7925 17.402 26.0085 17.314C26.2325 17.226 26.3445 17.074 26.3445 16.858C26.3445 16.658 26.2565 16.474 26.0805 16.306C25.9045 16.13 25.6165 16.042 25.2165 16.042C24.8405 16.042 24.5405 16.126 24.3165 16.294C24.1005 16.462 23.9805 16.702 23.9565 17.014H22.6365C22.6605 16.342 22.9085 15.822 23.3805 15.454C23.8525 15.086 24.4725 14.902 25.2405 14.902C25.9285 14.902 26.5085 15.066 26.9805 15.394C27.4525 15.722 27.6885 16.282 27.6885 17.074V19.414C27.6885 19.798 27.7005 20.126 27.7245 20.398C27.7485 20.67 27.7965 20.926 27.8685 21.166H26.5725C26.5085 20.958 26.4685 20.69 26.4525 20.362C26.2125 20.666 25.9085 20.902 25.5405 21.07C25.1725 21.23 24.7845 21.31 24.3765 21.31ZM24.7485 20.242C25.1725 20.242 25.5445 20.126 25.8645 19.894C26.1845 19.654 26.3445 19.346 26.3445 18.97V18.046C26.2405 18.166 26.1005 18.254 25.9245 18.31C25.7485 18.358 25.4965 18.41 25.1685 18.466C24.8485 18.522 24.5925 18.578 24.4005 18.634C24.2165 18.69 24.0605 18.782 23.9325 18.91C23.8045 19.03 23.7405 19.202 23.7405 19.426C23.7405 19.69 23.8285 19.894 24.0045 20.038C24.1885 20.174 24.4365 20.242 24.7485 20.242ZM29.2922 15.046H30.6362V16.03C30.9802 15.374 31.5242 15.046 32.2682 15.046H32.7962V16.342H32.1362C31.6242 16.342 31.2442 16.494 30.9962 16.798C30.7562 17.094 30.6362 17.562 30.6362 18.202V21.166H29.2922V15.046ZM33.8977 12.886H35.2417V21.166H33.8977V12.886ZM36.6108 22.246H37.4028C37.6588 22.246 37.8708 22.19 38.0388 22.078C38.2068 21.966 38.3588 21.77 38.4948 21.49L36.2028 15.046H37.6548L39.1188 19.714L40.6668 15.046H42.1308L39.7308 21.622C39.5148 22.23 39.2388 22.666 38.9028 22.93C38.5668 23.194 38.1108 23.326 37.5348 23.326H36.6108V22.246ZM48.3376 21.31C47.4256 21.31 46.7096 21.03 46.1896 20.47C45.6696 19.902 45.4096 19.114 45.4096 18.106C45.4096 17.098 45.6696 16.314 46.1896 15.754C46.7176 15.186 47.4416 14.902 48.3616 14.902C49.1376 14.902 49.7656 15.114 50.2456 15.538C50.7336 15.954 51.0216 16.542 51.1096 17.302H49.7056C49.6816 16.894 49.5496 16.582 49.3096 16.366C49.0776 16.15 48.7576 16.042 48.3496 16.042C47.8456 16.042 47.4616 16.218 47.1976 16.57C46.9416 16.914 46.8136 17.422 46.8136 18.094C46.8136 18.774 46.9416 19.29 47.1976 19.642C47.4536 19.994 47.8296 20.17 48.3256 20.17C48.7176 20.17 49.0296 20.062 49.2616 19.846C49.5016 19.63 49.6536 19.31 49.7176 18.886H51.1216C51.0176 19.654 50.7216 20.25 50.2336 20.674C49.7536 21.098 49.1216 21.31 48.3376 21.31ZM52.343 12.886H53.687V15.994C53.903 15.618 54.183 15.342 54.527 15.166C54.871 14.99 55.235 14.902 55.619 14.902C56.243 14.902 56.747 15.11 57.131 15.526C57.515 15.934 57.707 16.478 57.707 17.158V21.166H56.363V17.398C56.363 16.982 56.263 16.658 56.063 16.426C55.863 16.194 55.575 16.078 55.199 16.078C54.751 16.078 54.387 16.242 54.107 16.57C53.827 16.89 53.687 17.314 53.687 17.842V21.166H52.343V12.886ZM61.8616 21.31C61.2696 21.31 60.7496 21.178 60.3016 20.914C59.8536 20.65 59.5096 20.278 59.2696 19.798C59.0296 19.318 58.9096 18.762 58.9096 18.13C58.9096 17.482 59.0376 16.914 59.2936 16.426C59.5496 15.938 59.9056 15.562 60.3616 15.298C60.8176 15.034 61.3336 14.902 61.9096 14.902C62.7976 14.902 63.4856 15.214 63.9736 15.838C64.4616 16.462 64.7136 17.318 64.7296 18.406H60.3256C60.3656 18.974 60.5216 19.41 60.7936 19.714C61.0656 20.018 61.4416 20.17 61.9216 20.17C62.2816 20.17 62.5816 20.086 62.8216 19.918C63.0616 19.742 63.2096 19.494 63.2656 19.174H64.6576C64.5696 19.83 64.2656 20.35 63.7456 20.734C63.2336 21.118 62.6056 21.31 61.8616 21.31ZM63.3496 17.506C63.3256 17.034 63.1856 16.674 62.9296 16.426C62.6736 16.17 62.3296 16.042 61.8976 16.042C61.4736 16.042 61.1296 16.17 60.8656 16.426C60.6016 16.674 60.4336 17.034 60.3616 17.506H63.3496ZM68.6345 21.31C67.7225 21.31 67.0065 21.03 66.4865 20.47C65.9665 19.902 65.7065 19.114 65.7065 18.106C65.7065 17.098 65.9665 16.314 66.4865 15.754C67.0145 15.186 67.7385 14.902 68.6585 14.902C69.4345 14.902 70.0625 15.114 70.5425 15.538C71.0305 15.954 71.3185 16.542 71.4065 17.302H70.0025C69.9785 16.894 69.8465 16.582 69.6065 16.366C69.3745 16.15 69.0545 16.042 68.6465 16.042C68.1425 16.042 67.7585 16.218 67.4945 16.57C67.2385 16.914 67.1105 17.422 67.1105 18.094C67.1105 18.774 67.2385 19.29 67.4945 19.642C67.7505 19.994 68.1265 20.17 68.6225 20.17C69.0145 20.17 69.3265 20.062 69.5585 19.846C69.7985 19.63 69.9505 19.31 70.0145 18.886H71.4185C71.3145 19.654 71.0185 20.25 70.5305 20.674C70.0505 21.098 69.4185 21.31 68.6345 21.31ZM72.6644 12.886H74.0084V17.47L76.2764 15.046H77.9444L75.7964 17.254L78.2324 21.166H76.6604L74.8724 18.214L74.0084 19.114V21.166H72.6644V12.886ZM78.1261 17.134H81.1141V18.118H78.1261V17.134ZM82.2258 15.046H83.5698V21.166H82.2258V15.046ZM82.2018 12.886H83.5938V14.254H82.2018V12.886ZM85.1672 15.046H86.4632L86.5112 15.946C86.7272 15.602 87.0032 15.342 87.3392 15.166C87.6832 14.99 88.0472 14.902 88.4312 14.902C88.8392 14.902 89.1992 14.998 89.5112 15.19C89.8312 15.374 90.0792 15.638 90.2552 15.982C90.4392 16.318 90.5312 16.71 90.5312 17.158V21.166H89.1872V17.398C89.1872 16.982 89.0872 16.658 88.8872 16.426C88.6872 16.194 88.3992 16.078 88.0232 16.078C87.5752 16.078 87.2112 16.242 86.9312 16.57C86.6512 16.89 86.5112 17.314 86.5112 17.842V21.166H85.1672V15.046Z" fill="#1F1F1F"/>
</svg>
