<svg width="109" height="31" viewBox="0 0 109 31" fill="none" xmlns="http://www.w3.org/2000/svg">
<rect x="0.936569" y="0.388428" width="107.798" height="29.6389" rx="14.8194" fill="#FDEC86"/>
<path d="M14.2716 11.5476H15.6396V18.6156H19.8876V19.8276H14.2716V11.5476ZM22.8528 19.9716C22.2528 19.9716 21.7728 19.8116 21.4128 19.4916C21.0528 19.1716 20.8728 18.7316 20.8728 18.1716C20.8728 17.6996 20.9928 17.3356 21.2328 17.0796C21.4808 16.8156 21.7728 16.6316 22.1088 16.5276C22.4448 16.4156 22.8728 16.3196 23.3928 16.2396C23.9048 16.1516 24.2688 16.0636 24.4848 15.9756C24.7088 15.8876 24.8208 15.7356 24.8208 15.5196C24.8208 15.3196 24.7328 15.1356 24.5568 14.9676C24.3808 14.7916 24.0928 14.7036 23.6928 14.7036C23.3168 14.7036 23.0168 14.7876 22.7928 14.9556C22.5768 15.1236 22.4568 15.3636 22.4328 15.6756H21.1128C21.1368 15.0036 21.3848 14.4836 21.8568 14.1156C22.3288 13.7476 22.9488 13.5636 23.7168 13.5636C24.4048 13.5636 24.9848 13.7276 25.4568 14.0556C25.9288 14.3836 26.1648 14.9436 26.1648 15.7356V18.0756C26.1648 18.4596 26.1768 18.7876 26.2008 19.0596C26.2248 19.3316 26.2728 19.5876 26.3448 19.8276H25.0488C24.9848 19.6196 24.9448 19.3516 24.9288 19.0236C24.6888 19.3276 24.3848 19.5636 24.0168 19.7316C23.6488 19.8916 23.2608 19.9716 22.8528 19.9716ZM23.2248 18.9036C23.6488 18.9036 24.0208 18.7876 24.3408 18.5556C24.6608 18.3156 24.8208 18.0076 24.8208 17.6316V16.7076C24.7168 16.8276 24.5768 16.9156 24.4008 16.9716C24.2248 17.0196 23.9728 17.0716 23.6448 17.1276C23.3248 17.1836 23.0688 17.2396 22.8768 17.2956C22.6928 17.3516 22.5368 17.4436 22.4088 17.5716C22.2808 17.6916 22.2168 17.8636 22.2168 18.0876C22.2168 18.3516 22.3048 18.5556 22.4808 18.6996C22.6648 18.8356 22.9128 18.9036 23.2248 18.9036ZM29.7122 19.8276C28.7522 19.8276 28.2722 19.2756 28.2722 18.1716V14.6916H27.1082V13.7076H28.2722V12.0276H29.6162V13.7076H30.8402V14.6916H29.6162V17.9796C29.6162 18.2596 29.6802 18.4596 29.8082 18.5796C29.9362 18.6916 30.1442 18.7476 30.4322 18.7476H30.9002V19.8276H29.7122ZM34.6504 19.9716C34.0584 19.9716 33.5384 19.8396 33.0904 19.5756C32.6424 19.3116 32.2984 18.9396 32.0584 18.4596C31.8184 17.9796 31.6984 17.4236 31.6984 16.7916C31.6984 16.1436 31.8264 15.5756 32.0824 15.0876C32.3384 14.5996 32.6944 14.2236 33.1504 13.9596C33.6064 13.6956 34.1224 13.5636 34.6984 13.5636C35.5864 13.5636 36.2744 13.8756 36.7624 14.4996C37.2504 15.1236 37.5024 15.9796 37.5184 17.0676H33.1144C33.1544 17.6356 33.3104 18.0716 33.5824 18.3756C33.8544 18.6796 34.2304 18.8316 34.7104 18.8316C35.0704 18.8316 35.3704 18.7476 35.6104 18.5796C35.8504 18.4036 35.9984 18.1556 36.0544 17.8356H37.4464C37.3584 18.4916 37.0544 19.0116 36.5344 19.3956C36.0224 19.7796 35.3944 19.9716 34.6504 19.9716ZM36.1384 16.1676C36.1144 15.6956 35.9744 15.3356 35.7184 15.0876C35.4624 14.8316 35.1184 14.7036 34.6864 14.7036C34.2624 14.7036 33.9184 14.8316 33.6544 15.0876C33.3904 15.3356 33.2224 15.6956 33.1504 16.1676H36.1384ZM44.0717 19.9716C43.1597 19.9716 42.4437 19.6916 41.9237 19.1316C41.4037 18.5636 41.1437 17.7756 41.1437 16.7676C41.1437 15.7596 41.4037 14.9756 41.9237 14.4156C42.4517 13.8476 43.1757 13.5636 44.0957 13.5636C44.8717 13.5636 45.4997 13.7756 45.9797 14.1996C46.4677 14.6156 46.7557 15.2036 46.8437 15.9636H45.4397C45.4157 15.5556 45.2837 15.2436 45.0437 15.0276C44.8117 14.8116 44.4917 14.7036 44.0837 14.7036C43.5797 14.7036 43.1957 14.8796 42.9317 15.2316C42.6757 15.5756 42.5477 16.0836 42.5477 16.7556C42.5477 17.4356 42.6757 17.9516 42.9317 18.3036C43.1877 18.6556 43.5637 18.8316 44.0597 18.8316C44.4517 18.8316 44.7637 18.7236 44.9957 18.5076C45.2357 18.2916 45.3877 17.9716 45.4517 17.5476H46.8557C46.7517 18.3156 46.4557 18.9116 45.9677 19.3356C45.4877 19.7596 44.8557 19.9716 44.0717 19.9716ZM48.0771 11.5476H49.4211V14.6556C49.6371 14.2796 49.9171 14.0036 50.2611 13.8276C50.6051 13.6516 50.9691 13.5636 51.3531 13.5636C51.9771 13.5636 52.4811 13.7716 52.8651 14.1876C53.2491 14.5956 53.4411 15.1396 53.4411 15.8196V19.8276H52.0971V16.0596C52.0971 15.6436 51.9971 15.3196 51.7971 15.0876C51.5971 14.8556 51.3091 14.7396 50.9331 14.7396C50.4851 14.7396 50.1211 14.9036 49.8411 15.2316C49.5611 15.5516 49.4211 15.9756 49.4211 16.5036V19.8276H48.0771V11.5476ZM57.5957 19.9716C57.0037 19.9716 56.4837 19.8396 56.0357 19.5756C55.5877 19.3116 55.2437 18.9396 55.0037 18.4596C54.7637 17.9796 54.6437 17.4236 54.6437 16.7916C54.6437 16.1436 54.7717 15.5756 55.0277 15.0876C55.2837 14.5996 55.6397 14.2236 56.0957 13.9596C56.5517 13.6956 57.0677 13.5636 57.6437 13.5636C58.5317 13.5636 59.2197 13.8756 59.7077 14.4996C60.1957 15.1236 60.4477 15.9796 60.4637 17.0676H56.0597C56.0997 17.6356 56.2557 18.0716 56.5277 18.3756C56.7997 18.6796 57.1757 18.8316 57.6557 18.8316C58.0157 18.8316 58.3157 18.7476 58.5557 18.5796C58.7957 18.4036 58.9437 18.1556 58.9997 17.8356H60.3917C60.3037 18.4916 59.9997 19.0116 59.4797 19.3956C58.9677 19.7796 58.3397 19.9716 57.5957 19.9716ZM59.0837 16.1676C59.0597 15.6956 58.9197 15.3356 58.6637 15.0876C58.4077 14.8316 58.0637 14.7036 57.6317 14.7036C57.2077 14.7036 56.8637 14.8316 56.5997 15.0876C56.3357 15.3356 56.1677 15.6956 56.0957 16.1676H59.0837ZM64.3686 19.9716C63.4566 19.9716 62.7406 19.6916 62.2206 19.1316C61.7006 18.5636 61.4406 17.7756 61.4406 16.7676C61.4406 15.7596 61.7006 14.9756 62.2206 14.4156C62.7486 13.8476 63.4726 13.5636 64.3926 13.5636C65.1686 13.5636 65.7966 13.7756 66.2766 14.1996C66.7646 14.6156 67.0526 15.2036 67.1406 15.9636H65.7366C65.7126 15.5556 65.5806 15.2436 65.3406 15.0276C65.1086 14.8116 64.7886 14.7036 64.3806 14.7036C63.8766 14.7036 63.4926 14.8796 63.2286 15.2316C62.9726 15.5756 62.8446 16.0836 62.8446 16.7556C62.8446 17.4356 62.9726 17.9516 63.2286 18.3036C63.4846 18.6556 63.8606 18.8316 64.3566 18.8316C64.7486 18.8316 65.0606 18.7236 65.2926 18.5076C65.5326 18.2916 65.6846 17.9716 65.7486 17.5476H67.1526C67.0486 18.3156 66.7526 18.9116 66.2646 19.3356C65.7846 19.7596 65.1526 19.9716 64.3686 19.9716ZM68.3985 11.5476H69.7425V16.1316L72.0105 13.7076H73.6785L71.5305 15.9156L73.9665 19.8276H72.3945L70.6065 16.8756L69.7425 17.7756V19.8276H68.3985V11.5476ZM73.8602 15.7956H76.8482V16.7796H73.8602V15.7956ZM80.7419 19.9716C80.1339 19.9716 79.6019 19.8396 79.1459 19.5756C78.6899 19.3116 78.3379 18.9396 78.0899 18.4596C77.8419 17.9716 77.7179 17.4076 77.7179 16.7676C77.7179 16.1276 77.8419 15.5676 78.0899 15.0876C78.3379 14.5996 78.6899 14.2236 79.1459 13.9596C79.6019 13.6956 80.1339 13.5636 80.7419 13.5636C81.3499 13.5636 81.8819 13.6956 82.3379 13.9596C82.7939 14.2236 83.1459 14.5996 83.3939 15.0876C83.6419 15.5676 83.7659 16.1276 83.7659 16.7676C83.7659 17.4076 83.6419 17.9716 83.3939 18.4596C83.1459 18.9396 82.7939 19.3116 82.3379 19.5756C81.8819 19.8396 81.3499 19.9716 80.7419 19.9716ZM80.7419 18.8316C81.2619 18.8316 81.6619 18.6556 81.9419 18.3036C82.2299 17.9436 82.3739 17.4316 82.3739 16.7676C82.3739 16.1036 82.2299 15.5956 81.9419 15.2436C81.6619 14.8836 81.2619 14.7036 80.7419 14.7036C80.2219 14.7036 79.8219 14.8836 79.5419 15.2436C79.2619 15.6036 79.1219 16.1116 79.1219 16.7676C79.1219 17.4236 79.2619 17.9316 79.5419 18.2916C79.8219 18.6516 80.2219 18.8316 80.7419 18.8316ZM87.0418 19.9716C86.4258 19.9716 85.9258 19.7596 85.5418 19.3356C85.1578 18.9036 84.9658 18.3396 84.9658 17.6436V13.7076H86.3098V17.4756C86.3098 17.8916 86.4098 18.2156 86.6098 18.4476C86.8098 18.6796 87.0978 18.7956 87.4738 18.7956C87.9218 18.7956 88.2858 18.6356 88.5658 18.3156C88.8458 17.9876 88.9858 17.5596 88.9858 17.0316V13.7076H90.3298V19.8276H89.0218L88.9858 18.9156C88.7698 19.2596 88.4858 19.5236 88.1338 19.7076C87.7898 19.8836 87.4258 19.9716 87.0418 19.9716ZM93.8724 19.8276C92.9124 19.8276 92.4324 19.2756 92.4324 18.1716V14.6916H91.2684V13.7076H92.4324V12.0276H93.7764V13.7076H95.0004V14.6916H93.7764V17.9796C93.7764 18.2596 93.8404 18.4596 93.9684 18.5796C94.0964 18.6916 94.3044 18.7476 94.5924 18.7476H95.0604V19.8276H93.8724Z" fill="#1F1F1F"/>
</svg>
