<svg version="1.1" id="Layer_1" xmlns="http://www.w3.org/2000/svg" x="0" y="0" viewBox="0 0 625.4 128.2" xml:space="preserve"><g id="Layer_2_1_"><g id="Layer_1-2" fill="#fff"><path d="M205.5 72.7l-24.6-34.5-.4-.6h-5.6v52.2h8.1l-.1-33.6L203 83.4h4.9l20.2-27.3.1 32.3v1.4h8V37.6h-5.7zM267 45.3c-12.3-.1-22.4 9.9-22.4 22.2v.5c-.3 12.4 9.5 22.6 21.9 22.9 12.4.3 22.6-9.5 22.9-21.9v-.9c.2-12.3-9.6-22.5-21.9-22.7-.2-.1-.3-.1-.5-.1zM281.6 68c0 8.7-6.3 15.2-14.7 15.2s-14.7-6.6-14.7-15.2 6.3-15.2 14.7-15.2 14.7 6.5 14.7 15.2zM318.6 45.3c-11.9 0-20.9 9.8-20.9 22.7 0 13.1 9.2 22.7 21.8 22.7 7.1 0 13.7-3 17.7-8l.8-.9-5.5-5.2-.9 1.1c-2.9 3.6-7.4 5.7-12.1 5.6-7.5 0-13.1-5.5-14-13.4h33.1l.1-1.2c.1-.6.1-1.3.1-1.9.1-12.3-8.6-21.5-20.2-21.5zm-12.5 17.2c1.9-5.9 6.7-9.7 12.5-9.7s10.8 4 12.1 9.7h-24.6zM368.9 45.3c-4.8-.1-9.5 1.6-13.1 4.7v-3.8h-7.5v43.5h7.8V60.4c2.6-4.6 7.5-7.5 12.9-7.6 3.8-.1 7.4 1.8 9.6 4.9 1.1 1.6 2.1 3.8 2.1 9.3v22.8h7.7V66.6c0-7.4-1.5-10.9-3.8-13.9-3.8-4.8-9.6-7.6-15.7-7.4zM444.7 72.7l-24.6-34.5-.4-.6H414v52.2h8.1V56.2l19.7 26.6.3.6h5.1l20.1-27.2v33.6h8V37.6h-5.5zM520.3 50.1c-3.9-3.1-8.7-4.8-13.7-4.8s-9.9 1.7-13.9 4.9c-5.2 4.5-8.1 11-8.1 17.8-.3 12.2 9.3 22.3 21.5 22.6h.7c4.9.1 9.7-1.7 13.4-4.9v4h7.5V46.2h-7.5v3.9zM492.4 68c-.1-4.6 1.8-9 5.3-12 2.6-2.1 5.8-3.2 9-3.2 5.4.1 10.4 2.9 13.4 7.3v15.1c-3 5-8 8-13.3 8-8 0-14.5-6.6-14.4-14.6V68zM561.3 45.7l-1.3-.2c-.7-.1-2.6-.2-3.3-.2-4.2 0-8.4 1.5-11.6 4.2v-3.3h-7.7v43.5h7.7v-29c1.9-4.7 6.4-7.8 11.5-8 .7 0 1.5 0 2.2.1l2.5-7.1zM568.1 46.2h7.7v43.5h-7.7zM621.7 52.8c-3.7-4.8-9.5-7.6-15.6-7.4-4.8-.1-9.4 1.6-13.1 4.7v-3.8h-7.6v43.5h7.7V60.4c2.6-4.6 7.5-7.5 12.9-7.6 3.8-.1 7.4 1.8 9.6 4.9 1.1 1.6 2.1 3.8 2.1 9.3v22.8h7.7V66.6c0-7.4-1.5-10.9-3.7-13.8zM568.2 33.2h7.5v7.5h-7.5zM41 120.9h9.4c.1 0 .3 0 .4.1l8.9 7c.2.2.5.2.8 0l9-7c.1-.1.2-.1.4-.1h8.4c22.3 0 42-17.9 42-39.1V39.1c0-21.2-19.8-39.1-42-39.1H42C19.8 0 0 17.9 0 39.1v42.8C0 103.1 19.8 121 42 121m0-8.9C24.9 112.1 8.8 98 8.8 81.8V39.1C8.8 23 24.9 8.8 42 8.8h36.3c17.2 0 33.2 14.1 33.2 30.3v42.8c0 16.1-16.1 30.3-33.2 30.3H66.8c-.1 0-.3 0-.4.1l-5.9 4.6c-.2.2-.5.2-.8 0l-5.9-4.6c-.1-.1-.2-.1-.4-.1H41"></path><path d="M72.1 99.7c15.5-.1 28.1-12.6 28.4-28.1v-4.8l-9 9.2c-1.4 3.7-3.6 8.4-6.7 10.7-3.8 2.6-8.2 4-12.8 4h-7.4V61.9h11.3l8.4-8.5H64.7V39.5l.2-.1c2.6-1.1 4.6-3.2 5.6-5.8 2.4-5.8-.4-12.4-6.1-14.7-2.2-.9-4.6-1.1-6.9-.5-3.3.8-6 3.1-7.5 6.1-2.6 5.6-.2 12.3 5.4 15h.1l.2.1v13.8H36l8.3 8.5h11.3v28.8h-7.5c-4.6 0-9-1.4-12.8-4-3.1-2.3-5.2-7-6.7-10.7l-9-9.2v4.8c.3 15.5 12.9 28 28.4 28.1h6l5.6 6.3c.2.2.6.3.8.1 0 0 .1 0 .1-.1l5.5-6.2 6.1-.1zM58.8 34c-2.7-.7-4.3-3.5-3.6-6.2.7-2.7 3.5-4.3 6.2-3.6 1.8.5 3.2 1.9 3.6 3.7.7 2.7-.9 5.5-3.6 6.2-.9.1-1.8.1-2.6-.1zM174.9 126.2l7.9-18.3h2.5l7.9 18.3h-3.7l-1.7-4.1h-7.4l-1.7 4.1h-3.8zm6.8-7.2h4.7l-2.3-5.4-2.4 5.4zM205.3 118.7v7.5h-3.5v-18.3h6.9c2.4 0 3.7.6 4.8 1.7 1.9 2.2 1.9 5.4 0 7.6-1 1-2.4 1.6-4.8 1.6h-3.4zm3.2-3.1c.8.1 1.6-.2 2.2-.7.4-.4.6-1 .6-1.6 0-.6-.2-1.1-.6-1.6-.6-.6-1.4-.8-2.2-.7h-3.2v4.6h3.2zM213.3 126.2l7.9-18.3h2.5l7.9 18.3h-3.7l-1.7-4.1h-7.4l-1.7 4.1h-3.8zm6.7-7.2h4.7l-2.3-5.4-2.4 5.4zM237.1 118.1v8.1h-3.5v-18.3h6.7c1.5-.1 2.9.4 4 1.4 2.1 1.9 2.2 5.2.2 7.3-.1.1-.1.2-.2.2-.5.5-1.2.9-1.8 1.1l6.9 8.4H245l-6.5-8.1-1.4-.1zm2.9-3.2c.6.1 1.3-.1 1.8-.6.7-.8.7-2 0-2.8-.5-.5-1.1-.7-1.8-.6h-2.9v3.9l2.9.1zM261.6 107.8v3.2h-4.8v15.2h-3.5V111h-4.8v-3.1l13.1-.1zM279.1 107.6c5.2.1 9.4 4.4 9.3 9.6s-4.4 9.4-9.6 9.3c-5.2-.1-9.3-4.3-9.3-9.4-.1-5.1 4-9.3 9.1-9.4.2-.1.4-.1.5-.1zm0 15.7c3.5.2 6.4-2.5 6.6-6s-2.5-6.4-6-6.6c-3.5-.2-6.4 2.5-6.6 6v.3c-.1 3.4 2.5 6.2 5.9 6.3h.1zM295.1 111v3.8h5.6v3.1h-5.6v8.3h-3.5v-18.3h11v3.2h-7.5zM311.7 121.3c1.1 1.2 2.7 2 4.3 2 1.3.1 2.5-.8 2.7-2.1v-.2c0-2.3-3.4-2.6-5.9-4.1-1.6-.8-2.6-2.4-2.6-4.2 0-3.3 3-5.2 6-5.2 1.9 0 3.8.6 5.3 1.7l-1.8 2.6c-.9-.8-2-1.2-3.2-1.2-1.3 0-2.8.6-2.8 2 0 3 8.5 2 8.5 8.2 0 3.3-2.9 5.5-6.2 5.5-2.5 0-4.8-1-6.6-2.8l2.3-2.2zM327.7 117c-.1 3.4 2.6 6.2 6 6.3h.2c2 0 4-.9 5.2-2.5l2.4 2.2c-1.9 2.3-4.7 3.6-7.7 3.5-5.2.2-9.6-3.9-9.8-9.1-.2-5.2 3.9-9.6 9.1-9.8h.6c2.5 0 4.9.9 6.7 2.6l-2.3 2.4c-1.2-1.2-2.8-1.9-4.5-1.9-3.4 0-6.1 2.7-6.1 6.1.2.1.2.1.2.2zM342.6 126.2l7.9-18.3h2.5l7.9 18.3h-3.7l-1.7-4.1h-7.4l-1.7 4.1h-3.8zm6.8-7.2h4.7l-2.3-5.4-2.4 5.4zM362.9 107.8h3.5V123h7.7v3.1h-11.3v-18.3zM380.5 111v3.8h5.6v3.1h-5.6v5.1h7.7v3.1h-11.3v-18.3h11v3.2h-7.4zM390 126.2l7.9-18.3h2.5l7.9 18.3h-3.7l-1.7-4.1h-7.4l-1.7 4.1H390zm6.8-7.2h4.7l-2.3-5.4-2.4 5.4zM417.9 107.6c5.1-.2 9.4 3.8 9.6 8.9v.5c0 2.1-.7 4.2-1.9 5.8l3 3.3h-4l-1.1-1.3c-1.6 1-3.5 1.6-5.5 1.6-5.2.2-9.6-3.9-9.7-9.1-.2-5.2 3.9-9.6 9.1-9.7h.5zm0 15.7c1.1 0 2.3-.4 3.2-1l-4-4.5 2.2-1.9 3.8 4.3c.5-1 .8-2.1.8-3.2-.2-3.3-3-5.9-6.3-5.7s-5.9 3-5.7 6.3c.2 3.1 2.8 5.6 6 5.7z"></path></g></g></svg>