<svg width="201" height="60" viewBox="0 0 201 60" fill="none" xmlns="http://www.w3.org/2000/svg">
<path d="M0.346629 21V20.804C2.69863 19.936 3.11863 19.572 3.11863 15.4V3.5C2.58663 2.52 1.32663 1.624 0.402629 1.176V0.979999H6.56263C8.74663 4.76 10.9306 8.736 13.0586 13.048L19.3586 0.979999H24.8746V1.176C22.8586 1.932 22.5506 2.156 22.5506 4.508V17.472C22.5506 19.796 22.8586 20.048 24.8746 20.804V21H16.3626V20.804C18.3786 20.048 18.6866 19.796 18.6866 17.472V4.312H18.6306C15.6626 9.94 13.3386 14.252 11.7706 17.752H11.2666C8.83063 12.964 6.45063 8.68 3.95863 4.508V15.4C3.95863 19.572 4.40663 19.936 6.73063 20.804V21H0.346629ZM32.5042 21.28C28.5282 21.28 25.6722 18.704 25.6722 14.392C25.6722 9.968 28.6122 7.196 32.5882 7.196C36.5082 7.196 39.3922 9.8 39.3922 14.14C39.3922 18.508 36.4802 21.28 32.5042 21.28ZM33.1762 20.608C34.6602 20.608 35.8642 19.012 35.8642 15.904C35.8642 12.572 34.4642 7.868 31.9162 7.868C30.4882 7.868 29.2002 9.38 29.2002 12.572C29.2002 15.904 30.6002 20.608 33.1762 20.608ZM40.2913 21V20.804C41.8033 20.16 42.1393 19.88 42.1393 17.696V11.788C42.1393 9.52 41.8593 8.988 40.2633 8.26V8.092C42.0553 7.952 43.8473 7.644 45.4713 7.14L45.4153 9.912L45.4993 9.94C46.1153 8.288 47.4593 7.196 49.5313 7.196H50.5673L50.1753 10.976H49.9793C48.9713 9.968 47.9913 9.38 47.2633 9.38C46.5073 9.38 45.9473 9.94 45.5553 10.724V17.696C45.5553 19.88 45.9753 20.16 47.8793 20.804V21H40.2913ZM57.844 21.28C54.12 21.28 51.348 18.396 51.348 14.28C51.348 10.192 54.064 7.196 58.012 7.196C61.12 7.196 63.332 9.072 63.612 12.32V12.656H54.484V13.132C54.484 16.716 56.5 18.816 59.412 18.816C61.316 18.816 62.716 17.92 63.5 16.268L63.724 16.38C63.052 19.404 60.896 21.28 57.844 21.28ZM54.54 12.068L60.364 11.928C60.084 9.464 58.88 7.924 57.396 7.924C55.912 7.924 54.82 9.436 54.54 12.068ZM76.175 21.252C74.243 21.252 72.591 20.076 72.591 17.472V8.316H71.219V7.98C72.591 7.224 74.831 5.46 75.699 3.892H75.979V7.532H79.647L79.535 8.316H76.007L75.951 16.94C75.923 19.096 77.071 19.628 78.023 19.628C78.639 19.628 79.255 19.404 79.983 18.648L80.095 18.816C79.171 20.272 77.939 21.252 76.175 21.252ZM80.3225 21V20.804C81.8345 20.16 82.1705 19.88 82.1705 17.696V4.816C82.1705 2.408 81.9465 1.988 80.2945 1.176V0.979999C82.1705 0.867999 83.9065 0.532 85.5865 0.0279996V10.164C86.7905 8.372 88.4705 7.196 90.5145 7.196C92.3065 7.196 94.4345 8.176 94.4345 11.368V17.696C94.4345 19.88 94.7985 20.16 96.3105 20.804V21H89.1705V20.804C90.6825 20.16 91.0465 19.88 91.0465 17.696C91.0465 15.792 91.0745 13.58 91.0745 12.348C91.0745 9.744 90.2065 9.016 88.8905 9.016C87.6585 9.016 86.5945 9.632 85.5865 11.06V17.696C85.5865 19.88 85.9225 20.16 87.4345 20.804V21H80.3225ZM108.373 21.28C106.917 21.28 106.049 20.188 106.105 18.424L106.049 18.396C104.957 20.132 103.025 21.224 101.093 21.224C98.9648 21.224 97.4808 19.964 97.4808 18.088C97.4808 15.568 100.141 13.72 106.161 12.04L106.217 10.024C106.245 8.596 105.545 7.756 104.341 7.756C102.661 7.756 101.597 9.352 101.429 12.068L101.289 12.096L98.4608 10.444C99.6368 8.372 101.933 7.196 104.621 7.196C107.757 7.196 109.493 8.792 109.437 11.48L109.269 18.76C109.269 19.292 109.521 19.712 109.997 19.712C110.473 19.712 110.921 19.264 111.285 18.508L111.509 18.62C110.921 20.16 109.801 21.28 108.373 21.28ZM103.053 19.32C104.033 19.32 105.097 18.704 106.021 17.64L106.133 12.628C102.689 13.72 101.065 15.176 101.065 17.164C101.065 18.452 101.849 19.32 103.053 19.32ZM111.987 21V20.804C113.499 20.16 113.835 19.88 113.835 17.696V11.872C113.835 9.52 113.583 9.044 111.959 8.26V8.092C113.723 7.952 115.459 7.644 117.167 7.14V10.22C118.371 8.344 120.303 7.196 122.235 7.196C124.559 7.196 126.099 8.848 126.099 11.592V17.696C126.099 19.88 126.435 20.16 127.947 20.804V21H120.835V20.804C122.347 20.16 122.683 19.88 122.711 17.696C122.739 15.848 122.739 14.868 122.739 11.928C122.739 9.996 121.983 9.016 120.611 9.016C119.407 9.016 118.175 9.8 117.251 11.088V17.696C117.251 19.88 117.587 20.16 119.099 20.804V21H111.987ZM134.062 26.852L133.978 26.628C135.854 25.648 136.582 24.36 136.582 21.476V11.9C136.582 9.52 136.358 9.1 134.706 8.288V8.092C136.582 7.952 138.318 7.644 139.998 7.14V19.572C139.998 24.024 137.478 26.04 134.062 26.852ZM137.982 5.208C136.918 5.208 136.022 4.34 136.022 3.332C136.022 2.352 136.918 1.456 137.982 1.456C139.018 1.456 139.942 2.352 139.942 3.332C139.942 4.34 139.018 5.208 137.982 5.208ZM152.68 21.392L152.708 18.48L152.68 18.452C151.364 20.216 149.432 21.364 147.584 21.364C145.288 21.364 143.776 19.656 143.776 17.108V11.9C143.776 9.52 143.496 9.016 141.9 8.288V8.092C143.72 7.952 145.484 7.644 147.192 7.14C147.192 10.192 147.136 13.664 147.136 16.576C147.136 18.48 147.948 19.544 149.348 19.544C150.44 19.544 151.7 18.816 152.624 17.64V11.9C152.624 9.464 152.4 9.016 150.748 8.288V8.092C152.54 7.98 154.304 7.644 156.04 7.14V17.752C156.04 19.488 156.236 19.768 157.86 20.244V20.44L152.68 21.392ZM164.49 21.336C163.034 21.336 161.41 20.972 159.562 20.244L159.142 16.324L159.338 16.268C161.326 19.292 163.006 20.692 164.518 20.692C165.666 20.692 166.422 19.992 166.422 18.788C166.422 17.612 165.694 16.94 163.118 15.568C160.234 14.056 159.142 12.684 159.142 10.836C159.142 8.568 160.906 7.196 163.622 7.196C164.91 7.196 166.394 7.504 167.99 8.064L168.298 11.704L168.102 11.732C166.478 9.212 164.854 7.84 163.538 7.84C162.502 7.84 161.802 8.568 161.802 9.716C161.802 10.892 162.614 11.592 165.134 12.796C167.962 14.14 169.194 15.596 169.194 17.5C169.194 19.852 167.374 21.336 164.49 21.336ZM175.296 21.252C173.364 21.252 171.712 20.076 171.712 17.472V8.316H170.34V7.98C171.712 7.224 173.952 5.46 174.82 3.892H175.1V7.532H178.768L178.656 8.316H175.128L175.072 16.94C175.044 19.096 176.192 19.628 177.144 19.628C177.76 19.628 178.376 19.404 179.104 18.648L179.216 18.816C178.292 20.272 177.06 21.252 175.296 21.252ZM197.404 21.28C195.948 21.28 195.08 20.188 195.136 18.424L195.08 18.396C193.988 20.132 192.056 21.224 190.124 21.224C187.996 21.224 186.512 19.964 186.512 18.088C186.512 15.568 189.172 13.72 195.192 12.04L195.248 10.024C195.276 8.596 194.576 7.756 193.372 7.756C191.692 7.756 190.628 9.352 190.46 12.068L190.32 12.096L187.492 10.444C188.668 8.372 190.964 7.196 193.652 7.196C196.788 7.196 198.524 8.792 198.468 11.48L198.3 18.76C198.3 19.292 198.552 19.712 199.028 19.712C199.504 19.712 199.952 19.264 200.316 18.508L200.54 18.62C199.952 20.16 198.832 21.28 197.404 21.28ZM192.084 19.32C193.064 19.32 194.128 18.704 195.052 17.64L195.164 12.628C191.72 13.72 190.096 15.176 190.096 17.164C190.096 18.452 190.88 19.32 192.084 19.32ZM12.68 54.28C8.70397 54.28 5.84797 51.704 5.84797 47.392C5.84797 42.968 8.78797 40.196 12.764 40.196C16.684 40.196 19.568 42.8 19.568 47.14C19.568 51.508 16.656 54.28 12.68 54.28ZM13.352 53.608C14.836 53.608 16.04 52.012 16.04 48.904C16.04 45.572 14.64 40.868 12.092 40.868C10.664 40.868 9.37597 42.38 9.37597 45.572C9.37597 48.904 10.776 53.608 13.352 53.608ZM20.467 54V53.804C21.979 53.16 22.315 52.88 22.315 50.696V44.872C22.315 42.52 22.063 42.044 20.439 41.26V41.092C22.203 40.952 23.939 40.644 25.647 40.14V43.22C26.851 41.344 28.783 40.196 30.715 40.196C33.039 40.196 34.579 41.848 34.579 44.592V50.696C34.579 52.88 34.915 53.16 36.427 53.804V54H29.315V53.804C30.827 53.16 31.163 52.88 31.191 50.696C31.219 48.848 31.219 47.868 31.219 44.928C31.219 42.996 30.463 42.016 29.091 42.016C27.887 42.016 26.655 42.8 25.731 44.088V50.696C25.731 52.88 26.067 53.16 27.579 53.804V54H20.467ZM43.5705 54.28C39.8465 54.28 37.0745 51.396 37.0745 47.28C37.0745 43.192 39.7905 40.196 43.7385 40.196C46.8465 40.196 49.0585 42.072 49.3385 45.32V45.656H40.2105V46.132C40.2105 49.716 42.2265 51.816 45.1385 51.816C47.0425 51.816 48.4425 50.92 49.2265 49.268L49.4505 49.38C48.7785 52.404 46.6225 54.28 43.5705 54.28ZM40.2665 45.068L46.0905 44.928C45.8105 42.464 44.6065 40.924 43.1225 40.924C41.6385 40.924 40.5465 42.436 40.2665 45.068ZM56.8616 54V53.804C58.3736 53.16 58.7096 52.88 58.7096 50.696V44.872C58.7096 42.52 58.4576 42.044 56.8336 41.26V41.092C58.5976 40.952 60.3336 40.644 62.0416 40.14V43.22C63.2456 41.344 65.1776 40.196 67.1096 40.196C69.4336 40.196 70.9736 41.848 70.9736 44.592V50.696C70.9736 52.88 71.3096 53.16 72.8216 53.804V54H65.7096V53.804C67.2216 53.16 67.5576 52.88 67.5856 50.696C67.6136 48.848 67.6136 47.868 67.6136 44.928C67.6136 42.996 66.8576 42.016 65.4856 42.016C64.2816 42.016 63.0496 42.8 62.1256 44.088V50.696C62.1256 52.88 62.4616 53.16 63.9736 53.804V54H56.8616ZM73.4045 54V53.804C74.9165 53.16 75.2525 52.88 75.2525 50.696V44.9C75.2525 42.52 75.0285 42.1 73.3765 41.288V41.092C75.2525 40.952 76.9885 40.644 78.6685 40.14V50.696C78.6685 52.88 79.0045 53.16 80.5165 53.804V54H73.4045ZM76.5965 38.208C75.5325 38.208 74.6365 37.34 74.6365 36.332C74.6365 35.352 75.5325 34.456 76.5965 34.456C77.6325 34.456 78.5565 35.352 78.5565 36.332C78.5565 37.34 77.6325 38.208 76.5965 38.208ZM87.6675 59.796C84.7555 59.796 81.1435 58.844 81.1435 56.8C81.1435 55.26 83.2155 54.308 84.9795 53.888C82.9075 53.412 82.0955 52.572 82.0955 51.62C82.0955 50.332 83.4395 49.324 85.3155 48.848C83.1035 48.316 81.6755 46.916 81.6755 44.648C81.6755 41.736 84.0275 40.196 87.1075 40.196H88.6475C90.7475 40.196 91.5595 39.272 91.7275 38.068L94.4995 38.684V38.796C93.9675 40.112 93.0995 40.728 90.9435 40.728H89.4035V40.812C91.6435 41.316 93.2395 42.52 93.2395 44.844C93.2395 47.448 91.1115 49.072 87.4435 49.072C86.9955 49.072 86.5475 49.044 86.1275 48.988C85.2595 49.212 84.7835 49.632 84.7835 50.108C84.7835 50.5 85.1195 50.668 85.5675 50.78C86.2675 50.948 89.9635 51.648 91.2235 51.984C93.6035 52.6 94.8075 53.776 94.8075 55.54C94.8075 58.788 90.6915 59.796 87.6675 59.796ZM87.9475 59.152C90.0195 59.152 92.0635 58.424 92.0635 56.884C92.0635 55.96 91.3075 55.232 90.0195 54.896C89.1795 54.672 86.7715 54.224 85.7075 54.028C84.8115 54.476 83.7475 55.316 83.7475 56.548C83.7475 58.284 85.6795 59.152 87.9475 59.152ZM87.9475 48.512C89.0675 48.512 90.0195 47.644 90.0195 45.6C90.0195 43.444 88.9555 40.756 87.1075 40.756C86.0155 40.756 84.9795 41.68 84.9795 43.752C84.9795 45.712 85.9035 48.512 87.9475 48.512ZM95.4436 54V53.804C96.9556 53.16 97.2916 52.88 97.2916 50.696V37.816C97.2916 35.408 97.0676 34.988 95.4156 34.176V33.98C97.2916 33.868 99.0276 33.532 100.708 33.028V43.164C101.912 41.372 103.592 40.196 105.636 40.196C107.428 40.196 109.556 41.176 109.556 44.368V50.696C109.556 52.88 109.92 53.16 111.432 53.804V54H104.292V53.804C105.804 53.16 106.168 52.88 106.168 50.696C106.168 48.792 106.196 46.58 106.196 45.348C106.196 42.744 105.328 42.016 104.012 42.016C102.78 42.016 101.716 42.632 100.708 44.06V50.696C100.708 52.88 101.044 53.16 102.556 53.804V54H95.4436ZM116.753 54.252C114.821 54.252 113.169 53.076 113.169 50.472V41.316H111.797V40.98C113.169 40.224 115.409 38.46 116.277 36.892H116.557V40.532H120.225L120.113 41.316H116.585L116.529 49.94C116.501 52.096 117.649 52.628 118.601 52.628C119.217 52.628 119.833 52.404 120.561 51.648L120.673 51.816C119.749 53.272 118.517 54.252 116.753 54.252ZM133.373 54.336C131.917 54.336 130.293 53.972 128.445 53.244L128.025 49.324L128.221 49.268C130.209 52.292 131.889 53.692 133.401 53.692C134.549 53.692 135.305 52.992 135.305 51.788C135.305 50.612 134.577 49.94 132.001 48.568C129.117 47.056 128.025 45.684 128.025 43.836C128.025 41.568 129.789 40.196 132.505 40.196C133.793 40.196 135.277 40.504 136.873 41.064L137.181 44.704L136.985 44.732C135.361 42.212 133.737 40.84 132.421 40.84C131.385 40.84 130.685 41.568 130.685 42.716C130.685 43.892 131.497 44.592 134.017 45.796C136.845 47.14 138.077 48.596 138.077 50.5C138.077 52.852 136.257 54.336 133.373 54.336ZM144.179 54.252C142.247 54.252 140.595 53.076 140.595 50.472V41.316H139.223V40.98C140.595 40.224 142.835 38.46 143.703 36.892H143.983V40.532H147.651L147.539 41.316H144.011L143.955 49.94C143.927 52.096 145.075 52.628 146.027 52.628C146.643 52.628 147.259 52.404 147.987 51.648L148.099 51.816C147.175 53.272 145.943 54.252 144.179 54.252ZM159.97 54.28C158.514 54.28 157.646 53.188 157.702 51.424L157.646 51.396C156.554 53.132 154.622 54.224 152.69 54.224C150.562 54.224 149.078 52.964 149.078 51.088C149.078 48.568 151.738 46.72 157.758 45.04L157.814 43.024C157.842 41.596 157.142 40.756 155.938 40.756C154.258 40.756 153.194 42.352 153.026 45.068L152.886 45.096L150.058 43.444C151.234 41.372 153.53 40.196 156.218 40.196C159.354 40.196 161.09 41.792 161.034 44.48L160.866 51.76C160.866 52.292 161.118 52.712 161.594 52.712C162.07 52.712 162.518 52.264 162.882 51.508L163.106 51.62C162.518 53.16 161.398 54.28 159.97 54.28ZM154.65 52.32C155.63 52.32 156.694 51.704 157.618 50.64L157.73 45.628C154.286 46.72 152.662 48.176 152.662 50.164C152.662 51.452 153.446 52.32 154.65 52.32ZM163.584 54V53.804C165.096 53.16 165.432 52.88 165.432 50.696V44.872C165.432 42.52 165.18 42.044 163.556 41.26V41.092C165.32 40.952 167.056 40.644 168.764 40.14V43.22C169.968 41.344 171.9 40.196 173.832 40.196C176.156 40.196 177.696 41.848 177.696 44.592V50.696C177.696 52.88 178.032 53.16 179.544 53.804V54H172.432V53.804C173.944 53.16 174.28 52.88 174.308 50.696C174.336 48.848 174.336 47.868 174.336 44.928C174.336 42.996 173.58 42.016 172.208 42.016C171.004 42.016 169.772 42.8 168.848 44.088V50.696C168.848 52.88 169.184 53.16 170.696 53.804V54H163.584ZM185.568 54.28C182.852 54.28 180.192 51.956 180.192 47.392C180.192 42.744 182.964 40.196 185.904 40.196C187.36 40.196 188.844 40.812 189.88 41.708V36.64C189.88 35.52 189.376 34.736 188.004 34.176V33.98C189.768 33.868 191.532 33.56 193.296 33.028V51.312C193.296 52.516 193.688 52.74 195.116 53.244V53.44L189.964 54.28L189.936 51.732H189.908C189.096 53.048 187.528 54.28 185.568 54.28ZM186.884 52.964C187.976 52.964 189.04 52.152 189.88 51.032V45.124C189.124 42.828 187.892 41.008 186.324 41.008C184.392 41.008 183.748 43.724 183.748 46.552C183.748 50.444 184.98 52.964 186.884 52.964Z" fill="white"/>
</svg>
