<svg width="167" height="32" viewBox="0 0 167 32" fill="none" xmlns="http://www.w3.org/2000/svg">
<rect x="0.144897" y="0.602539" width="166.273" height="31" rx="15.5" fill="#FDB370"/>
<path d="M14.7174 12.5042H17.9934C18.5774 12.5042 19.0894 12.6082 19.5294 12.8162C19.9694 13.0242 20.3094 13.3202 20.5494 13.7042C20.7894 14.0882 20.9094 14.5322 20.9094 15.0362C20.9094 15.5642 20.7894 16.0282 20.5494 16.4282C20.3094 16.8202 19.9694 17.1242 19.5294 17.3402C19.0894 17.5482 18.5774 17.6522 17.9934 17.6522H16.1454V20.7842H14.7174V12.5042ZM17.9334 16.4402C18.4294 16.4402 18.8094 16.3202 19.0734 16.0802C19.3374 15.8322 19.4694 15.4842 19.4694 15.0362C19.4694 14.6122 19.3334 14.2882 19.0614 14.0642C18.7974 13.8322 18.4214 13.7162 17.9334 13.7162H16.1454V16.4402H17.9334ZM24.7737 20.9282C24.1657 20.9282 23.6337 20.7962 23.1777 20.5322C22.7217 20.2682 22.3697 19.8962 22.1217 19.4162C21.8737 18.9282 21.7497 18.3642 21.7497 17.7242C21.7497 17.0842 21.8737 16.5242 22.1217 16.0442C22.3697 15.5562 22.7217 15.1802 23.1777 14.9162C23.6337 14.6522 24.1657 14.5202 24.7737 14.5202C25.3817 14.5202 25.9137 14.6522 26.3697 14.9162C26.8257 15.1802 27.1777 15.5562 27.4257 16.0442C27.6737 16.5242 27.7977 17.0842 27.7977 17.7242C27.7977 18.3642 27.6737 18.9282 27.4257 19.4162C27.1777 19.8962 26.8257 20.2682 26.3697 20.5322C25.9137 20.7962 25.3817 20.9282 24.7737 20.9282ZM24.7737 19.7882C25.2937 19.7882 25.6937 19.6122 25.9737 19.2602C26.2617 18.9002 26.4057 18.3882 26.4057 17.7242C26.4057 17.0602 26.2617 16.5522 25.9737 16.2002C25.6937 15.8402 25.2937 15.6602 24.7737 15.6602C24.2537 15.6602 23.8537 15.8402 23.5737 16.2002C23.2937 16.5602 23.1537 17.0682 23.1537 17.7242C23.1537 18.3802 23.2937 18.8882 23.5737 19.2482C23.8537 19.6082 24.2537 19.7882 24.7737 19.7882ZM31.3623 20.9282C30.5463 20.9282 29.9103 20.7362 29.4543 20.3522C28.9983 19.9602 28.7583 19.4202 28.7343 18.7322H30.0543C30.0703 19.1002 30.1943 19.3842 30.4263 19.5842C30.6583 19.7842 30.9823 19.8842 31.3983 19.8842C31.7503 19.8842 32.0263 19.8162 32.2263 19.6802C32.4263 19.5442 32.5263 19.3602 32.5263 19.1282C32.5263 18.8642 32.4023 18.6722 32.1543 18.5522C31.9143 18.4242 31.5423 18.3042 31.0383 18.1922C30.5743 18.0802 30.1983 17.9722 29.9103 17.8682C29.6223 17.7562 29.3743 17.5842 29.1663 17.3522C28.9663 17.1202 28.8663 16.8082 28.8663 16.4162C28.8663 15.8402 29.0863 15.3802 29.5263 15.0362C29.9743 14.6922 30.5663 14.5202 31.3023 14.5202C32.0543 14.5202 32.6383 14.7042 33.0543 15.0722C33.4703 15.4322 33.6943 15.9282 33.7263 16.5602H32.4063C32.3823 16.2242 32.2703 15.9682 32.0703 15.7922C31.8703 15.6162 31.5903 15.5282 31.2303 15.5282C30.9183 15.5282 30.6743 15.5922 30.4983 15.7202C30.3223 15.8402 30.2343 16.0122 30.2343 16.2362C30.2343 16.4922 30.3503 16.6802 30.5823 16.8002C30.8223 16.9122 31.1943 17.0282 31.6983 17.1482C32.1623 17.2602 32.5423 17.3722 32.8383 17.4842C33.1343 17.5962 33.3863 17.7722 33.5943 18.0122C33.8023 18.2522 33.9063 18.5802 33.9063 18.9962C33.9063 19.5962 33.6743 20.0682 33.2103 20.4122C32.7543 20.7562 32.1383 20.9282 31.3623 20.9282ZM37.4912 20.9282C36.6752 20.9282 36.0392 20.7362 35.5832 20.3522C35.1272 19.9602 34.8872 19.4202 34.8632 18.7322H36.1832C36.1992 19.1002 36.3232 19.3842 36.5552 19.5842C36.7872 19.7842 37.1112 19.8842 37.5272 19.8842C37.8792 19.8842 38.1552 19.8162 38.3552 19.6802C38.5552 19.5442 38.6552 19.3602 38.6552 19.1282C38.6552 18.8642 38.5312 18.6722 38.2832 18.5522C38.0432 18.4242 37.6712 18.3042 37.1672 18.1922C36.7032 18.0802 36.3272 17.9722 36.0392 17.8682C35.7512 17.7562 35.5032 17.5842 35.2952 17.3522C35.0952 17.1202 34.9952 16.8082 34.9952 16.4162C34.9952 15.8402 35.2152 15.3802 35.6552 15.0362C36.1032 14.6922 36.6952 14.5202 37.4312 14.5202C38.1832 14.5202 38.7672 14.7042 39.1832 15.0722C39.5992 15.4322 39.8232 15.9282 39.8552 16.5602H38.5352C38.5112 16.2242 38.3992 15.9682 38.1992 15.7922C37.9992 15.6162 37.7192 15.5282 37.3592 15.5282C37.0472 15.5282 36.8032 15.5922 36.6272 15.7202C36.4512 15.8402 36.3632 16.0122 36.3632 16.2362C36.3632 16.4922 36.4792 16.6802 36.7112 16.8002C36.9512 16.9122 37.3232 17.0282 37.8272 17.1482C38.2912 17.2602 38.6712 17.3722 38.9672 17.4842C39.2632 17.5962 39.5152 17.7722 39.7232 18.0122C39.9312 18.2522 40.0352 18.5802 40.0352 18.9962C40.0352 19.5962 39.8032 20.0682 39.3392 20.4122C38.8832 20.7562 38.2672 20.9282 37.4912 20.9282ZM41.3041 14.6642H42.6481V20.7842H41.3041V14.6642ZM41.2801 12.5042H42.6721V13.8722H41.2801V12.5042ZM47.3655 20.9282C46.9815 20.9282 46.6375 20.8482 46.3335 20.6882C46.0375 20.5282 45.7855 20.2962 45.5775 19.9922L45.5415 20.7842H44.2455V12.5042H45.5895V15.4202C46.0135 14.8202 46.6055 14.5202 47.3655 14.5202C47.8615 14.5202 48.3055 14.6522 48.6975 14.9162C49.0975 15.1722 49.4095 15.5442 49.6335 16.0322C49.8575 16.5122 49.9695 17.0762 49.9695 17.7242C49.9695 18.3722 49.8575 18.9402 49.6335 19.4282C49.4095 19.9082 49.0975 20.2802 48.6975 20.5442C48.3055 20.8002 47.8615 20.9282 47.3655 20.9282ZM47.0415 19.7882C47.5135 19.7882 47.8855 19.6042 48.1575 19.2362C48.4375 18.8602 48.5775 18.3562 48.5775 17.7242C48.5775 17.0922 48.4375 16.5922 48.1575 16.2242C47.8855 15.8482 47.5135 15.6602 47.0415 15.6602C46.5855 15.6602 46.2295 15.8442 45.9735 16.2122C45.7175 16.5722 45.5895 17.0762 45.5895 17.7242C45.5895 18.3722 45.7175 18.8802 45.9735 19.2482C46.2295 19.6082 46.5855 19.7882 47.0415 19.7882ZM51.2651 14.6642H52.6091V20.7842H51.2651V14.6642ZM51.2411 12.5042H52.6331V13.8722H51.2411V12.5042ZM54.2065 12.5042H55.5505V20.7842H54.2065V12.5042ZM57.1479 14.6642H58.4919V20.7842H57.1479V14.6642ZM57.1239 12.5042H58.5159V13.8722H57.1239V12.5042ZM62.0213 20.7842C61.0613 20.7842 60.5813 20.2322 60.5813 19.1282V15.6482H59.4173V14.6642H60.5813V12.9842L61.9253 12.9842V14.6642H63.1493V15.6482H61.9253V18.9362C61.9253 19.2162 61.9893 19.4162 62.1173 19.5362C62.2453 19.6482 62.4533 19.7042 62.7413 19.7042H63.2093V20.7842H62.0213ZM64.3783 14.6642H65.7223V20.7842H64.3783V14.6642ZM64.3543 12.5042H65.7463V13.8722H64.3543V12.5042ZM69.9477 20.9282C69.3557 20.9282 68.8357 20.7962 68.3877 20.5322C67.9397 20.2682 67.5957 19.8962 67.3557 19.4162C67.1157 18.9362 66.9957 18.3802 66.9957 17.7482C66.9957 17.1002 67.1237 16.5322 67.3797 16.0442C67.6357 15.5562 67.9917 15.1802 68.4477 14.9162C68.9037 14.6522 69.4197 14.5202 69.9957 14.5202C70.8837 14.5202 71.5717 14.8322 72.0597 15.4562C72.5477 16.0802 72.7997 16.9362 72.8157 18.0242H68.4117C68.4517 18.5922 68.6077 19.0282 68.8797 19.3322C69.1517 19.6362 69.5277 19.7882 70.0077 19.7882C70.3677 19.7882 70.6677 19.7042 70.9077 19.5362C71.1477 19.3602 71.2957 19.1122 71.3517 18.7922H72.7437C72.6557 19.4482 72.3517 19.9682 71.8317 20.3522C71.3197 20.7362 70.6917 20.9282 69.9477 20.9282ZM71.4357 17.1242C71.4117 16.6522 71.2717 16.2922 71.0157 16.0442C70.7597 15.7882 70.4157 15.6602 69.9837 15.6602C69.5597 15.6602 69.2157 15.7882 68.9517 16.0442C68.6877 16.2922 68.5197 16.6522 68.4477 17.1242H71.4357ZM76.3975 20.9282C75.5815 20.9282 74.9455 20.7362 74.4895 20.3522C74.0335 19.9602 73.7935 19.4202 73.7695 18.7322H75.0895C75.1055 19.1002 75.2295 19.3842 75.4615 19.5842C75.6935 19.7842 76.0175 19.8842 76.4335 19.8842C76.7855 19.8842 77.0615 19.8162 77.2615 19.6802C77.4615 19.5442 77.5615 19.3602 77.5615 19.1282C77.5615 18.8642 77.4375 18.6722 77.1895 18.5522C76.9495 18.4242 76.5775 18.3042 76.0735 18.1922C75.6095 18.0802 75.2335 17.9722 74.9455 17.8682C74.6575 17.7562 74.4095 17.5842 74.2015 17.3522C74.0015 17.1202 73.9015 16.8082 73.9015 16.4162C73.9015 15.8402 74.1215 15.3802 74.5615 15.0362C75.0095 14.6922 75.6015 14.5202 76.3375 14.5202C77.0895 14.5202 77.6735 14.7042 78.0895 15.0722C78.5055 15.4322 78.7295 15.9282 78.7615 16.5602H77.4415C77.4175 16.2242 77.3055 15.9682 77.1055 15.7922C76.9055 15.6162 76.6255 15.5282 76.2655 15.5282C75.9535 15.5282 75.7095 15.5922 75.5335 15.7202C75.3575 15.8402 75.2695 16.0122 75.2695 16.2362C75.2695 16.4922 75.3855 16.6802 75.6175 16.8002C75.8575 16.9122 76.2295 17.0282 76.7335 17.1482C77.1975 17.2602 77.5775 17.3722 77.8735 17.4842C78.1695 17.5962 78.4215 17.7722 78.6295 18.0122C78.8375 18.2522 78.9415 18.5802 78.9415 18.9962C78.9415 19.5962 78.7095 20.0682 78.2455 20.4122C77.7895 20.7562 77.1735 20.9282 76.3975 20.9282ZM83.386 14.1602C83.386 13.6242 83.51 13.2162 83.758 12.9362C84.014 12.6482 84.386 12.5042 84.874 12.5042H86.014V13.5842H85.342C85.134 13.5842 84.978 13.6402 84.874 13.7522C84.778 13.8562 84.73 14.0242 84.73 14.2562V14.6642H85.954V15.6482H84.73V20.7842H83.386V15.6482H82.222V14.6642H83.386V14.1602ZM89.7776 20.9282C89.1696 20.9282 88.6376 20.7962 88.1816 20.5322C87.7256 20.2682 87.3736 19.8962 87.1256 19.4162C86.8776 18.9282 86.7536 18.3642 86.7536 17.7242C86.7536 17.0842 86.8776 16.5242 87.1256 16.0442C87.3736 15.5562 87.7256 15.1802 88.1816 14.9162C88.6376 14.6522 89.1696 14.5202 89.7776 14.5202C90.3856 14.5202 90.9176 14.6522 91.3736 14.9162C91.8296 15.1802 92.1816 15.5562 92.4296 16.0442C92.6776 16.5242 92.8016 17.0842 92.8016 17.7242C92.8016 18.3642 92.6776 18.9282 92.4296 19.4162C92.1816 19.8962 91.8296 20.2682 91.3736 20.5322C90.9176 20.7962 90.3856 20.9282 89.7776 20.9282ZM89.7776 19.7882C90.2976 19.7882 90.6976 19.6122 90.9776 19.2602C91.2656 18.9002 91.4096 18.3882 91.4096 17.7242C91.4096 17.0602 91.2656 16.5522 90.9776 16.2002C90.6976 15.8402 90.2976 15.6602 89.7776 15.6602C89.2576 15.6602 88.8576 15.8402 88.5776 16.2002C88.2976 16.5602 88.1576 17.0682 88.1576 17.7242C88.1576 18.3802 88.2976 18.8882 88.5776 19.2482C88.8576 19.6082 89.2576 19.7882 89.7776 19.7882ZM94.0854 14.6642H95.4294V15.6482C95.7734 14.9922 96.3174 14.6642 97.0614 14.6642H97.5894V15.9602H96.9294C96.4174 15.9602 96.0374 16.1122 95.7894 16.4162C95.5494 16.7122 95.4294 17.1802 95.4294 17.8202V20.7842H94.0854V14.6642ZM103.366 20.9282C102.75 20.9282 102.25 20.7162 101.866 20.2922C101.482 19.8602 101.29 19.2962 101.29 18.6002V14.6642H102.634V18.4322C102.634 18.8482 102.734 19.1722 102.934 19.4042C103.134 19.6362 103.422 19.7522 103.798 19.7522C104.246 19.7522 104.61 19.5922 104.89 19.2722C105.17 18.9442 105.31 18.5162 105.31 17.9882V14.6642H106.654V20.7842H105.346L105.31 19.8722C105.094 20.2162 104.81 20.4802 104.458 20.6642C104.114 20.8402 103.75 20.9282 103.366 20.9282ZM111.385 14.5202C111.881 14.5202 112.325 14.6522 112.717 14.9162C113.117 15.1722 113.429 15.5442 113.653 16.0322C113.877 16.5122 113.989 17.0762 113.989 17.7242C113.989 18.3722 113.877 18.9402 113.653 19.4282C113.429 19.9082 113.117 20.2802 112.717 20.5442C112.325 20.8002 111.881 20.9282 111.385 20.9282C110.625 20.9282 110.033 20.6282 109.609 20.0282V22.9442H108.265V14.6642H109.561L109.597 15.4562C109.805 15.1522 110.057 14.9202 110.353 14.7602C110.657 14.6002 111.001 14.5202 111.385 14.5202ZM111.061 15.6602C110.605 15.6602 110.249 15.8442 109.993 16.2122C109.737 16.5722 109.609 17.0762 109.609 17.7242C109.609 18.3722 109.737 18.8802 109.993 19.2482C110.249 19.6082 110.605 19.7882 111.061 19.7882C111.533 19.7882 111.905 19.6042 112.177 19.2362C112.457 18.8602 112.597 18.3562 112.597 17.7242C112.597 17.0922 112.457 16.5922 112.177 16.2242C111.905 15.8482 111.533 15.6602 111.061 15.6602ZM117.828 23.0882C117.1 23.0882 116.504 22.9162 116.04 22.5722C115.576 22.2362 115.304 21.7762 115.224 21.1922H116.628C116.684 21.4562 116.824 21.6602 117.048 21.8042C117.28 21.9482 117.56 22.0202 117.888 22.0202C118.32 22.0202 118.652 21.8922 118.884 21.6362C119.124 21.3802 119.244 21.0202 119.244 20.5562V19.8122C119.044 20.1002 118.796 20.3242 118.5 20.4842C118.204 20.6362 117.868 20.7122 117.492 20.7122C117.004 20.7122 116.572 20.5882 116.196 20.3402C115.82 20.0842 115.524 19.7242 115.308 19.2602C115.092 18.7882 114.984 18.2402 114.984 17.6162C114.984 16.9922 115.092 16.4482 115.308 15.9842C115.524 15.5122 115.82 15.1522 116.196 14.9042C116.58 14.6482 117.012 14.5202 117.492 14.5202C117.868 14.5202 118.204 14.6002 118.5 14.7602C118.804 14.9202 119.056 15.1482 119.256 15.4442L119.292 14.6642H120.588V20.4362C120.588 21.2522 120.34 21.8962 119.844 22.3682C119.348 22.8482 118.676 23.0882 117.828 23.0882ZM117.876 19.6442C118.308 19.6442 118.644 19.4682 118.884 19.1162C119.124 18.7562 119.244 18.2562 119.244 17.6162C119.244 16.9762 119.124 16.4802 118.884 16.1282C118.644 15.7682 118.308 15.5882 117.876 15.5882C117.428 15.5882 117.068 15.7722 116.796 16.1402C116.524 16.5082 116.388 17.0002 116.388 17.6162C116.388 18.2322 116.524 18.7242 116.796 19.0922C117.068 19.4602 117.428 19.6442 117.876 19.6442ZM122.117 14.6642H123.461V15.6482C123.805 14.9922 124.349 14.6642 125.093 14.6642H125.621V15.9602H124.961C124.449 15.9602 124.069 16.1122 123.821 16.4162C123.581 16.7122 123.461 17.1802 123.461 17.8202V20.7842H122.117V14.6642ZM128.416 20.9282C127.816 20.9282 127.336 20.7682 126.976 20.4482C126.616 20.1282 126.436 19.6882 126.436 19.1282C126.436 18.6562 126.556 18.2922 126.796 18.0362C127.044 17.7722 127.336 17.5882 127.672 17.4842C128.008 17.3722 128.436 17.2762 128.956 17.1962C129.468 17.1082 129.832 17.0202 130.048 16.9322C130.272 16.8442 130.384 16.6922 130.384 16.4762C130.384 16.2762 130.296 16.0922 130.12 15.9242C129.944 15.7482 129.656 15.6602 129.256 15.6602C128.88 15.6602 128.58 15.7442 128.356 15.9122C128.14 16.0802 128.02 16.3202 127.996 16.6322H126.676C126.7 15.9602 126.948 15.4402 127.42 15.0722C127.892 14.7042 128.512 14.5202 129.28 14.5202C129.968 14.5202 130.548 14.6842 131.02 15.0122C131.492 15.3402 131.728 15.9002 131.728 16.6922V19.0322C131.728 19.4162 131.74 19.7442 131.764 20.0162C131.788 20.2882 131.836 20.5442 131.908 20.7842H130.612C130.548 20.5762 130.508 20.3082 130.492 19.9802C130.252 20.2842 129.948 20.5202 129.58 20.6882C129.212 20.8482 128.824 20.9282 128.416 20.9282ZM128.788 19.8602C129.212 19.8602 129.584 19.7442 129.904 19.5122C130.224 19.2722 130.384 18.9642 130.384 18.5882V17.6642C130.28 17.7842 130.14 17.8722 129.964 17.9282C129.788 17.9762 129.536 18.0282 129.208 18.0842C128.888 18.1402 128.632 18.1962 128.44 18.2522C128.256 18.3082 128.1 18.4002 127.972 18.5282C127.844 18.6482 127.78 18.8202 127.78 19.0442C127.78 19.3082 127.868 19.5122 128.044 19.6562C128.228 19.7922 128.476 19.8602 128.788 19.8602ZM135.647 20.9282C135.151 20.9282 134.703 20.8002 134.303 20.5442C133.911 20.2802 133.603 19.9082 133.379 19.4282C133.155 18.9402 133.043 18.3722 133.043 17.7242C133.043 17.0762 133.155 16.5122 133.379 16.0322C133.603 15.5442 133.911 15.1722 134.303 14.9162C134.703 14.6522 135.151 14.5202 135.647 14.5202C136.407 14.5202 136.999 14.8202 137.423 15.4202V12.5042H138.767V20.7842H137.471L137.435 20.0042C137.227 20.3002 136.971 20.5282 136.667 20.6882C136.363 20.8482 136.023 20.9282 135.647 20.9282ZM135.971 19.7882C136.427 19.7882 136.783 19.6082 137.039 19.2482C137.295 18.8802 137.423 18.3722 137.423 17.7242C137.423 17.0762 137.295 16.5722 137.039 16.2122C136.783 15.8442 136.427 15.6602 135.971 15.6602C135.507 15.6602 135.135 15.8482 134.855 16.2242C134.583 16.5922 134.447 17.0922 134.447 17.7242C134.447 18.3562 134.583 18.8602 134.855 19.2362C135.135 19.6042 135.507 19.7882 135.971 19.7882ZM143.002 20.9282C142.41 20.9282 141.89 20.7962 141.442 20.5322C140.994 20.2682 140.65 19.8962 140.41 19.4162C140.17 18.9362 140.05 18.3802 140.05 17.7482C140.05 17.1002 140.178 16.5322 140.434 16.0442C140.69 15.5562 141.046 15.1802 141.502 14.9162C141.958 14.6522 142.474 14.5202 143.05 14.5202C143.938 14.5202 144.626 14.8322 145.114 15.4562C145.602 16.0802 145.854 16.9362 145.87 18.0242H141.466C141.506 18.5922 141.662 19.0282 141.934 19.3322C142.206 19.6362 142.582 19.7882 143.062 19.7882C143.422 19.7882 143.722 19.7042 143.962 19.5362C144.202 19.3602 144.35 19.1122 144.406 18.7922H145.798C145.71 19.4482 145.406 19.9682 144.886 20.3522C144.374 20.7362 143.746 20.9282 143.002 20.9282ZM144.49 17.1242C144.466 16.6522 144.326 16.2922 144.07 16.0442C143.814 15.7882 143.47 15.6602 143.038 15.6602C142.614 15.6602 142.27 15.7882 142.006 16.0442C141.742 16.2922 141.574 16.6522 141.502 17.1242H144.49ZM149.452 20.9282C148.636 20.9282 148 20.7362 147.544 20.3522C147.088 19.9602 146.848 19.4202 146.824 18.7322H148.144C148.16 19.1002 148.284 19.3842 148.516 19.5842C148.748 19.7842 149.072 19.8842 149.488 19.8842C149.84 19.8842 150.116 19.8162 150.316 19.6802C150.516 19.5442 150.616 19.3602 150.616 19.1282C150.616 18.8642 150.492 18.6722 150.244 18.5522C150.004 18.4242 149.632 18.3042 149.128 18.1922C148.664 18.0802 148.288 17.9722 148 17.8682C147.712 17.7562 147.464 17.5842 147.256 17.3522C147.056 17.1202 146.956 16.8082 146.956 16.4162C146.956 15.8402 147.176 15.3802 147.616 15.0362C148.064 14.6922 148.656 14.5202 149.392 14.5202C150.144 14.5202 150.728 14.7042 151.144 15.0722C151.56 15.4322 151.784 15.9282 151.816 16.5602H150.496C150.472 16.2242 150.36 15.9682 150.16 15.7922C149.96 15.6162 149.68 15.5282 149.32 15.5282C149.008 15.5282 148.764 15.5922 148.588 15.7202C148.412 15.8402 148.324 16.0122 148.324 16.2362C148.324 16.4922 148.44 16.6802 148.672 16.8002C148.912 16.9122 149.284 17.0282 149.788 17.1482C150.252 17.2602 150.632 17.3722 150.928 17.4842C151.224 17.5962 151.476 17.7722 151.684 18.0122C151.892 18.2522 151.996 18.5802 151.996 18.9962C151.996 19.5962 151.764 20.0682 151.3 20.4122C150.844 20.7562 150.228 20.9282 149.452 20.9282Z" fill="#1F1F1F"/>
</svg>
