<svg width="273" height="79" viewBox="0 0 273 79" fill="none" xmlns="http://www.w3.org/2000/svg">
<path d="M0.722 29V28.734C3.914 27.556 4.484 27.062 4.484 21.4V5.25C3.762 3.92 2.052 2.704 0.798 2.096V1.83H9.158C12.122 6.96 15.086 12.356 17.974 18.208L26.524 1.83H34.01V2.096C31.274 3.122 30.856 3.426 30.856 6.618V24.212C30.856 27.366 31.274 27.708 34.01 28.734V29H22.458V28.734C25.194 27.708 25.612 27.366 25.612 24.212V6.352H25.536C21.508 13.99 18.354 19.842 16.226 24.592H15.542C12.236 18.094 9.006 12.28 5.624 6.618V21.4C5.624 27.062 6.232 27.556 9.386 28.734V29H0.722ZM44.3644 29.38C38.9684 29.38 35.0924 25.884 35.0924 20.032C35.0924 14.028 39.0824 10.266 44.4784 10.266C49.7984 10.266 53.7124 13.8 53.7124 19.69C53.7124 25.618 49.7604 29.38 44.3644 29.38ZM45.2764 28.468C47.2904 28.468 48.9244 26.302 48.9244 22.084C48.9244 17.562 47.0244 11.178 43.5664 11.178C41.6284 11.178 39.8804 13.23 39.8804 17.562C39.8804 22.084 41.7804 28.468 45.2764 28.468ZM54.9326 29V28.734C56.9846 27.86 57.4406 27.48 57.4406 24.516V16.498C57.4406 13.42 57.0606 12.698 54.8946 11.71V11.482C57.3266 11.292 59.7586 10.874 61.9626 10.19L61.8866 13.952L62.0006 13.99C62.8366 11.748 64.6606 10.266 67.4726 10.266H68.8786L68.3466 15.396H68.0806C66.7126 14.028 65.3826 13.23 64.3946 13.23C63.3686 13.23 62.6086 13.99 62.0766 15.054V24.516C62.0766 27.48 62.6466 27.86 65.2306 28.734V29H54.9326ZM78.7541 29.38C73.7001 29.38 69.9381 25.466 69.9381 19.88C69.9381 14.332 73.6241 10.266 78.9821 10.266C83.2001 10.266 86.2021 12.812 86.5821 17.22V17.676H74.1941V18.322C74.1941 23.186 76.9301 26.036 80.8821 26.036C83.4661 26.036 85.3661 24.82 86.4301 22.578L86.7341 22.73C85.8221 26.834 82.8961 29.38 78.7541 29.38ZM74.2701 16.878L82.1741 16.688C81.7941 13.344 80.1601 11.254 78.1461 11.254C76.1321 11.254 74.6501 13.306 74.2701 16.878ZM103.632 29.342C101.01 29.342 98.7679 27.746 98.7679 24.212V11.786H96.9059V11.33C98.7679 10.304 101.808 7.91 102.986 5.782H103.366V10.722H108.344L108.192 11.786H103.404L103.328 23.49C103.29 26.416 104.848 27.138 106.14 27.138C106.976 27.138 107.812 26.834 108.8 25.808L108.952 26.036C107.698 28.012 106.026 29.342 103.632 29.342ZM109.261 29V28.734C111.313 27.86 111.769 27.48 111.769 24.516V7.036C111.769 3.768 111.465 3.198 109.223 2.096V1.83C111.769 1.678 114.125 1.222 116.405 0.538V14.294C118.039 11.862 120.319 10.266 123.093 10.266C125.525 10.266 128.413 11.596 128.413 15.928V24.516C128.413 27.48 128.907 27.86 130.959 28.734V29H121.269V28.734C123.321 27.86 123.815 27.48 123.815 24.516C123.815 21.932 123.853 18.93 123.853 17.258C123.853 13.724 122.675 12.736 120.889 12.736C119.217 12.736 117.773 13.572 116.405 15.51V24.516C116.405 27.48 116.861 27.86 118.913 28.734V29H109.261ZM147.329 29.38C145.353 29.38 144.175 27.898 144.251 25.504L144.175 25.466C142.693 27.822 140.071 29.304 137.449 29.304C134.561 29.304 132.547 27.594 132.547 25.048C132.547 21.628 136.157 19.12 144.327 16.84L144.403 14.104C144.441 12.166 143.491 11.026 141.857 11.026C139.577 11.026 138.133 13.192 137.905 16.878L137.715 16.916L133.877 14.674C135.473 11.862 138.589 10.266 142.237 10.266C146.493 10.266 148.849 12.432 148.773 16.08L148.545 25.96C148.545 26.682 148.887 27.252 149.533 27.252C150.179 27.252 150.787 26.644 151.281 25.618L151.585 25.77C150.787 27.86 149.267 29.38 147.329 29.38ZM140.109 26.72C141.439 26.72 142.883 25.884 144.137 24.44L144.289 17.638C139.615 19.12 137.411 21.096 137.411 23.794C137.411 25.542 138.475 26.72 140.109 26.72ZM152.233 29V28.734C154.285 27.86 154.741 27.48 154.741 24.516V16.612C154.741 13.42 154.399 12.774 152.195 11.71V11.482C154.589 11.292 156.945 10.874 159.263 10.19V14.37C160.897 11.824 163.519 10.266 166.141 10.266C169.295 10.266 171.385 12.508 171.385 16.232V24.516C171.385 27.48 171.841 27.86 173.893 28.734V29H164.241V28.734C166.293 27.86 166.749 27.48 166.787 24.516C166.825 22.008 166.825 20.678 166.825 16.688C166.825 14.066 165.799 12.736 163.937 12.736C162.303 12.736 160.631 13.8 159.377 15.548V24.516C159.377 27.48 159.833 27.86 161.885 28.734V29H152.233ZM182.193 36.942L182.079 36.638C184.625 35.308 185.613 33.56 185.613 29.646V16.65C185.613 13.42 185.309 12.85 183.067 11.748V11.482C185.613 11.292 187.969 10.874 190.249 10.19V27.062C190.249 33.104 186.829 35.84 182.193 36.942ZM187.513 7.568C186.069 7.568 184.853 6.39 184.853 5.022C184.853 3.692 186.069 2.476 187.513 2.476C188.919 2.476 190.173 3.692 190.173 5.022C190.173 6.39 188.919 7.568 187.513 7.568ZM207.46 29.532L207.498 25.58L207.46 25.542C205.674 27.936 203.052 29.494 200.544 29.494C197.428 29.494 195.376 27.176 195.376 23.718V16.65C195.376 13.42 194.996 12.736 192.83 11.748V11.482C195.3 11.292 197.694 10.874 200.012 10.19C200.012 14.332 199.936 19.044 199.936 22.996C199.936 25.58 201.038 27.024 202.938 27.024C204.42 27.024 206.13 26.036 207.384 24.44V16.65C207.384 13.344 207.08 12.736 204.838 11.748V11.482C207.27 11.33 209.664 10.874 212.02 10.19V24.592C212.02 26.948 212.286 27.328 214.49 27.974V28.24L207.46 29.532ZM223.488 29.456C221.512 29.456 219.308 28.962 216.8 27.974L216.23 22.654L216.496 22.578C219.194 26.682 221.474 28.582 223.526 28.582C225.084 28.582 226.11 27.632 226.11 25.998C226.11 24.402 225.122 23.49 221.626 21.628C217.712 19.576 216.23 17.714 216.23 15.206C216.23 12.128 218.624 10.266 222.31 10.266C224.058 10.266 226.072 10.684 228.238 11.444L228.656 16.384L228.39 16.422C226.186 13.002 223.982 11.14 222.196 11.14C220.79 11.14 219.84 12.128 219.84 13.686C219.84 15.282 220.942 16.232 224.362 17.866C228.2 19.69 229.872 21.666 229.872 24.25C229.872 27.442 227.402 29.456 223.488 29.456ZM238.153 29.342C235.531 29.342 233.289 27.746 233.289 24.212V11.786H231.427V11.33C233.289 10.304 236.329 7.91 237.507 5.782H237.887V10.722H242.865L242.713 11.786H237.925L237.849 23.49C237.811 26.416 239.369 27.138 240.661 27.138C241.497 27.138 242.333 26.834 243.321 25.808L243.473 26.036C242.219 28.012 240.547 29.342 238.153 29.342ZM268.157 29.38C266.181 29.38 265.003 27.898 265.079 25.504L265.003 25.466C263.521 27.822 260.899 29.304 258.277 29.304C255.389 29.304 253.375 27.594 253.375 25.048C253.375 21.628 256.985 19.12 265.155 16.84L265.231 14.104C265.269 12.166 264.319 11.026 262.685 11.026C260.405 11.026 258.961 13.192 258.733 16.878L258.543 16.916L254.705 14.674C256.301 11.862 259.417 10.266 263.065 10.266C267.321 10.266 269.677 12.432 269.601 16.08L269.373 25.96C269.373 26.682 269.715 27.252 270.361 27.252C271.007 27.252 271.615 26.644 272.109 25.618L272.413 25.77C271.615 27.86 270.095 29.38 268.157 29.38ZM260.937 26.72C262.267 26.72 263.711 25.884 264.965 24.44L265.117 17.638C260.443 19.12 258.239 21.096 258.239 23.794C258.239 25.542 259.303 26.72 260.937 26.72ZM10.298 71.38C4.902 71.38 1.026 67.884 1.026 62.032C1.026 56.028 5.016 52.266 10.412 52.266C15.732 52.266 19.646 55.8 19.646 61.69C19.646 67.618 15.694 71.38 10.298 71.38ZM11.21 70.468C13.224 70.468 14.858 68.302 14.858 64.084C14.858 59.562 12.958 53.178 9.5 53.178C7.562 53.178 5.814 55.23 5.814 59.562C5.814 64.084 7.714 70.468 11.21 70.468ZM20.8662 71V70.734C22.9182 69.86 23.3742 69.48 23.3742 66.516V58.612C23.3742 55.42 23.0322 54.774 20.8282 53.71V53.482C23.2222 53.292 25.5782 52.874 27.8962 52.19V56.37C29.5302 53.824 32.1522 52.266 34.7742 52.266C37.9282 52.266 40.0182 54.508 40.0182 58.232V66.516C40.0182 69.48 40.4742 69.86 42.5262 70.734V71H32.8742V70.734C34.9262 69.86 35.3822 69.48 35.4202 66.516C35.4582 64.008 35.4582 62.678 35.4582 58.688C35.4582 56.066 34.4322 54.736 32.5702 54.736C30.9362 54.736 29.2642 55.8 28.0102 57.548V66.516C28.0102 69.48 28.4662 69.86 30.5182 70.734V71H20.8662ZM52.2209 71.38C47.1669 71.38 43.4049 67.466 43.4049 61.88C43.4049 56.332 47.0909 52.266 52.4489 52.266C56.6669 52.266 59.6689 54.812 60.0489 59.22V59.676H47.6609V60.322C47.6609 65.186 50.3969 68.036 54.3489 68.036C56.9329 68.036 58.8329 66.82 59.8969 64.578L60.2009 64.73C59.2889 68.834 56.3629 71.38 52.2209 71.38ZM47.7369 58.878L55.6409 58.688C55.2609 55.344 53.6269 53.254 51.6129 53.254C49.5989 53.254 48.1169 55.306 47.7369 58.878ZM70.2587 71V70.734C72.3107 69.86 72.7667 69.48 72.7667 66.516V58.612C72.7667 55.42 72.4247 54.774 70.2207 53.71V53.482C72.6147 53.292 74.9707 52.874 77.2887 52.19V56.37C78.9227 53.824 81.5447 52.266 84.1667 52.266C87.3207 52.266 89.4107 54.508 89.4107 58.232V66.516C89.4107 69.48 89.8667 69.86 91.9187 70.734V71H82.2667V70.734C84.3187 69.86 84.7747 69.48 84.8127 66.516C84.8507 64.008 84.8507 62.678 84.8507 58.688C84.8507 56.066 83.8247 54.736 81.9627 54.736C80.3287 54.736 78.6567 55.8 77.4027 57.548V66.516C77.4027 69.48 77.8587 69.86 79.9107 70.734V71H70.2587ZM92.7099 71V70.734C94.7619 69.86 95.2179 69.48 95.2179 66.516V58.65C95.2179 55.42 94.9139 54.85 92.6719 53.748V53.482C95.2179 53.292 97.5739 52.874 99.8539 52.19V66.516C99.8539 69.48 100.31 69.86 102.362 70.734V71H92.7099ZM97.0419 49.568C95.5979 49.568 94.3819 48.39 94.3819 47.022C94.3819 45.692 95.5979 44.476 97.0419 44.476C98.4479 44.476 99.7019 45.692 99.7019 47.022C99.7019 48.39 98.4479 49.568 97.0419 49.568ZM112.067 78.866C108.115 78.866 103.213 77.574 103.213 74.8C103.213 72.71 106.025 71.418 108.419 70.848C105.607 70.202 104.505 69.062 104.505 67.77C104.505 66.022 106.329 64.654 108.875 64.008C105.873 63.286 103.935 61.386 103.935 58.308C103.935 54.356 107.127 52.266 111.307 52.266H113.397C116.247 52.266 117.349 51.012 117.577 49.378L121.339 50.214V50.366C120.617 52.152 119.439 52.988 116.513 52.988H114.423V53.102C117.463 53.786 119.629 55.42 119.629 58.574C119.629 62.108 116.741 64.312 111.763 64.312C111.155 64.312 110.547 64.274 109.977 64.198C108.799 64.502 108.153 65.072 108.153 65.718C108.153 66.25 108.609 66.478 109.217 66.63C110.167 66.858 115.183 67.808 116.893 68.264C120.123 69.1 121.757 70.696 121.757 73.09C121.757 77.498 116.171 78.866 112.067 78.866ZM112.447 77.992C115.259 77.992 118.033 77.004 118.033 74.914C118.033 73.66 117.007 72.672 115.259 72.216C114.119 71.912 110.851 71.304 109.407 71.038C108.191 71.646 106.747 72.786 106.747 74.458C106.747 76.814 109.369 77.992 112.447 77.992ZM112.447 63.552C113.967 63.552 115.259 62.374 115.259 59.6C115.259 56.674 113.815 53.026 111.307 53.026C109.825 53.026 108.419 54.28 108.419 57.092C108.419 59.752 109.673 63.552 112.447 63.552ZM122.62 71V70.734C124.672 69.86 125.128 69.48 125.128 66.516V49.036C125.128 45.768 124.824 45.198 122.582 44.096V43.83C125.128 43.678 127.484 43.222 129.764 42.538V56.294C131.398 53.862 133.678 52.266 136.452 52.266C138.884 52.266 141.772 53.596 141.772 57.928V66.516C141.772 69.48 142.266 69.86 144.318 70.734V71H134.628V70.734C136.68 69.86 137.174 69.48 137.174 66.516C137.174 63.932 137.212 60.93 137.212 59.258C137.212 55.724 136.034 54.736 134.248 54.736C132.576 54.736 131.132 55.572 129.764 57.51V66.516C129.764 69.48 130.22 69.86 132.272 70.734V71H122.62ZM151.54 71.342C148.918 71.342 146.676 69.746 146.676 66.212V53.786H144.814V53.33C146.676 52.304 149.716 49.91 150.894 47.782H151.274V52.722H156.252L156.1 53.786H151.312L151.236 65.49C151.198 68.416 152.756 69.138 154.048 69.138C154.884 69.138 155.72 68.834 156.708 67.808L156.86 68.036C155.606 70.012 153.934 71.342 151.54 71.342ZM174.096 71.456C172.12 71.456 169.916 70.962 167.408 69.974L166.838 64.654L167.104 64.578C169.802 68.682 172.082 70.582 174.134 70.582C175.692 70.582 176.718 69.632 176.718 67.998C176.718 66.402 175.73 65.49 172.234 63.628C168.32 61.576 166.838 59.714 166.838 57.206C166.838 54.128 169.232 52.266 172.918 52.266C174.666 52.266 176.68 52.684 178.846 53.444L179.264 58.384L178.998 58.422C176.794 55.002 174.59 53.14 172.804 53.14C171.398 53.14 170.448 54.128 170.448 55.686C170.448 57.282 171.55 58.232 174.97 59.866C178.808 61.69 180.48 63.666 180.48 66.25C180.48 69.442 178.01 71.456 174.096 71.456ZM188.761 71.342C186.139 71.342 183.897 69.746 183.897 66.212V53.786H182.035V53.33C183.897 52.304 186.937 49.91 188.115 47.782H188.495V52.722H193.473L193.321 53.786H188.533L188.457 65.49C188.419 68.416 189.977 69.138 191.269 69.138C192.105 69.138 192.941 68.834 193.929 67.808L194.081 68.036C192.827 70.012 191.155 71.342 188.761 71.342ZM210.192 71.38C208.216 71.38 207.038 69.898 207.114 67.504L207.038 67.466C205.556 69.822 202.934 71.304 200.312 71.304C197.424 71.304 195.41 69.594 195.41 67.048C195.41 63.628 199.02 61.12 207.19 58.84L207.266 56.104C207.304 54.166 206.354 53.026 204.72 53.026C202.44 53.026 200.996 55.192 200.768 58.878L200.578 58.916L196.74 56.674C198.336 53.862 201.452 52.266 205.1 52.266C209.356 52.266 211.712 54.432 211.636 58.08L211.408 67.96C211.408 68.682 211.75 69.252 212.396 69.252C213.042 69.252 213.65 68.644 214.144 67.618L214.448 67.77C213.65 69.86 212.13 71.38 210.192 71.38ZM202.972 68.72C204.302 68.72 205.746 67.884 207 66.44L207.152 59.638C202.478 61.12 200.274 63.096 200.274 65.794C200.274 67.542 201.338 68.72 202.972 68.72ZM215.097 71V70.734C217.149 69.86 217.605 69.48 217.605 66.516V58.612C217.605 55.42 217.263 54.774 215.059 53.71V53.482C217.453 53.292 219.809 52.874 222.127 52.19V56.37C223.761 53.824 226.383 52.266 229.005 52.266C232.159 52.266 234.249 54.508 234.249 58.232V66.516C234.249 69.48 234.705 69.86 236.757 70.734V71H227.105V70.734C229.157 69.86 229.613 69.48 229.651 66.516C229.689 64.008 229.689 62.678 229.689 58.688C229.689 56.066 228.663 54.736 226.801 54.736C225.167 54.736 223.495 55.8 222.241 57.548V66.516C222.241 69.48 222.697 69.86 224.749 70.734V71H215.097ZM244.931 71.38C241.245 71.38 237.635 68.226 237.635 62.032C237.635 55.724 241.397 52.266 245.387 52.266C247.363 52.266 249.377 53.102 250.783 54.318V47.44C250.783 45.92 250.099 44.856 248.237 44.096V43.83C250.631 43.678 253.025 43.26 255.419 42.538V67.352C255.419 68.986 255.951 69.29 257.889 69.974V70.24L250.897 71.38L250.859 67.922H250.821C249.719 69.708 247.591 71.38 244.931 71.38ZM246.717 69.594C248.199 69.594 249.643 68.492 250.783 66.972V58.954C249.757 55.838 248.085 53.368 245.957 53.368C243.335 53.368 242.461 57.054 242.461 60.892C242.461 66.174 244.133 69.594 246.717 69.594Z" fill="white"/>
</svg>
