<svg width="67" height="564" viewBox="0 0 67 564" fill="none" xmlns="http://www.w3.org/2000/svg">
<mask id="mask0_87_324" style="mask-type:luminance" maskUnits="userSpaceOnUse" x="0" y="0" width="67" height="564">
<path d="M0.518283 0.89856L0.518311 563.157L66.5151 563.157L66.5151 0.898557L0.518283 0.89856Z" fill="white"/>
</mask>
<g mask="url(#mask0_87_324)">
<path d="M33.5167 563.157C7.72591 563.157 0.518309 540.742 0.518308 519.686C0.518307 495.637 8.67352 479.484 24.6977 477.486L24.6977 493.732C18.3448 495.183 12.6565 502.897 12.6565 519.414C12.6565 535.205 17.6793 547.547 33.5176 547.547C49.3558 547.547 54.3786 535.205 54.3786 519.414C54.3786 502.897 48.6862 495.182 42.2403 493.732L42.2403 477.486C58.3599 479.483 66.5168 495.636 66.5168 519.686C66.5151 540.742 59.3084 563.157 33.5167 563.157Z" fill="#48172C"/>
<path d="M1.27661 453.35L1.27661 468.959L65.7566 468.959L65.7566 453.35L1.27661 453.35Z" fill="#48172C"/>
<path d="M13.4143 375.391L13.4143 403.524L65.756 403.524L65.756 419.225L13.4143 419.225L13.4143 447.358L1.27771 447.358L1.27771 375.391L13.4143 375.391Z" fill="#48172C"/>
<path d="M65.7565 320.533L65.7565 336.143L40.2487 336.143L1.27661 373.351L1.27661 353.567L29.8224 328.337L1.27661 303.109L1.27661 283.324L40.2487 320.534L65.7565 320.533Z" fill="#48172C"/>
<path d="M1.27838 280.06L1.27838 235.591C1.27838 218.076 4.78675 205.733 17.3979 205.733C25.5532 205.733 29.2499 211.813 30.7684 220.98C32.287 210.361 36.2675 203.374 47.0772 203.374C61.3919 203.374 65.7575 216.266 65.7575 234.411L65.7575 280.06L1.27838 280.06ZM27.5438 235.227C27.5438 226.605 26.5962 220.253 20.1479 220.253C13.7942 220.253 12.8465 226.606 12.8465 235.227L12.8465 264.45L27.5438 264.45L27.5438 235.227ZM54.1902 234.683C54.1902 225.336 53.1471 219.073 46.035 219.073C38.9228 219.073 37.9743 225.336 37.9743 234.683L37.9743 264.45L54.1893 264.45L54.1902 234.683Z" fill="#48172C"/>
<path d="M33.5167 196.299C8.38723 196.299 0.518309 173.883 0.518308 152.831C0.518307 131.778 8.38723 109.267 33.5167 109.267C58.6462 109.267 66.5143 131.773 66.5143 152.831C66.5143 173.888 58.6453 196.301 33.5167 196.301M54.3777 152.831C54.3777 137.311 48.6853 124.969 33.5167 124.969C18.3481 124.969 12.6565 137.309 12.6565 152.831C12.6565 168.352 18.3489 180.692 33.5184 180.692C48.6878 180.692 54.3777 168.347 54.3777 152.831Z" fill="#48172C"/>
<path d="M1.27771 24.7722L32.5692 57.0801L65.756 23.864L65.756 44.1934L40.9136 67.7893L65.7568 91.4798L65.7568 111.804L32.5701 78.5881L1.27771 110.896L1.27771 91.1165L24.6986 67.7926L1.27771 44.5567L1.27771 24.7722Z" fill="#48172C"/>
<path d="M12.421 23.2896C10.9427 23.3024 9.4765 23.0223 8.10702 22.4654C6.73754 21.9085 5.49191 21.0859 4.44203 20.0451C3.39215 19.0042 2.55881 17.7658 1.9901 16.4012C1.4214 15.0366 1.1286 13.5728 1.1286 12.0944C1.1286 10.6161 1.4214 9.15231 1.9901 7.78769C2.55881 6.42307 3.39215 5.18458 4.44203 4.14374C5.49191 3.1029 6.73754 2.28031 8.10702 1.72343C9.4765 1.16655 10.9427 0.886402 12.421 0.899185C15.3734 0.924714 18.1962 2.11546 20.2749 4.2122C22.3536 6.30894 23.5199 9.14193 23.5199 12.0944C23.5199 15.0469 22.3536 17.8799 20.2749 19.9766C18.1962 22.0733 15.3734 23.2641 12.421 23.2896ZM21.6997 12.0789C21.7192 10.8596 21.4918 9.64882 21.0312 8.51961C20.5705 7.39039 19.8862 6.36604 19.0194 5.50819C18.1526 4.65035 17.1211 3.97672 15.9872 3.5279C14.8532 3.07909 13.6402 2.86437 12.421 2.89659C11.2079 2.88501 10.0044 3.11392 8.88027 3.57016C7.7561 4.0264 6.73349 4.70092 5.87153 5.55469C5.00957 6.40846 4.32534 7.42458 3.85839 8.54434C3.39143 9.6641 3.15101 10.8653 3.15101 12.0785C3.15101 13.2917 3.39143 14.4929 3.85839 15.6127C4.32534 16.7324 5.00957 17.7486 5.87153 18.6023C6.73349 19.4561 7.7561 20.1306 8.88027 20.5869C10.0044 21.0431 11.2079 21.272 12.421 21.2604C13.6401 21.2927 14.8531 21.0779 15.987 20.6292C17.1209 20.1804 18.1523 19.5069 19.0191 18.6491C19.8859 17.7914 20.5702 16.7671 21.0309 15.638C21.4916 14.5089 21.7191 13.2983 21.6997 12.0789ZM7.1045 16.3307L7.1045 11.5306C7.1045 9.01925 7.78089 7.40699 9.97247 7.40699C10.5372 7.3655 11.0981 7.52793 11.5532 7.86479C12.0083 8.20165 12.3275 8.69059 12.4529 9.24279C12.5809 8.14783 13.1292 7.63129 14.1271 7.63129L16.512 7.63129C16.8908 7.65994 17.27 7.58229 17.607 7.40699L17.7359 7.40699L17.7359 10.0807C17.3115 10.2254 16.8617 10.2804 16.4149 10.2423L14.2552 10.2423C13.547 10.2423 13.2891 10.5319 13.2891 11.4017L13.2891 13.723L17.7359 13.723L17.7359 16.3315L7.1045 16.3307ZM11.8083 12.3686C11.8083 10.9187 11.5504 10.0163 10.2621 10.0163C8.90849 10.0163 8.71595 10.9179 8.71595 12.3686L8.71595 13.7222L11.8083 13.7222L11.8083 12.3686Z" fill="#48172C"/>
</g>
</svg>
