<svg width="80" height="80" viewBox="0 0 80 80" fill="none" xmlns="http://www.w3.org/2000/svg">
<path d="M63.7033 40.0001C63.7033 53.0999 53.0994 63.7038 39.9996 63.7038V40.0001H63.7033ZM39.9996 16.2964V40.0001H16.2959C16.2959 26.9003 26.8998 16.2964 39.9996 16.2964Z" fill="#0166B1" style="fill:#0166B1;fill:color(display-p3 0.0039 0.4000 0.6941);fill-opacity:1;"/>
<path d="M39.9996 16.2964C53.0994 16.2964 63.7033 26.9003 63.7033 40.0001H39.9996V16.2964ZM16.2959 40.0001H39.9996V63.7038C26.8998 63.7038 16.2959 53.0999 16.2959 40.0001Z" fill="white" style="fill:white;fill-opacity:1;"/>
<path d="M40 16.2963V17.5959C52.3524 17.5959 62.4041 27.6452 62.4041 40H63.7037C63.7037 26.9096 53.0904 16.2963 40 16.2963ZM40 62.4041C27.6476 62.4041 17.5959 52.3548 17.5959 40H16.2963C16.2963 53.0904 26.9096 63.7037 40 63.7037M40 0C17.9092 0 0 17.9092 0 40C0 62.0908 17.9092 80 40 80C62.0908 80 80 62.0908 80 40C80 17.9092 62.0908 0 40 0ZM77.3989 40C77.3989 60.6538 60.6562 77.3989 40 77.3989C19.3438 77.3989 2.60113 60.6538 2.60113 40C2.60113 19.3462 19.3462 2.60113 40 2.60113C60.6538 2.60113 77.3989 19.3462 77.3989 40Z" fill="white" style="fill:white;fill-opacity:1;"/>
<path d="M22.9062 20.7034C24.1844 19.3663 24.9081 17.8216 23.6299 16.3468C22.9344 15.5464 21.7666 15.3714 20.7985 15.7658L20.7022 15.8031L20.7328 15.7191C20.8761 15.3387 20.9677 14.1253 19.9268 13.2876C19.4193 12.8793 18.7825 12.7276 18.1387 12.7929C16.9381 12.9143 16.0146 13.7287 13.5005 16.5125C12.7416 17.3525 11.6372 18.6779 10.9746 19.5367L17.8803 26.0424C20.1688 23.5269 21.1017 22.5912 22.9062 20.7034ZM13.8952 19.112C15.2862 17.4225 16.7642 15.8894 17.4338 15.2827C17.6453 15.0914 17.8756 14.9001 18.1552 14.8254C18.6087 14.7017 19.0762 15.0214 19.182 15.4834C19.2877 15.9478 18.994 16.3888 18.6674 16.7528C17.932 17.5765 15.2345 20.379 15.2345 20.379L13.8952 19.112ZM16.5997 21.6601C16.5997 21.6601 19.2266 18.902 20.0842 18.0199C20.4249 17.6699 20.6435 17.4575 20.8784 17.3432C21.1815 17.1962 21.5128 17.1659 21.8089 17.3619C22.1003 17.5555 22.2342 17.8892 22.1613 18.2206C22.0744 18.6149 21.7502 18.9906 21.4823 19.2776C21.1204 19.6627 18.0048 22.9739 18.0001 22.9785L16.5997 21.6601ZM40.7895 12.9446L43.0005 8.02566L43.1415 7.5893L43.1015 8.04432L43.3342 14.6177C44.1095 14.69 44.9108 14.7974 45.7003 14.9281L45.3408 5.19282C44.2364 5.07148 43.1368 4.98515 42.0371 4.93848L39.859 10.3078L39.7815 10.7068L39.7039 10.3078L37.5281 4.93848C36.4285 4.98515 35.3288 5.07148 34.2245 5.19282L33.865 14.9281C34.6545 14.7974 35.4557 14.6924 36.2311 14.6177L36.4637 8.04432L36.4238 7.5893L36.5648 8.02566L38.7758 12.9446H40.7895ZM59.1521 23.1209C59.6948 23.6996 60.4773 24.633 60.9167 25.2L69.0089 20.099C68.6048 19.574 67.9609 18.7759 67.4793 18.2136L62.3547 21.5784L62.0046 21.8771L62.2654 21.4991L64.5281 17.0142L62.928 15.4251L58.4096 17.6722L58.0289 17.9312L58.332 17.5835L61.7226 12.4966C61.1258 11.9926 60.5525 11.5305 59.8217 10.9705L54.6854 19C55.3362 19.497 56.1938 20.2274 56.7413 20.7244L61.5769 18.2322L61.8871 18.0059L61.6592 18.3139L59.1521 23.1209Z" fill="white" style="fill:white;fill-opacity:1;"/>
</svg>
