<svg width="26" height="27" viewBox="0 0 26 27" fill="none" xmlns="http://www.w3.org/2000/svg">
<mask id="path-1-outside-1_2564_864" maskUnits="userSpaceOnUse" x="0.0109863" y="-0.0413818" width="26" height="28" fill="black">
<rect fill="white" x="0.0109863" y="-0.0413818" width="26" height="28"/>
<path d="M2.05099 15.7186V12.0386H11.131V2.75862H14.891V12.0386H23.971V15.7186H14.891V24.9986H11.131V15.7186H2.05099Z"/>
</mask>
<path d="M2.05099 15.7186V12.0386H11.131V2.75862H14.891V12.0386H23.971V15.7186H14.891V24.9986H11.131V15.7186H2.05099Z" fill="#1C69D4"/>
<path d="M2.05099 15.7186H0.0509865V17.7186H2.05099V15.7186ZM2.05099 12.0386V10.0386H0.0509865V12.0386H2.05099ZM11.131 12.0386V14.0386H13.131V12.0386H11.131ZM11.131 2.75862V0.758617H9.13099V2.75862H11.131ZM14.891 2.75862H16.891V0.758617H14.891V2.75862ZM14.891 12.0386H12.891V14.0386H14.891V12.0386ZM23.971 12.0386H25.971V10.0386H23.971V12.0386ZM23.971 15.7186V17.7186H25.971V15.7186H23.971ZM14.891 15.7186V13.7186H12.891V15.7186H14.891ZM14.891 24.9986V26.9986H16.891V24.9986H14.891ZM11.131 24.9986H9.13099V26.9986H11.131V24.9986ZM11.131 15.7186H13.131V13.7186H11.131V15.7186ZM4.05099 15.7186V12.0386H0.0509865V15.7186H4.05099ZM2.05099 14.0386H11.131V10.0386H2.05099V14.0386ZM13.131 12.0386V2.75862H9.13099V12.0386H13.131ZM11.131 4.75862H14.891V0.758617H11.131V4.75862ZM12.891 2.75862V12.0386H16.891V2.75862H12.891ZM14.891 14.0386H23.971V10.0386H14.891V14.0386ZM21.971 12.0386V15.7186H25.971V12.0386H21.971ZM23.971 13.7186H14.891V17.7186H23.971V13.7186ZM12.891 15.7186V24.9986H16.891V15.7186H12.891ZM14.891 22.9986H11.131V26.9986H14.891V22.9986ZM13.131 24.9986V15.7186H9.13099V24.9986H13.131ZM11.131 13.7186H2.05099V17.7186H11.131V13.7186Z" fill="white" mask="url(#path-1-outside-1_2564_864)"/>
</svg>
